<svg width="24" height="24" viewBox="0 0 24 24" fill="none" xmlns="http://www.w3.org/2000/svg">
<g id="icons8_gender 1">
<path id="Vector" d="M13 16C10.2391 16 8 13.7609 8 11C8 10.0217 8.28261 9.08696 8.80435 8.26087C9 7.95652 9.41304 7.86957 9.71739 8.06522C10.0217 8.26087 10.1087 8.67391 9.91304 8.97826C9.52174 9.58696 9.30435 10.2826 9.30435 11C9.30435 13.0435 10.9565 14.6957 13 14.6957C15.0435 14.6957 16.6957 13.0435 16.6957 11C16.6957 8.95652 15.0435 7.30435 13 7.30435C12.6304 7.30435 12.3478 7.02174 12.3478 6.65217C12.3478 6.28261 12.6304 6 13 6C15.7609 6 18 8.23913 18 11C18 13.7609 15.7609 16 13 16Z" fill="#666666"/>
<path id="Vector_2" d="M15.7792 8C15.5714 8 15.3896 7.93477 15.2338 7.80432C14.9221 7.54341 14.9221 7.1303 15.2338 6.89113L19.6494 3.19491C19.8831 2.99923 20.1948 2.95574 20.5065 3.04271C20.7922 3.15142 21 3.39059 21 3.6515V6.69545C21 7.06507 20.6623 7.34773 20.2208 7.34773C19.7792 7.34773 19.4416 7.06507 19.4416 6.69545V5.21696L16.3247 7.80432C16.1688 7.93477 15.987 8 15.7792 8Z" fill="#666666"/>
<path id="Vector_3" d="M20.25 5H16.75C16.325 5 16 4.56667 16 4C16 3.43333 16.325 3 16.75 3H20.25C20.675 3 21 3.43333 21 4C21 4.56667 20.675 5 20.25 5Z" fill="#666666"/>
<g id="Group">
<path id="Vector_4" d="M8.13627 16.4647C6.73539 16.4647 5.4034 15.9135 4.39293 14.926C2.32605 12.8591 2.32605 9.50618 4.39293 7.46227C6.45981 5.39539 9.81274 5.39539 11.8567 7.46227C13.625 9.2306 13.9006 12.0324 12.5226 14.0992C12.316 14.4208 11.8796 14.5126 11.5581 14.3059C11.2366 14.0992 11.1447 13.6629 11.3514 13.3414C12.3619 11.8027 12.1552 9.73583 10.8462 8.42681C9.33047 6.9111 6.85022 6.9111 5.33451 8.42681C3.8188 9.94252 3.8188 12.4228 5.33451 13.9385C6.0694 14.6734 7.05691 15.0867 8.09034 15.0867C8.48075 15.0867 8.7793 15.3853 8.7793 15.7757C8.7793 16.1661 8.52669 16.4647 8.13627 16.4647Z" fill="#666666"/>
<path id="Vector_5" d="M8.1372 21.9985C7.74679 21.9985 7.44824 21.6999 7.44824 21.3095V15.7749C7.44824 15.3845 7.74679 15.0859 8.1372 15.0859C8.52761 15.0859 8.82616 15.3845 8.82616 15.7749V21.3095C8.82616 21.677 8.52761 21.9985 8.1372 21.9985Z" fill="#666666"/>
<path id="Vector_6" d="M10.4334 19.7041H5.84033C5.44992 19.7041 5.15137 19.4055 5.15137 19.0151C5.15137 18.6247 5.44992 18.3262 5.84033 18.3262H10.4334C10.8238 18.3262 11.1223 18.6247 11.1223 19.0151C11.1223 19.4055 10.8238 19.7041 10.4334 19.7041Z" fill="#666666"/>
</g>
</g>
</svg>
