<svg width="24" height="24" viewBox="0 0 24 24" fill="none" xmlns="http://www.w3.org/2000/svg">
<path d="M8.66637 2.00057V5.07749" stroke="#666666" stroke-width="1.5" stroke-linecap="round" stroke-linejoin="round"/>
<path d="M15.3336 2.00057V5.07749" stroke="#666666" stroke-width="1.5" stroke-linecap="round" stroke-linejoin="round"/>
<path d="M4.85841 4.73831C3.76143 5.48067 3.14724 6.70671 2.8924 8.94151H21.1076C20.8528 6.70671 20.2386 5.48067 19.1416 4.73831C17.8377 3.85598 15.6784 3.51843 12 3.51843C8.32163 3.51843 6.16225 3.85598 4.85841 4.73831ZM21.2198 10.4415H2.78016C2.75952 10.9269 2.75 11.4453 2.75 11.9992C2.75 15.8209 3.21612 17.8022 4.42059 18.9141C5.02182 19.4691 5.87092 19.8669 7.11408 20.1219C8.36264 20.3781 9.95692 20.48 12 20.48C14.0431 20.48 15.6374 20.3781 16.8859 20.1219C18.1291 19.8669 18.9782 19.4691 19.5794 18.9141C20.7839 17.8022 21.25 15.8209 21.25 11.9992C21.25 11.4453 21.2405 10.9269 21.2198 10.4415Z" stroke="#666666" stroke-width="1.5" stroke-linecap="round" stroke-linejoin="round"/>
<path d="M7 13.5382H9.5" stroke="#666666" stroke-width="1.5" stroke-linecap="round" stroke-linejoin="round"/>
<path d="M7 16.6153H9.5" stroke="#666666" stroke-width="1.5" stroke-linecap="round" stroke-linejoin="round"/>
<path d="M12.8336 15.4613L14.0836 16.6151L17.417 13.5382" stroke="#666666" stroke-width="1.5" stroke-linecap="round" stroke-linejoin="round"/>
</svg>
