<svg width="24" height="24" viewBox="0 0 24 24" fill="none" xmlns="http://www.w3.org/2000/svg">
<path d="M21.2048 5.49492C20.9771 5.09175 20.7077 4.7534 20.3924 4.46683C19.7179 3.85365 18.7689 3.41783 17.3918 3.1396C16.0098 2.86039 14.2492 2.75 12 2.75C9.02807 2.75 6.92393 2.94382 5.42471 3.45169C4.15337 3.88236 3.33231 4.53238 2.78407 5.51478C2.92869 5.67231 3.11806 5.8742 3.34597 6.10773C3.9151 6.6909 4.71997 7.4667 5.66457 8.24025C6.61131 9.01556 7.68374 9.77647 8.78773 10.3404C9.89729 10.9072 10.9929 11.2513 11.999 11.25C13.003 11.2487 14.0959 10.903 15.2024 10.3357C16.3033 9.7712 17.3725 9.01065 18.3162 8.23612C19.2577 7.46334 20.0598 6.68869 20.6269 6.10648C20.8636 5.86351 21.0586 5.65487 21.2048 5.49492ZM2.27246 7.15538C2.24467 7.1269 2.21741 7.09886 2.19069 7.07128C1.87885 8.30477 1.75 9.90644 1.75 12C1.75 16.1369 2.26 18.3081 3.60757 19.5332C4.28206 20.1463 5.2311 20.5822 6.60822 20.8604C7.99018 21.1396 9.75078 21.25 12 21.25C14.2492 21.25 16.0098 21.1396 17.3918 20.8604C18.7689 20.5822 19.7179 20.1463 20.3924 19.5332C21.74 18.3081 22.25 16.1369 22.25 12C22.25 9.87804 22.1158 8.27328 21.8033 7.04809C21.7702 7.08239 21.7362 7.11742 21.7014 7.15314C21.1072 7.76314 20.2636 8.57824 19.2678 9.39559C18.2741 10.2112 17.1141 11.0412 15.8868 11.6704C14.6651 12.2969 13.3307 12.7482 12.001 12.75C10.6684 12.7518 9.33055 12.302 8.10538 11.6762C6.87464 11.0475 5.7111 10.2172 4.7142 9.40077C3.71516 8.58264 2.86873 7.76636 2.27246 7.15538Z" stroke="#666666" stroke-width="1.5" stroke-linecap="round" stroke-linejoin="round"/>
</svg>
