<svg width="36" height="35" viewBox="0 0 36 35" fill="none" xmlns="http://www.w3.org/2000/svg">
<rect width="36" height="34.35" rx="4" fill="white" fill-opacity="0.5"/>
<path d="M17.0549 24.4754L17.0538 24.4744C14.4641 22.126 12.3749 20.2274 10.9244 18.4529C9.48222 16.6884 8.75 15.1384 8.75 13.5C8.75 10.8251 10.8333 8.75 13.5 8.75C15.0133 8.75 16.4781 9.45834 17.4309 10.5685L18 11.2316L18.5691 10.5685C19.5219 9.45834 20.9867 8.75 22.5 8.75C25.1667 8.75 27.25 10.8251 27.25 13.5C27.25 15.1384 26.5178 16.6884 25.0756 18.4529C23.6251 20.2274 21.5359 22.126 18.9462 24.4744L18.9451 24.4754L18 25.3358L17.0549 24.4754Z" stroke="white" stroke-width="1.5"/>
</svg>
