<svg width="20" height="21" viewBox="0 0 20 21" fill="none" xmlns="http://www.w3.org/2000/svg">
<rect width="20" height="21" fill="#FAF5F5"/>
<g id="k&#225;&#187;&#185; n&#196;&#131;ng" clip-path="url(#clip0_1_4)">
<rect width="414" height="896" transform="translate(-175 -341)" fill="white"/>
<g id="Frame 1000009685">
<g id="Frame 1000009696">
<rect x="-159" y="-9" width="382" height="39" rx="5" fill="#3582CD"/>
<g id="Frame 1000009710">
<g id="Add_round_fill">
<path id="Subtract" fill-rule="evenodd" clip-rule="evenodd" d="M17.5 10.5C17.5 14.6421 14.1421 18 10 18C5.85786 18 2.5 14.6421 2.5 10.5C2.5 6.35786 5.85786 3 10 3C14.1421 3 17.5 6.35786 17.5 10.5ZM10 15.6667C9.44772 15.6667 9 15.219 9 14.6667V11.5H5.83333C5.28105 11.5 4.83333 11.0523 4.83333 10.5C4.83333 9.94772 5.28105 9.5 5.83333 9.5H9V6.33333C9 5.78105 9.44772 5.33333 10 5.33333C10.5523 5.33333 11 5.78105 11 6.33333V9.5H14.1667C14.719 9.5 15.1667 9.94772 15.1667 10.5C15.1667 11.0523 14.719 11.5 14.1667 11.5H11V14.6667C11 15.219 10.5523 15.6667 10 15.6667Z" fill="white"/>
</g>
</g>
</g>
</g>
</g>
<defs>
<clipPath id="clip0_1_4">
<rect width="414" height="896" fill="white" transform="translate(-175 -341)"/>
</clipPath>
</defs>
</svg>
