<svg
  xmlns="http://www.w3.org/2000/svg"
  width="23"
  height="18"
  viewBox="0 0 23 18"
  fill="none"
>
  <g clipPath="url(#clip0_2003_96789)">
    <path
      d="M11.2577 0.931641C14.2041 0.980584 16.4849 2.0035 18.4035 3.84866C18.9712 4.39682 19.4753 5.0184 19.9794 5.6302C20.7527 6.56501 21.5065 7.51451 22.2651 8.46401C22.5734 8.85066 22.5734 9.159 22.27 9.53587C21.3009 10.7448 20.3416 11.9635 19.3481 13.1528C17.8112 14.9979 15.9122 16.3096 13.5434 16.8333C10.6753 17.4647 8.07154 16.8088 5.70758 15.1105C4.61125 14.3225 3.74006 13.3143 2.91292 12.262C2.20813 11.3712 1.48867 10.4903 0.774095 9.60439C0.411915 9.14922 0.40702 8.87513 0.7692 8.42486C1.8019 7.14744 2.80035 5.84555 3.8722 4.60728C5.44328 2.78659 7.39612 1.5679 9.78455 1.11763C10.3572 1.00016 10.9396 0.970795 11.2577 0.931641ZM20.8262 9.02196C20.7527 8.92897 20.7038 8.86045 20.6549 8.79682C20.0284 8.01863 19.397 7.24532 18.7754 6.46223C18.1098 5.62041 17.4099 4.81774 16.5436 4.17658C14.6789 2.7817 12.6086 2.15522 10.2887 2.50761C8.49734 2.7817 6.94584 3.58437 5.67821 4.85689C4.86086 5.67424 4.15607 6.59927 3.40724 7.48515C2.99122 7.97947 2.59478 8.49338 2.18366 9.00239C2.25218 9.08559 2.30602 9.15901 2.36475 9.22753C3.10379 10.1428 3.84284 11.058 4.57699 11.9732C5.20835 12.7661 5.92293 13.4709 6.75986 14.0484C8.63928 15.3454 10.6998 15.8789 12.9659 15.4531C14.9089 15.0909 16.5289 14.1121 17.8308 12.6487C18.8684 11.4838 19.8228 10.2455 20.8262 9.02196Z"
      fill="white"
    />
    <path
      d="M11.4975 13.4025C9.06995 13.4025 7.09753 11.4301 7.10243 9.00741C7.10243 6.57982 9.07484 4.6123 11.5024 4.6123C13.93 4.6123 15.8975 6.58472 15.8975 9.00741C15.8975 11.4301 13.9251 13.4025 11.4975 13.4025ZM8.56583 8.99273C8.56094 10.6079 9.86772 11.9293 11.478 11.9391C13.0931 11.944 14.4194 10.6421 14.4292 9.03188C14.439 7.40696 13.1273 6.0806 11.5024 6.07571C9.8873 6.07081 8.57072 7.3776 8.56583 8.99273Z"
      fill="white"
    />
  </g>
  <defs>
    <clipPath id="clip0_2003_96789">
      <rect
        width="22"
        height="16.1366"
        fill="white"
        transform="translate(0.5 0.931641)"
      />
    </clipPath>
  </defs>
</svg>