<svg width="18" height="18" viewBox="0 0 18 18" fill="none" xmlns="http://www.w3.org/2000/svg">
<path d="M9.5308 10.0506C9.39015 10.1912 9.19942 10.2701 9.00055 10.2701C8.80168 10.2701 8.61095 10.1912 8.4703 10.0506L5.0308 6.61181C4.88935 6.47519 4.6999 6.39959 4.50325 6.4013C4.3066 6.40301 4.11849 6.48189 3.97944 6.62094C3.84038 6.76 3.7615 6.94811 3.75979 7.14476C3.75808 7.3414 3.83368 7.53086 3.9703 7.67231L7.4098 11.1088C7.83174 11.5306 8.40393 11.7676 9.00055 11.7676C9.59717 11.7676 10.1694 11.5306 10.5913 11.1088L14.0308 7.66931C14.1674 7.52786 14.243 7.3384 14.2413 7.14176C14.2396 6.94511 14.1607 6.757 14.0217 6.61794C13.8826 6.47889 13.6945 6.40001 13.4979 6.3983C13.3012 6.39659 13.1118 6.47219 12.9703 6.60881L9.5308 10.0506Z" fill="#999999"/>
</svg>
