<svg width="28" height="28" viewBox="0 0 28 28" fill="none" xmlns="http://www.w3.org/2000/svg">
<path d="M23.3334 12.8323H25.6667C25.6667 6.84733 21.1482 2.3335 15.155 2.3335V4.66683C19.894 4.66683 23.3334 8.10033 23.3334 12.8323Z" fill="#4C5BD4"/>
<path d="M15.1668 9.33345C17.6203 9.33345 18.6668 10.3799 18.6668 12.8334H21.0001C21.0001 9.07095 18.9293 7.00012 15.1668 7.00012V9.33345ZM19.1591 15.6836C18.935 15.4796 18.6404 15.3707 18.3375 15.3801C18.0346 15.3895 17.7473 15.5163 17.5363 15.7338L14.7444 18.6049C14.0724 18.4766 12.7214 18.0554 11.3308 16.6683C9.94009 15.2764 9.51892 13.9219 9.39409 13.2546L12.2629 10.4616C12.4804 10.2506 12.6072 9.96324 12.6166 9.66036C12.626 9.35747 12.5171 9.06283 12.3131 8.83878L8.00225 4.09862C7.79813 3.87387 7.51444 3.73754 7.21143 3.71859C6.90842 3.69963 6.60995 3.79955 6.37942 3.99712L3.84775 6.16828C3.64605 6.37072 3.52566 6.64014 3.50942 6.92545C3.49192 7.21712 3.15825 14.1261 8.51559 19.4858C13.1893 24.1583 19.0436 24.5001 20.6559 24.5001C20.8916 24.5001 21.0363 24.4931 21.0748 24.4908C21.3598 24.4739 21.6288 24.3532 21.8308 24.1513L24.0008 21.6185C24.1985 21.3881 24.2986 21.0897 24.2798 20.7867C24.2611 20.4837 24.125 20.1999 23.9004 19.9956L19.1591 15.6836Z" fill="#4C5BD4"/>
</svg>
