<svg width="61" height="61" viewBox="0 0 61 61" fill="none" xmlns="http://www.w3.org/2000/svg">
<path d="M31.3473 27.955C29.4727 27.9353 27.6459 27.3614 26.0969 26.3056C24.5478 25.2498 23.3458 23.7593 22.642 22.0218C21.9383 20.2842 21.7644 18.3773 22.1422 16.5411C22.5199 14.705 23.4325 13.0216 24.765 11.703C26.0975 10.3844 27.7903 9.48946 29.6304 9.13093C31.4704 8.7724 33.3754 8.96628 35.1055 9.68816C36.8356 10.41 38.3134 11.6276 39.3529 13.1877C40.3924 14.7477 40.9472 16.5804 40.9473 18.455C40.9296 20.9865 39.9094 23.4078 38.11 25.1884C36.3106 26.9691 33.8788 27.9639 31.3473 27.955ZM31.3473 12.2884C30.1321 12.3081 28.9498 12.6864 27.9489 13.3759C26.9481 14.0654 26.1732 15.0352 25.7218 16.1636C25.2704 17.292 25.1624 18.5287 25.4115 19.7182C25.6606 20.9078 26.2557 21.9972 27.122 22.8497C27.9883 23.7021 29.0871 24.2796 30.2805 24.5095C31.4739 24.7395 32.7087 24.6116 33.8297 24.1421C34.9507 23.6726 35.9079 22.8823 36.5812 21.8704C37.2545 20.8586 37.6138 19.6704 37.6139 18.455C37.5963 16.8077 36.9273 15.2342 35.753 14.0787C34.5787 12.9231 32.9947 12.2795 31.3473 12.2884Z" fill="#285A9B"/>
<path d="M31.3473 27.955C29.4727 27.9353 27.6459 27.3614 26.0969 26.3056C24.5478 25.2498 23.3458 23.7593 22.642 22.0218C21.9383 20.2842 21.7644 18.3773 22.1422 16.5411C22.5199 14.705 23.4325 13.0216 24.765 11.703C26.0975 10.3844 27.7903 9.48946 29.6304 9.13093C31.4704 8.7724 33.3754 8.96628 35.1055 9.68816C36.8356 10.41 38.3134 11.6276 39.3529 13.1877C40.3924 14.7477 40.9472 16.5804 40.9473 18.455C40.9296 20.9865 39.9094 23.4078 38.11 25.1884C36.3106 26.9691 33.8788 27.9639 31.3473 27.955ZM31.3473 12.2884C30.1321 12.3081 28.9498 12.6864 27.9489 13.3759C26.9481 14.0654 26.1732 15.0352 25.7218 16.1636C25.2704 17.292 25.1624 18.5287 25.4115 19.7182C25.6606 20.9078 26.2557 21.9972 27.122 22.8497C27.9883 23.7021 29.0871 24.2796 30.2805 24.5095C31.4739 24.7395 32.7087 24.6116 33.8297 24.1421C34.9507 23.6726 35.9079 22.8823 36.5812 21.8704C37.2545 20.8586 37.6138 19.6704 37.6139 18.455C37.5963 16.8077 36.9273 15.2342 35.753 14.0787C34.5787 12.9231 32.9947 12.2795 31.3473 12.2884Z" fill="#285A9B"/>
<path d="M37.1636 30.1885C29.7712 28.9021 22.1609 30.073 15.497 33.5218C15.0239 33.7845 14.6322 34.1722 14.3647 34.6425C14.0972 35.1128 13.9642 35.6477 13.9803 36.1885V42.1218C13.9803 42.5639 14.1559 42.9878 14.4685 43.3003C14.781 43.6129 15.2049 43.7885 15.647 43.7885C16.089 43.7885 16.5129 43.6129 16.8255 43.3003C17.138 42.9878 17.3136 42.5639 17.3136 42.1218V36.4052C23.4931 33.3046 30.5203 32.3208 37.3136 33.6052L37.1636 30.1885Z" fill="#285A9B"/>
<path d="M55.6473 37.4385H44.4806V34.9718C44.4806 34.5298 44.305 34.1059 43.9925 33.7933C43.6799 33.4808 43.256 33.3052 42.814 33.3052C42.3719 33.3052 41.948 33.4808 41.6355 33.7933C41.3229 34.1059 41.1473 34.5298 41.1473 34.9718V37.4385H28.9806C28.5386 37.4385 28.1147 37.6141 27.8021 37.9267C27.4896 38.2392 27.314 38.6631 27.314 39.1052V55.7718C27.314 56.2139 27.4896 56.6378 27.8021 56.9504C28.1147 57.2629 28.5386 57.4385 28.9806 57.4385H55.6473C56.0893 57.4385 56.5132 57.2629 56.8258 56.9504C57.1384 56.6378 57.314 56.2139 57.314 55.7718V39.1052C57.314 38.6631 57.1384 38.2392 56.8258 37.9267C56.5132 37.6141 56.0893 37.4385 55.6473 37.4385ZM53.9806 54.1052H30.6473V40.7718H41.1473V41.4552C41.1473 41.8972 41.3229 42.3211 41.6355 42.6337C41.948 42.9462 42.3719 43.1218 42.814 43.1218C43.256 43.1218 43.6799 42.9462 43.9925 42.6337C44.305 42.3211 44.4806 41.8972 44.4806 41.4552V40.7718H53.9806V54.1052Z" fill="#285A9B"/>
<path d="M46.9304 46.4717H36.9971V48.805H46.9304V46.4717Z" fill="#285A9B"/>
<path d="M18.7138 21.1719C14.0995 21.2491 9.56529 22.3898 5.4638 24.5052C5.01774 24.7408 4.6441 25.0932 4.38283 25.5248C4.12156 25.9563 3.98248 26.4507 3.98047 26.9552V32.1219C3.98047 32.5639 4.15606 32.9878 4.46862 33.3004C4.78118 33.6129 5.20511 33.7885 5.64714 33.7885C6.08916 33.7885 6.51309 33.6129 6.82565 33.3004C7.13821 32.9878 7.3138 32.5639 7.3138 32.1219V27.2885C11.2326 25.3379 15.5714 24.382 19.9471 24.5052C19.3746 23.4607 18.9591 22.3375 18.7138 21.1719Z" fill="#285A9B"/>
<path d="M55.8304 24.4886C52.1518 22.559 48.109 21.4233 43.9637 21.1553C43.7196 22.3188 43.3099 23.4414 42.7471 24.4886C46.6522 24.5821 50.4883 25.5382 53.9804 27.2886V32.1219C53.9804 32.564 54.156 32.9879 54.4686 33.3005C54.7811 33.613 55.205 33.7886 55.6471 33.7886C56.0891 33.7886 56.513 33.613 56.8256 33.3005C57.1381 32.9879 57.3137 32.564 57.3137 32.1219V26.9553C57.3148 26.448 57.1771 25.9501 56.9157 25.5153C56.6542 25.0806 56.279 24.7255 55.8304 24.4886Z" fill="#285A9B"/>
<path d="M18.414 18.4553C18.414 18.072 18.414 17.7053 18.414 17.3387C17.1083 17.1639 15.9204 16.4924 15.0974 15.4638C14.2745 14.4353 13.8799 13.1289 13.9959 11.8168C14.1118 10.5046 14.7294 9.28771 15.72 8.41943C16.7106 7.55114 17.9979 7.09836 19.314 7.15533C20.6828 7.15285 21.9985 7.68511 22.9806 8.63867C23.8471 7.92397 24.7988 7.31936 25.814 6.83867C24.68 5.53476 23.1775 4.60506 21.5046 4.17212C19.8317 3.73917 18.0668 3.82329 16.4427 4.4134C14.8186 5.00351 13.4113 6.0719 12.4065 7.47776C11.4017 8.88361 10.8465 10.5609 10.814 12.2887C10.8489 14.4033 11.671 16.4289 13.1195 17.9698C14.568 19.5108 16.5389 20.4564 18.6473 20.622C18.5059 19.9081 18.4278 19.183 18.414 18.4553Z" fill="#285A9B"/>
<path d="M41.9303 3.82184C40.7849 3.8221 39.6511 4.05069 38.5952 4.49425C37.5392 4.93782 36.5822 5.58745 35.7803 6.40518C36.907 6.81346 37.9725 7.37423 38.9469 8.07184C39.725 7.53173 40.6351 7.2129 41.5801 7.14936C42.5252 7.08582 43.4697 7.27995 44.3131 7.71105C45.1565 8.14215 45.8671 8.79405 46.3691 9.59725C46.8711 10.4005 47.1457 11.3248 47.1636 12.2718C47.1531 13.2446 46.8673 14.1944 46.3394 15.0115C45.8114 15.8285 45.0628 16.4793 44.1803 16.8885C44.2473 17.4024 44.2807 17.9202 44.2803 18.4385C44.2758 19.1085 44.2201 19.7771 44.1136 20.4385C45.9293 19.9717 47.5397 18.9178 48.6942 17.4408C49.8487 15.9637 50.4825 14.1465 50.4969 12.2718C50.4749 10.0174 49.5616 7.86318 47.9565 6.27991C46.3513 4.69663 44.1849 3.81293 41.9303 3.82184Z" fill="#285A9B"/>
</svg>
