<svg width="40" height="40" viewBox="0 0 40 40" fill="none" xmlns="http://www.w3.org/2000/svg">
<g clip-path="url(#clip0_12579_59220)">
<path d="M21.6939 1.90038C24.2001 7.87955 26.7064 13.8562 29.2126 19.8304C31.7126 25.8023 34.2251 31.7866 36.7314 37.7598C37.192 38.8616 36.6626 39.9091 35.792 39.6266C26.3295 36.5623 16.8732 33.5073 7.42323 30.4473C6.56073 30.1648 5.96448 28.7479 6.36948 27.941C10.8101 19.0523 15.257 10.1635 19.7014 1.27413C20.1101 0.442884 21.2289 0.802884 21.6907 1.90538" fill="#5FA6C9"/>
<path d="M21.5123 1.47398C23.6344 6.53398 25.7573 11.5942 27.881 16.6546C29.9979 21.7109 32.121 26.7709 34.2429 31.8271C34.6335 32.7596 34.1823 33.649 33.4442 33.4109C25.4392 30.8171 17.431 28.2327 9.43041 25.6384C8.69978 25.399 8.19916 24.2002 8.53916 23.514C12.2954 15.989 16.0642 8.47023 19.8267 0.938976C20.1735 0.242726 21.1192 0.542101 21.511 1.47523" fill="#66B1DE"/>
<path d="M3.24929 21.4688C4.23637 21.0533 5.22366 20.6388 6.21116 20.225C7.93616 19.5031 9.65991 18.7781 11.3874 18.0544C11.4212 18.0413 11.4612 18.0525 11.4962 18.0813L11.4999 18.0844L11.5099 18.0863C11.5542 18.1268 11.588 18.1774 11.6087 18.2338C12.4393 20.2131 13.2718 22.1925 14.0987 24.1719C15.4068 27.2844 16.708 30.3931 18.0174 33.5081C18.068 33.6369 18.0549 33.7656 17.9855 33.7913C16.998 34.2081 16.0118 34.62 15.0249 35.0338C13.2987 35.7588 11.5743 36.48 9.84929 37.2038C9.77866 37.2344 9.67867 37.1538 9.62491 37.0269C8.79575 35.0481 7.96575 33.0686 7.13491 31.0881C5.82679 27.9738 4.52554 24.8638 3.21929 21.7519C3.16491 21.6213 3.17867 21.4938 3.24929 21.4688ZM19.9687 0.0606314C22.008 -0.792494 27.4055 7.45751 32.0343 18.4913C36.663 29.5219 38.7612 39.1538 36.7249 40.0138C34.6887 40.8675 29.2849 32.6169 24.6624 21.5844C20.0337 10.5538 17.9337 0.915631 19.9687 0.0606314Z" fill="#2B7F99"/>
<path d="M21.2064 3.00937C22.6345 2.41124 27.0126 9.60437 30.9858 19.0794C34.9564 28.5544 37.0226 36.7169 35.5945 37.3106C34.1658 37.9119 29.787 30.7194 25.8133 21.2456C21.8439 11.7706 19.7795 3.60812 21.2064 3.00812" fill="#5FA6C9"/>
<path d="M27.925 15.6623C26.2238 16.3754 25.5956 18.7454 26.5231 20.9573C27.4544 23.171 29.5875 24.3885 31.2875 23.6773C32.9856 22.9635 33.6069 20.591 32.6756 18.3773C31.7531 16.1629 29.6244 14.9504 27.925 15.6623Z" fill="#72C1E8"/>
</g>
<defs>
<clipPath id="clip0_12579_59220">
<rect width="40" height="40" fill="white" transform="matrix(-1 0 0 1 40 0)"/>
</clipPath>
</defs>
</svg>
