<svg width="28" height="28" viewBox="0 0 28 28" fill="none" xmlns="http://www.w3.org/2000/svg">
<rect x="0.5" y="0.5" width="27" height="27" rx="13.5" fill="white"/>
<rect x="0.5" y="0.5" width="27" height="27" rx="13.5" stroke="#999999"/>
<path d="M8 14.0391C8 13.7474 8.09896 13.5026 8.29688 13.3047C8.49479 13.1016 8.76302 13 9.10156 13C9.44531 13 9.71354 13.1016 9.90625 13.3047C10.1042 13.5026 10.2031 13.7474 10.2031 14.0391C10.2031 14.3307 10.1042 14.5755 9.90625 14.7734C9.71354 14.9714 9.44531 15.0703 9.10156 15.0703C8.76302 15.0703 8.49479 14.9714 8.29688 14.7734C8.09896 14.5755 8 14.3307 8 14.0391Z" fill="#999999"/>
<path d="M12.4531 14.0391C12.4531 13.7474 12.5521 13.5026 12.75 13.3047C12.9479 13.1016 13.2161 13 13.5547 13C13.8984 13 14.1667 13.1016 14.3594 13.3047C14.5573 13.5026 14.6562 13.7474 14.6562 14.0391C14.6562 14.3307 14.5573 14.5755 14.3594 14.7734C14.1667 14.9714 13.8984 15.0703 13.5547 15.0703C13.2161 15.0703 12.9479 14.9714 12.75 14.7734C12.5521 14.5755 12.4531 14.3307 12.4531 14.0391Z" fill="#999999"/>
<path d="M16.9062 14.0391C16.9062 13.7474 17.0052 13.5026 17.2031 13.3047C17.401 13.1016 17.6693 13 18.0078 13C18.3516 13 18.6198 13.1016 18.8125 13.3047C19.0104 13.5026 19.1094 13.7474 19.1094 14.0391C19.1094 14.3307 19.0104 14.5755 18.8125 14.7734C18.6198 14.9714 18.3516 15.0703 18.0078 15.0703C17.6693 15.0703 17.401 14.9714 17.2031 14.7734C17.0052 14.5755 16.9062 14.3307 16.9062 14.0391Z" fill="#999999"/>
</svg>
