<svg width="40" height="41" viewBox="0 0 40 41" fill="none" xmlns="http://www.w3.org/2000/svg">
<path fill-rule="evenodd" clip-rule="evenodd" d="M26.1786 19.4538C26.491 19.7663 26.6666 20.1902 26.6666 20.6321C26.6666 21.0741 26.491 21.4979 26.1786 21.8105L16.7502 31.2388C16.5965 31.398 16.4126 31.525 16.2093 31.6123C16.0059 31.6997 15.7872 31.7456 15.5659 31.7476C15.3446 31.7495 15.1252 31.7073 14.9203 31.6235C14.7155 31.5397 14.5294 31.4159 14.3729 31.2595C14.2164 31.103 14.0927 30.9169 14.0089 30.7121C13.9251 30.5072 13.8829 30.2878 13.8848 30.0665C13.8868 29.8452 13.9327 29.6265 14.0201 29.4231C14.1074 29.2198 14.2344 29.0359 14.3936 28.8821L22.6436 20.6321L14.3936 12.3821C14.09 12.0678 13.922 11.6468 13.9258 11.2098C13.9296 10.7728 14.1049 10.3548 14.4139 10.0458C14.7229 9.73676 15.1409 9.56148 15.5779 9.55768C16.0149 9.55388 16.4359 9.72187 16.7502 10.0255L26.1786 19.4538Z" fill="black"/>
</svg>
