<svg width="51" height="50" viewBox="0 0 51 50" fill="none" xmlns="http://www.w3.org/2000/svg">
<path d="M44.6211 14.6057L35.8926 5.87715C35.6387 5.62321 35.3372 5.42177 35.0055 5.28434C34.6737 5.14691 34.3181 5.07617 33.959 5.07617C33.5999 5.07617 33.2443 5.14691 32.9125 5.28434C32.5808 5.42177 32.2793 5.62321 32.0254 5.87715L7.94141 29.9631C7.68699 30.2166 7.48525 30.518 7.34781 30.8499C7.21038 31.1817 7.13996 31.5375 7.14063 31.8967V40.6252C7.14063 41.3504 7.42871 42.0459 7.94151 42.5587C8.4543 43.0715 9.1498 43.3596 9.875 43.3596H18.6035C18.9627 43.3602 19.3185 43.2898 19.6503 43.1524C19.9822 43.015 20.2836 42.8132 20.5371 42.5588L44.6211 18.4729C44.875 18.2189 45.0765 17.9175 45.2139 17.5857C45.3513 17.254 45.4221 16.8984 45.4221 16.5393C45.4221 16.1802 45.3513 15.8246 45.2139 15.4928C45.0765 15.161 44.875 14.8596 44.6211 14.6057ZM9.97071 31.2502L27.0625 14.1564L30.8731 17.9689L13.7813 35.0607L9.97071 31.2502ZM9.48438 40.6252V34.0783L16.4199 41.0158H9.875C9.7714 41.0158 9.67205 40.9747 9.59879 40.9014C9.52553 40.8282 9.48438 40.7288 9.48438 40.6252ZM19.25 40.5295L15.4395 36.7189L32.5313 19.6252L36.3418 23.4377L19.25 40.5295ZM42.9629 16.8166L38 21.7795L28.7207 12.5002L33.6836 7.53535C33.7199 7.49903 33.763 7.47022 33.8104 7.45056C33.8578 7.43091 33.9086 7.42079 33.96 7.42079C34.0113 7.42079 34.0621 7.43091 34.1096 7.45056C34.157 7.47022 34.2001 7.49903 34.2363 7.53535L42.9629 16.2639C42.9992 16.3001 43.028 16.3432 43.0477 16.3907C43.0673 16.4381 43.0775 16.4889 43.0775 16.5402C43.0775 16.5916 43.0673 16.6424 43.0477 16.6898C43.028 16.7372 42.9992 16.7803 42.9629 16.8166Z" fill="white"/>
</svg>
