<svg width="45" height="45" viewBox="0 0 45 45" fill="none" xmlns="http://www.w3.org/2000/svg">
<path d="M30.1022 2.93336C29.7613 2.78193 29.3742 2.77213 29.0261 2.9061C28.678 3.04007 28.3973 3.30685 28.2459 3.64773C28.0945 3.98862 28.0847 4.37569 28.2187 4.72381C28.3526 5.07192 28.6194 5.35256 28.9603 5.50398C28.9828 5.51523 29.2781 5.65304 29.7562 5.93429C32.6295 7.642 35.0355 10.0344 36.7593 12.898C39.6281 17.7046 39.42 22.8037 39.3806 23.7655L39.375 23.9062C39.3746 24.2791 39.5224 24.637 39.7859 24.9009C40.0493 25.1649 40.4069 25.3135 40.7798 25.3138C41.1528 25.3142 41.5106 25.1664 41.7746 24.9029C42.0386 24.6395 42.1871 24.2819 42.1875 23.909V23.9202L42.1903 23.8471C42.2502 22.5009 42.189 21.152 42.0075 19.8168C41.6981 17.488 40.9528 14.4337 39.1781 11.458C35.6625 5.57429 30.4284 3.07679 30.1022 2.93617M30.3553 10.1221C30.2036 10.0097 30.0309 9.92906 29.8474 9.88487C29.6639 9.84067 29.4734 9.83387 29.2872 9.86486C29.1011 9.89585 28.923 9.964 28.7637 10.0652C28.6045 10.1665 28.4672 10.2988 28.3601 10.4542C28.253 10.6096 28.1783 10.785 28.1405 10.9699C28.1026 11.1548 28.1024 11.3455 28.1397 11.5305C28.1771 11.7155 28.2513 11.8911 28.358 12.0468C28.4647 12.2025 28.6016 12.3351 28.7606 12.4368C30.0729 13.3123 31.1541 14.4919 31.9122 15.8754C32.6702 17.2588 33.0827 18.8049 33.1144 20.3821V20.3934C33.1144 20.7663 33.2625 21.124 33.5262 21.3877C33.79 21.6514 34.1476 21.7996 34.5206 21.7996C34.8936 21.7996 35.2512 21.6514 35.515 21.3877C35.7787 21.124 35.9269 20.7663 35.9269 20.3934V20.2162C35.9269 20.113 35.9212 19.978 35.91 19.8112C35.786 17.9828 35.2751 16.2016 34.4109 14.5855C33.738 13.3454 32.8625 12.2266 31.8206 11.2752C31.0162 10.5384 30.3469 10.1165 30.3553 10.1221ZM7.1381 30.1134C5.70325 27.5333 5.34009 24.4925 6.12695 21.6471C6.91382 18.8017 8.78766 16.3795 11.3443 14.9032C13.9009 13.4269 16.9353 13.0147 19.7931 13.7556C22.6509 14.4964 25.1029 16.3309 26.6203 18.8634L28.9265 22.8571L34.2872 26.758C34.4764 26.8959 34.6283 27.0788 34.729 27.2902C34.8296 27.5016 34.8759 27.7348 34.8636 27.9686C34.8514 28.2025 34.7809 28.4295 34.6586 28.6292C34.5363 28.8289 34.3661 28.9949 34.1634 29.1121L27.0478 33.2212L27.0562 33.2268L19.3556 37.6734V37.6621L12.24 41.7684C12.0372 41.8853 11.8084 41.9498 11.5743 41.956C11.3403 41.9622 11.1084 41.9098 10.8997 41.8036C10.6911 41.6975 10.5122 41.5409 10.3793 41.3481C10.2465 41.1553 10.1639 40.9324 10.139 40.6996L9.44435 34.1099L7.1381 30.1134ZM9.57373 28.7071L12.029 32.9624C12.1271 33.1325 12.1884 33.3213 12.209 33.5165L12.7097 38.2527L30.884 27.7593L27.0309 24.958C26.8728 24.8423 26.7406 24.6948 26.6428 24.5249L24.1847 20.2724C23.0442 18.3781 21.2057 17.0072 19.0647 16.4547C16.9238 15.9021 14.6515 16.212 12.7367 17.3177C10.8219 18.4235 9.41772 20.2367 8.82619 22.3672C8.23466 24.4977 8.50309 26.7753 9.57373 28.7099M20.3962 40.3255C21.13 41.2504 22.1718 41.8807 23.3316 42.1015C24.4913 42.3223 25.6918 42.1188 26.7141 41.5282C27.7364 40.9377 28.5123 39.9993 28.9003 38.8843C29.2884 37.7693 29.2628 36.552 28.8281 35.4543L20.3962 40.3255Z" fill="#285A9B"/>
</svg>
