<svg width="20" height="20" viewBox="0 0 20 20" fill="none" xmlns="http://www.w3.org/2000/svg">
<path d="M5.83326 11.8167V2.50002C5.83326 2.27901 5.74546 2.06705 5.58918 1.91077C5.4329 1.75449 5.22094 1.66669 4.99993 1.66669C4.77891 1.66669 4.56695 1.75449 4.41067 1.91077C4.25439 2.06705 4.1666 2.27901 4.1666 2.50002V11.8167C3.68397 11.9919 3.26698 12.3114 2.9723 12.7318C2.67761 13.1523 2.51953 13.6533 2.51953 14.1667C2.51953 14.6801 2.67761 15.1811 2.9723 15.6016C3.26698 16.022 3.68397 16.3415 4.1666 16.5167V17.5C4.1666 17.721 4.25439 17.933 4.41067 18.0893C4.56695 18.2456 4.77891 18.3334 4.99993 18.3334C5.22094 18.3334 5.4329 18.2456 5.58918 18.0893C5.74546 17.933 5.83326 17.721 5.83326 17.5V16.5167C6.31589 16.3415 6.73288 16.022 7.02756 15.6016C7.32224 15.1811 7.48033 14.6801 7.48033 14.1667C7.48033 13.6533 7.32224 13.1523 7.02756 12.7318C6.73288 12.3114 6.31589 11.9919 5.83326 11.8167ZM4.99993 15C4.83511 15 4.67399 14.9511 4.53695 14.8596C4.39991 14.768 4.2931 14.6379 4.23003 14.4856C4.16696 14.3333 4.15045 14.1658 4.18261 14.0041C4.21476 13.8425 4.29413 13.694 4.41067 13.5774C4.52722 13.4609 4.6757 13.3815 4.83735 13.3494C4.999 13.3172 5.16656 13.3337 5.31883 13.3968C5.4711 13.4599 5.60125 13.5667 5.69282 13.7037C5.78439 13.8408 5.83326 14.0019 5.83326 14.1667C5.83326 14.3877 5.74546 14.5997 5.58918 14.7559C5.4329 14.9122 5.22094 15 4.99993 15ZM17.4999 10.8334C17.4985 10.3176 17.3375 9.81485 17.0391 9.39413C16.7408 8.97341 16.3196 8.65528 15.8333 8.48335V2.50002C15.8333 2.27901 15.7455 2.06705 15.5892 1.91077C15.4329 1.75449 15.2209 1.66669 14.9999 1.66669C14.7789 1.66669 14.567 1.75449 14.4107 1.91077C14.2544 2.06705 14.1666 2.27901 14.1666 2.50002V8.48335C13.684 8.65852 13.267 8.97804 12.9723 9.39849C12.6776 9.81894 12.5195 10.3199 12.5195 10.8334C12.5195 11.3468 12.6776 11.8478 12.9723 12.2682C13.267 12.6887 13.684 13.0082 14.1666 13.1834V17.5C14.1666 17.721 14.2544 17.933 14.4107 18.0893C14.567 18.2456 14.7789 18.3334 14.9999 18.3334C15.2209 18.3334 15.4329 18.2456 15.5892 18.0893C15.7455 17.933 15.8333 17.721 15.8333 17.5V13.1834C16.3196 13.0114 16.7408 12.6933 17.0391 12.2726C17.3375 11.8519 17.4985 11.3491 17.4999 10.8334ZM14.9999 11.6667C14.8351 11.6667 14.674 11.6178 14.537 11.5262C14.3999 11.4347 14.2931 11.3045 14.23 11.1523C14.167 11 14.1505 10.8324 14.1826 10.6708C14.2148 10.5091 14.2941 10.3606 14.4107 10.2441C14.5272 10.1276 14.6757 10.0482 14.8374 10.016C14.999 9.98388 15.1666 10.0004 15.3188 10.0635C15.4711 10.1265 15.6013 10.2333 15.6928 10.3704C15.7844 10.5074 15.8333 10.6685 15.8333 10.8334C15.8333 11.0544 15.7455 11.2663 15.5892 11.4226C15.4329 11.5789 15.2209 11.6667 14.9999 11.6667ZM12.4999 4.16669C12.5012 3.70806 12.3763 3.25792 12.1389 2.86552C11.9015 2.47313 11.5607 2.1536 11.1539 1.94191C10.747 1.73022 10.2898 1.63453 9.83218 1.6653C9.37458 1.69608 8.93427 1.85214 8.55943 2.1164C8.18459 2.38066 7.88967 2.74294 7.70694 3.1636C7.52421 3.58425 7.46071 4.04706 7.5234 4.50139C7.58609 4.95571 7.77255 5.38403 8.06237 5.73948C8.35219 6.09493 8.7342 6.36381 9.16659 6.51669V17.5C9.16659 17.721 9.25439 17.933 9.41067 18.0893C9.56695 18.2456 9.77891 18.3334 9.99993 18.3334C10.2209 18.3334 10.4329 18.2456 10.5892 18.0893C10.7455 17.933 10.8333 17.721 10.8333 17.5V6.51669C11.3196 6.34476 11.7408 6.02663 12.0391 5.60591C12.3375 5.18519 12.4985 4.68247 12.4999 4.16669ZM9.99993 5.00002C9.83511 5.00002 9.67399 4.95115 9.53695 4.85958C9.39991 4.76801 9.2931 4.63786 9.23003 4.48559C9.16696 4.33332 9.15045 4.16576 9.18261 4.00411C9.21476 3.84246 9.29413 3.69398 9.41067 3.57743C9.52722 3.46089 9.6757 3.38152 9.83735 3.34937C9.999 3.31721 10.1666 3.33372 10.3188 3.39679C10.4711 3.45986 10.6013 3.56667 10.6928 3.70371C10.7844 3.84075 10.8333 4.00187 10.8333 4.16669C10.8333 4.3877 10.7455 4.59966 10.5892 4.75594C10.4329 4.91222 10.2209 5.00002 9.99993 5.00002Z" fill="white"/>
</svg>
