<svg width="24" height="24" viewBox="0 0 24 24" fill="none" xmlns="http://www.w3.org/2000/svg">
<path d="M12 19C15.866 19 19 15.866 19 12C19 8.13401 15.866 5 12 5C8.13401 5 5 8.13401 5 12C5 15.866 8.13401 19 12 19Z" stroke="#4C5BD4" stroke-width="2"/>
<path d="M5.96499 3.13623C5.28659 3.31792 4.66799 3.67502 4.17138 4.17163C3.67478 4.66823 3.31768 5.28683 3.13599 5.96523M18.035 3.13623C18.7134 3.31792 19.332 3.67502 19.8286 4.17163C20.3252 4.66823 20.6823 5.28683 20.864 5.96523M12 8.00023V11.7502C12 11.8882 12.112 12.0002 12.25 12.0002H15" stroke="#4C5BD4" stroke-width="2" stroke-linecap="round"/>
</svg>
