<svg width="61" height="61" viewBox="0 0 61 61" fill="none" xmlns="http://www.w3.org/2000/svg">
<path d="M60.6984 52.0175C60.5418 52.0848 60.5825 52.2509 60.5418 52.3699C60.0077 53.8937 58.7407 54.8162 57.1276 54.8272C55.7619 54.8366 54.3962 54.8272 52.9961 54.8272C53.3454 55.9724 53.248 57.2074 52.7236 58.2837C52.4038 58.9447 51.9327 59.5212 51.3485 59.9662C50.7643 60.4112 50.0834 60.7122 49.3611 60.8449C48.6388 60.9776 47.8955 60.9383 47.1912 60.73C46.487 60.5217 45.8418 60.1504 45.3078 59.6462C43.7746 58.1991 42.3071 56.6815 40.8255 55.1796C40.717 55.0599 40.5834 54.9657 40.4342 54.9037C40.285 54.8417 40.124 54.8134 39.9626 54.8209C35.9783 54.8334 31.9945 54.8334 28.0113 54.8209C26.9886 54.8209 26.3606 54.0128 26.7396 53.1874C26.9886 52.6424 27.4537 52.4717 28.0332 52.4748C31.1655 52.4842 34.2837 52.4748 37.4082 52.4748H38.0018C37.9548 52.2524 37.795 52.1616 37.6885 52.0504C36.1725 50.5281 34.6471 49.0152 33.1467 47.4835C32.9024 47.2345 32.7317 47.2031 32.4075 47.3645C22.8038 52.1537 11.5166 47.0747 8.74766 36.7319C6.24182 27.3459 12.6286 17.5826 22.2338 16.1339C31.5367 14.7243 39.9861 20.9733 41.3408 30.2934C41.8341 33.7076 41.2562 36.9778 39.6948 40.0568C39.5084 40.4217 39.5382 40.6081 39.8263 40.8916C43.5934 44.6357 47.3522 48.3908 51.1026 52.1569C51.1974 52.2638 51.3146 52.3484 51.4459 52.4048C51.5772 52.4611 51.7194 52.4877 51.8622 52.4826C53.5849 52.467 55.2983 52.4826 57.0179 52.4732C57.9373 52.4732 58.3774 52.03 58.3774 51.1029C58.3774 38.4285 58.3821 25.7537 58.3915 13.0783C58.3915 12.5803 58.1518 12.6288 57.8276 12.6288C49.7234 12.6288 41.6185 12.6288 33.5132 12.6288C23.5744 12.6288 13.6346 12.6252 3.6937 12.6179C3.19566 12.6179 3.05627 12.7103 3.05627 13.2443C3.07507 25.7829 3.07976 38.321 3.07037 50.8585C3.07037 52.1365 3.41649 52.4779 4.71169 52.4779C8.81396 52.4779 12.9152 52.4779 17.0154 52.4779C17.4648 52.4779 17.8752 52.5437 18.1743 52.9102C18.3161 53.0737 18.4074 53.2748 18.4371 53.4891C18.4669 53.7034 18.4338 53.9218 18.3419 54.1177C18.2645 54.3206 18.1281 54.4956 17.9503 54.6201C17.7724 54.7446 17.5613 54.8129 17.3443 54.8162C16.8572 54.8428 16.3685 54.8256 15.8799 54.8256H4.48617C2.15574 54.8256 0.699219 53.3612 0.699219 51.0167C0.699219 35.7457 0.699219 20.4737 0.699219 5.2006C0.699219 2.69476 1.32568 1.77856 3.62792 0.921875H57.7697C58.9145 1.03151 59.7493 1.60472 60.3429 2.58199C60.5872 2.98136 60.5747 3.43084 60.6984 3.85214V52.0175Z" fill="#4A4A4A"/>
<path d="M60.699 3.85369C60.3858 2.78087 59.8611 1.86468 58.8196 1.34785C58.4845 1.17714 58.118 1.06751 57.7656 0.929688C58.6442 0.929688 59.5228 0.942217 60.4015 0.929688C60.6552 0.929688 60.7147 0.978235 60.7022 1.23039C60.6881 2.0949 60.699 2.97351 60.699 3.85369Z" fill="white"/>
<path d="M48.7474 25.7711C47.3379 25.7711 45.9393 25.7711 44.536 25.7711C43.7029 25.7711 43.15 25.3012 43.1484 24.6027C43.1469 23.9042 43.7076 23.4313 44.536 23.4297C47.3624 23.4297 50.1893 23.4297 53.0167 23.4297C53.828 23.4297 54.348 23.8792 54.3668 24.5698C54.3856 25.2605 53.8499 25.7664 53.0167 25.7695C51.5947 25.7758 50.1711 25.7711 48.7474 25.7711Z" fill="#4A4A4A"/>
<path d="M51.3683 17.7997C51.9337 17.7997 52.4975 17.7997 53.0629 17.7997C53.8459 17.8106 54.3753 18.293 54.3675 18.9837C54.3596 19.6743 53.8491 20.1317 53.0942 20.1395C51.9258 20.1489 50.7575 20.1489 49.5891 20.1395C48.8468 20.1395 48.3174 19.6462 48.3049 18.9868C48.2924 18.3275 48.8437 17.8106 49.6158 17.7997C50.1999 17.7934 50.7841 17.7997 51.3683 17.7997Z" fill="#4A4A4A"/>
<path d="M51.7011 31.3938C51.2312 31.3938 50.7614 31.4078 50.2916 31.3938C50.1348 31.3995 49.9786 31.3736 49.8321 31.3176C49.6856 31.2616 49.5519 31.1766 49.439 31.0678C49.3261 30.9589 49.2363 30.8284 49.175 30.6841C49.1136 30.5398 49.082 30.3846 49.082 30.2278C49.082 30.0709 49.1136 29.9157 49.175 29.7714C49.2363 29.6271 49.3261 29.4966 49.439 29.3877C49.5519 29.2789 49.6856 29.1939 49.8321 29.1379C49.9786 29.0819 50.1348 29.056 50.2916 29.0618C51.2448 29.0419 52.1991 29.0419 53.1545 29.0618C53.3108 29.0569 53.4664 29.0836 53.6121 29.1404C53.7578 29.1971 53.8905 29.2826 54.0024 29.3918C54.1143 29.5011 54.2029 29.6317 54.2631 29.7761C54.3233 29.9204 54.3537 30.0753 54.3526 30.2317C54.3526 30.8832 53.8545 31.3624 53.1482 31.3969H53.0307C52.5828 31.3969 52.1349 31.3969 51.687 31.3969L51.7011 31.3938Z" fill="#4A4A4A"/>
<path d="M43.1298 20.1441C42.721 20.1441 42.3107 20.1614 41.9035 20.1441C41.5949 20.1456 41.2983 20.0244 41.0791 19.8072C40.8598 19.59 40.7358 19.2946 40.7344 18.986C40.7329 18.6774 40.8541 18.3808 41.0713 18.1615C41.2885 17.9423 41.5839 17.8183 41.8926 17.8168C42.7085 17.7902 43.5276 17.7902 44.3451 17.8168C44.6467 17.8264 44.9328 17.9525 45.1432 18.1687C45.3537 18.3849 45.4721 18.6743 45.4735 18.976C45.4749 19.2777 45.3592 19.5682 45.1508 19.7863C44.9424 20.0045 44.6576 20.1333 44.3561 20.1457C43.9552 20.1614 43.5386 20.1441 43.1298 20.1441Z" fill="#4A4A4A"/>
<path d="M23.6835 53.6367C23.6882 53.7921 23.6613 53.9469 23.6046 54.0917C23.5479 54.2365 23.4624 54.3683 23.3534 54.4792C23.2444 54.5901 23.1141 54.6778 22.9703 54.737C22.8265 54.7963 22.6722 54.8258 22.5167 54.8238C22.3597 54.8279 22.2034 54.8003 22.0572 54.7427C21.911 54.685 21.778 54.5986 21.666 54.4884C21.554 54.3782 21.4653 54.2466 21.4052 54.1014C21.3452 53.9562 21.315 53.8004 21.3165 53.6433C21.3179 53.4862 21.351 53.331 21.4138 53.187C21.4766 53.0429 21.5677 52.913 21.6818 52.805C21.7958 52.6969 21.9305 52.6129 22.0777 52.5581C22.2249 52.5032 22.3817 52.4785 22.5386 52.4855C22.8429 52.4872 23.134 52.6092 23.3486 52.8249C23.5631 53.0406 23.6835 53.3324 23.6835 53.6367Z" fill="#4A4A4A"/>
<path d="M30.6762 10.3055C21.674 10.3055 12.6723 10.3055 3.67109 10.3055C3.17775 10.3055 3.018 10.2193 3.0321 9.67902C3.07438 8.02047 3.04619 6.36035 3.04776 4.70023C3.04776 3.68537 3.46279 3.25781 4.45729 3.25781H56.9421C57.9382 3.25781 58.3516 3.68381 58.3516 4.69397C58.3516 6.37289 58.3344 8.05179 58.3657 9.7307C58.3736 10.1912 58.2498 10.2992 57.7956 10.2992C48.7558 10.2898 39.716 10.2919 30.6762 10.3055Z" fill="white"/>
<path d="M24.8145 46.865C21.9869 46.8595 19.2245 46.0155 16.8766 44.4399C14.5287 42.8643 12.7008 40.6278 11.624 38.0132C10.5473 35.3987 10.27 32.5236 10.8273 29.7515C11.3847 26.9794 12.7515 24.4348 14.7551 22.4396C16.7586 20.4443 19.3089 19.0881 22.0833 18.5423C24.8577 17.9965 27.7316 18.2857 30.3417 19.3734C32.9517 20.461 35.1805 22.2982 36.7464 24.6527C38.3122 27.0071 39.1447 29.773 39.1385 32.6006C39.1252 36.39 37.6099 40.0195 34.9248 42.6934C32.2397 45.3674 28.6039 46.8676 24.8145 46.865Z" fill="white"/>
<path d="M50.8609 56.2698C50.8046 57.2095 50.3723 57.969 49.4373 58.3747C48.5023 58.7803 47.5893 58.6143 46.8469 57.9048C45.7224 56.8211 44.6324 55.7028 43.5267 54.5987C42.0357 53.1077 40.551 51.6105 39.0491 50.1305C38.7938 49.8783 38.7358 49.7358 39.0271 49.4508C39.9668 48.5612 40.8627 47.6419 41.7632 46.7194C41.9699 46.508 42.0889 46.4766 42.316 46.7053C44.9263 49.3364 47.5459 51.9618 50.175 54.5815C50.6168 55.0321 50.8632 55.6387 50.8609 56.2698Z" fill="white"/>
<path d="M40.3496 44.7918C40.2587 44.8889 40.182 44.9735 40.1006 45.0549C39.1781 45.9789 38.2478 46.8967 37.3347 47.8301C37.1327 48.0369 37.0074 48.0917 36.7819 47.8536C36.2196 47.2585 35.6323 46.6868 35.0466 46.1152C34.8712 45.9445 34.8508 45.8458 35.0685 45.6782C36.1488 44.8421 37.1196 43.8734 37.9581 42.795C38.0818 42.6384 38.1601 42.5365 38.3496 42.7339C38.9604 43.3603 39.5869 43.9758 40.2055 44.5976C40.2583 44.6586 40.3065 44.7235 40.3496 44.7918Z" fill="white"/>
<path d="M40.5411 7.95658H28.3032C28.1278 7.96362 27.9521 7.96049 27.777 7.94718C27.4868 7.92106 27.217 7.78733 27.0204 7.57229C26.8238 7.35724 26.7148 7.07644 26.7148 6.7851C26.7148 6.49376 26.8238 6.21296 27.0204 5.99791C27.217 5.78287 27.4868 5.64914 27.777 5.62302C27.9527 5.61047 28.1288 5.60733 28.3048 5.61362H52.7853C52.9802 5.60442 53.1755 5.61018 53.3695 5.63085C53.6475 5.6706 53.9018 5.80929 54.0858 6.02146C54.2698 6.23363 54.3711 6.50504 54.3711 6.78588C54.3711 7.06672 54.2698 7.33814 54.0858 7.55031C53.9018 7.76248 53.6475 7.90117 53.3695 7.94092C53.1754 7.96026 52.9801 7.96549 52.7853 7.95658H40.5411Z" fill="#4A4A4A"/>
<path d="M8.21777 5.60938C8.45042 5.61268 8.6768 5.68528 8.86798 5.8179C9.05917 5.95052 9.20646 6.13713 9.29104 6.35389C9.37562 6.57065 9.39365 6.80771 9.34282 7.03476C9.29199 7.26182 9.1746 7.46856 9.00567 7.62856C8.83674 7.78857 8.62394 7.89457 8.39446 7.93301C8.16499 7.97145 7.92925 7.9406 7.7174 7.84438C7.50555 7.74817 7.3272 7.59097 7.20514 7.39288C7.08308 7.19479 7.02287 6.9648 7.03219 6.73231C7.04787 6.42873 7.17972 6.1428 7.40042 5.93376C7.62113 5.72472 7.91378 5.60857 8.21777 5.60938Z" fill="#4A4A4A"/>
<path d="M13.3789 5.60943C13.6115 5.6137 13.8376 5.68724 14.0282 5.82065C14.2188 5.95405 14.3654 6.14127 14.449 6.35836C14.5327 6.57546 14.5498 6.81257 14.498 7.03941C14.4463 7.26624 14.328 7.47249 14.1585 7.6318C13.9889 7.79111 13.7757 7.89623 13.546 7.93375C13.3164 7.97126 13.0808 7.93946 12.8694 7.8424C12.6579 7.74535 12.4802 7.58744 12.359 7.38888C12.2377 7.19031 12.1784 6.9601 12.1886 6.72766C12.2048 6.42382 12.3375 6.13794 12.5593 5.92961C12.781 5.72128 13.0747 5.60658 13.3789 5.60943Z" fill="#4A4A4A"/>
<path d="M19.6763 6.80853C19.6717 7.04071 19.5981 7.26625 19.4647 7.45638C19.3314 7.64651 19.1444 7.79259 18.9277 7.87597C18.711 7.95935 18.4743 7.97625 18.2479 7.92452C18.0215 7.87278 17.8157 7.75476 17.6567 7.58551C17.4977 7.41626 17.3927 7.20347 17.3552 6.9743C17.3177 6.74512 17.3493 6.50997 17.446 6.29885C17.5428 6.08773 17.7002 5.91024 17.8983 5.78901C18.0964 5.66779 18.3261 5.60834 18.5581 5.61825C18.8618 5.63476 19.1474 5.76766 19.3557 5.98932C19.5639 6.21099 19.6788 6.50439 19.6763 6.80853Z" fill="#4A4A4A"/>
<path d="M24.8168 44.5197C22.453 44.5148 20.1437 43.8089 18.181 42.4914C16.2183 41.174 14.6904 39.304 13.7905 37.1181C12.8906 34.9322 12.6592 32.5286 13.1254 30.2112C13.5917 27.8937 14.7347 25.7666 16.4099 24.0988C18.0852 22.4311 20.2173 21.2975 22.5368 20.8416C24.8563 20.3857 27.2589 20.6278 29.4408 21.5374C31.6226 22.4471 33.4857 23.9833 34.7944 25.9518C36.1032 27.9204 36.7987 30.2328 36.7932 32.5966C36.782 35.7646 35.5149 38.7989 33.2698 41.034C31.0247 43.2691 27.9848 44.5227 24.8168 44.5197Z" fill="#4A4A4A"/>
<path d="M24.8193 42.1773C23.5477 42.1876 22.2868 41.9455 21.1095 41.4648C19.9323 40.9842 18.8621 40.2747 17.9611 39.3774C17.0601 38.4801 16.3462 37.4129 15.8607 36.2377C15.3752 35.0624 15.1278 33.8025 15.1329 32.5309C15.138 31.2593 15.3954 30.0014 15.8903 28.83C16.3851 27.6587 17.1075 26.5972 18.0157 25.7072C18.9238 24.8171 19.9996 24.1162 21.1807 23.645C22.3618 23.1738 23.6246 22.9417 24.896 22.9622C30.1708 22.9778 34.4636 27.3129 34.4495 32.6097C34.4359 35.1538 33.4149 37.5889 31.61 39.382C29.8052 41.1751 27.3634 42.1802 24.8193 42.1773Z" fill="white"/>
<path d="M26.0141 35.2191C26.0141 35.9208 26.0141 36.6287 26.0141 37.324C26.0141 38.1306 25.5552 38.6474 24.8598 38.6568C24.1644 38.6662 23.6789 38.1478 23.6742 37.3554C23.6659 35.9124 23.6659 34.47 23.6742 33.0281C23.6742 32.2779 24.1597 31.7595 24.8269 31.7501C25.4941 31.7407 26.0031 32.2701 26.0125 33.0563C26.0203 33.7767 26.0141 34.4971 26.0141 35.2191Z" fill="#4A4A4A"/>
<path d="M26.0127 27.6654C26.0073 27.9753 25.879 28.2703 25.6561 28.4856C25.4331 28.7009 25.1338 28.8188 24.8239 28.8134C24.5141 28.808 24.2191 28.6798 24.0038 28.4568C23.7885 28.2339 23.6706 27.9346 23.676 27.6247C23.6786 27.4713 23.7115 27.3199 23.7727 27.1792C23.8339 27.0384 23.9222 26.9111 24.0326 26.8045C24.1429 26.6979 24.2732 26.6141 24.416 26.5579C24.5588 26.5016 24.7112 26.4741 24.8647 26.4767C25.0181 26.4794 25.1695 26.5123 25.3102 26.5735C25.451 26.6347 25.5783 26.723 25.6849 26.8333C25.7915 26.9437 25.8753 27.074 25.9315 27.2168C25.9878 27.3596 26.0153 27.512 26.0127 27.6654Z" fill="#4A4A4A"/>
</svg>
