<svg width="24" height="25" viewBox="0 0 24 25" fill="none" xmlns="http://www.w3.org/2000/svg">
<path d="M11.9996 21.7673C17.847 21.7673 22.5878 17.3225 22.5878 11.8395C22.5878 6.35645 17.847 1.91162 11.9996 1.91162C6.15226 1.91162 1.41138 6.35645 1.41138 11.8395C1.41138 14.3356 2.39476 16.619 4.01873 18.3635C3.89035 19.8044 3.46682 21.3844 2.99829 22.57C2.89373 22.8338 3.09623 23.1288 3.35961 23.0834C6.34549 22.5587 8.12035 21.7531 8.89196 21.3333C9.90567 21.623 10.9505 21.7689 11.9996 21.7673Z" fill="white"/>
<path d="M7.44589 12.311C7.44589 12.6621 7.32929 12.9372 7.09529 13.1369C6.85739 13.3343 6.5287 13.4331 6.10845 13.4331H3.9978V12.6124H5.74611C5.95115 12.6124 6.10062 12.5793 6.19375 12.5137C6.28688 12.4459 6.33383 12.3411 6.33383 12.198C6.33383 12.0661 6.28923 11.9628 6.20001 11.8882C6.10688 11.8166 5.95584 11.7812 5.74689 11.7812L4.32023 11.7865V10.9666H5.72028C5.93158 10.9666 6.08341 10.935 6.17653 10.8709C6.26575 10.8091 6.31036 10.7066 6.31036 10.5635C6.31036 10.4278 6.26575 10.3268 6.17653 10.259C6.13114 10.2221 6.07088 10.1957 5.99654 10.1791C5.91828 10.1648 5.82672 10.1573 5.72028 10.1573H3.9978V9.3374H6.02002C6.488 9.3374 6.84252 9.42783 7.08356 9.60869C7.32146 9.7918 7.44042 10.0759 7.44042 10.4617C7.44042 10.6554 7.39581 10.8272 7.30659 10.9772C7.21347 11.1271 7.09295 11.259 6.94425 11.372C7.10782 11.4692 7.22677 11.5853 7.30112 11.7202C7.39737 11.8784 7.44589 12.0751 7.44589 12.311Z" fill="#3A35AA"/>
<path d="M11.664 12.1759C11.664 12.6054 11.502 12.931 11.1788 13.1525C10.8556 13.3741 10.39 13.4841 9.7811 13.4841C9.06268 13.4841 8.5313 13.3175 8.18696 12.9845C7.84497 12.6536 7.67358 12.1344 7.67358 11.4261C7.67358 10.7109 7.85671 10.1834 8.22374 9.84358C8.5853 9.50523 9.14877 9.33643 9.91492 9.33643H11.4433L11.4402 10.1563H9.89301C9.50876 10.1563 9.23016 10.2279 9.0572 10.3703C8.97581 10.4381 8.91399 10.5241 8.87173 10.628C8.82399 10.7381 8.80051 10.8639 8.80051 11.0063H10.181C10.6787 11.0063 11.0505 11.102 11.2962 11.2927C11.5411 11.4856 11.664 11.7795 11.664 12.1759ZM10.5598 12.2196C10.5598 12.0877 10.5246 11.9882 10.4541 11.9204C10.3837 11.8586 10.2765 11.827 10.1317 11.827H8.80599C8.80599 12.1065 8.88738 12.3183 9.05094 12.4607C9.21059 12.6069 9.4665 12.68 9.81788 12.68C10.0863 12.68 10.2757 12.6423 10.3884 12.5677C10.5034 12.4931 10.5598 12.3771 10.5598 12.2196Z" fill="#3A35AA"/>
<path d="M15.5439 12.1927C15.5439 12.5928 15.4132 12.9003 15.1534 13.1143C14.8912 13.3268 14.5211 13.4323 14.0437 13.4323H11.8047V12.6124H13.8496C14.0507 12.6124 14.1932 12.5793 14.2745 12.5137C14.3528 12.4496 14.3911 12.3426 14.3911 12.1927C14.3911 12.0389 14.352 11.9282 14.2745 11.8611C14.1932 11.7971 14.0507 11.7654 13.8496 11.7654H11.8047V9.3374H15.3357L15.3326 10.1573H12.851V10.95H14.2338C14.6353 10.95 14.9562 11.057 15.198 11.2711C15.3099 11.3826 15.3968 11.5137 15.4578 11.6637C15.5149 11.8166 15.5439 11.9937 15.5439 12.1927Z" fill="#3A35AA"/>
<path fill-rule="evenodd" clip-rule="evenodd" d="M16.05 14.729L17.6129 13.3726L19.3142 13.8481C19.3142 13.8481 20.4365 14.301 19.8096 15.059C19.5271 15.3273 19.2594 15.5813 18.2718 15.3251C17.9917 15.2354 16.05 14.729 16.05 14.729Z" fill="#3A35AA"/>
<path fill-rule="evenodd" clip-rule="evenodd" d="M7.00036 13.7698C7.01679 13.806 7.03088 13.8429 7.04809 13.8791C7.07861 13.9431 7.11227 14.0049 7.14905 14.066C7.24139 14.2182 7.3533 14.3591 7.48165 14.485C7.64286 14.6425 7.8299 14.7751 8.03259 14.8783C8.2885 15.0094 8.5671 15.0946 8.85118 15.1428C9.22604 15.2069 9.61029 15.2091 9.98907 15.1745C10.5009 15.1278 11.0057 15.0155 11.4963 14.87C12.9089 14.4511 14.2135 13.8339 15.3185 12.8784C15.3349 12.864 15.3514 12.8497 15.3686 12.8354C16.1332 12.1655 17.0731 11.225 16.9572 10.1376C16.8837 9.45037 16.0174 9.06604 15.4062 8.92588C15.1456 8.86635 15.1949 8.49258 15.4625 8.49861C16.6966 8.52724 17.9574 8.84902 18.3792 9.86784C18.3816 9.87387 18.3839 9.8799 18.3863 9.88668C18.4919 10.2145 18.5146 10.5694 18.4856 10.9093C18.4309 11.5589 18.171 12.1775 17.7985 12.7178C17.1764 13.6214 16.2686 14.3184 15.3177 14.8798C14.5156 15.3538 13.6876 15.7223 12.7923 15.9906C12.1615 16.1797 11.519 16.335 10.864 16.4239C10.1307 16.5234 9.36691 16.5452 8.64379 16.3711C7.91599 16.1963 7.27191 15.8014 6.85871 15.1903C6.60671 14.818 6.44863 14.3945 6.35394 13.9612C6.32576 13.8339 6.36098 13.6613 6.4768 13.5784C6.62471 13.4729 6.8634 13.5671 6.95966 13.696C6.9761 13.7208 6.9894 13.745 7.00036 13.7698Z" fill="#3A35AA"/>
<path fill-rule="evenodd" clip-rule="evenodd" d="M7.46973 13.6979C7.46973 13.6979 9.63672 15.5856 13.3572 13.563C12.9424 14.0347 8.31023 16.1922 7.46973 13.6979Z" fill="#3A35AA"/>
</svg>
