<svg width="57" height="60" viewBox="0 0 57 60" fill="none" xmlns="http://www.w3.org/2000/svg">
<path d="M10.9035 8.81189C10.9035 7.4267 10.8933 6.2108 10.9035 4.99661C10.9275 2.69821 12.6632 0.941912 14.9565 0.936782C22.2485 0.924811 29.5404 0.936779 36.8341 0.923098C37.0347 0.913946 37.2343 0.956289 37.4139 1.04609C37.5935 1.13589 37.7471 1.27017 37.8602 1.43613C38.6126 2.49299 39.6114 2.74096 40.8871 2.70334C44.1244 2.60928 47.3702 2.74609 50.6074 2.64861C53.3556 2.56653 55.0213 4.62722 54.9546 6.96325C54.8503 10.6075 54.9323 14.2552 54.9187 17.908C54.9187 18.3185 54.9802 18.6588 55.3308 18.9033C56.4715 19.702 56.7092 20.7845 56.6989 22.1526C56.6442 34.2637 56.6681 46.3765 56.6664 58.4893C56.6664 59.6863 56.5792 59.777 55.3496 59.777H15.1207C12.9779 59.777 11.3482 58.4773 10.9617 56.4525C10.9045 56.0734 10.8834 55.6898 10.8984 55.3067C10.8984 46.031 10.903 36.7547 10.9121 27.4779C10.9121 26.8828 10.7496 26.7545 10.1819 26.7631C7.83727 26.7955 5.49098 26.7802 3.1447 26.775C1.62098 26.775 0.707769 25.8823 0.706059 24.362C0.696939 19.6695 0.696939 14.978 0.706059 10.2877C0.706059 8.82216 1.57822 7.92263 3.0438 7.89356C4.92493 7.86278 6.79752 7.88159 8.67352 7.89356C9.08862 7.88336 9.5013 7.95975 9.88525 8.11786C10.2692 8.27597 10.616 8.51234 10.9035 8.81189Z" fill="#333333"/>
<path d="M34.872 58.473H15.4296C13.2577 58.473 12.2009 57.4247 12.2009 55.2717C12.2009 45.9971 12.1957 36.722 12.1855 27.4463C12.1855 26.8717 12.3326 26.752 12.8832 26.7622C15.2278 26.7947 17.5741 26.7793 19.9187 26.7742C21.4885 26.7742 22.3915 25.8884 22.3949 24.3321C22.4029 21.0909 22.4029 17.8496 22.3949 14.6084C22.3949 13.0847 21.4817 12.1869 19.9648 12.1834C17.9127 12.1834 15.8725 12.1715 13.8255 12.1937C13.6621 12.2017 13.4995 12.1679 13.3528 12.0955C13.2062 12.0231 13.0804 11.9144 12.9875 11.7798C12.6913 11.4357 12.4674 11.0355 12.329 10.603C12.1907 10.1706 12.1407 9.7147 12.1821 9.26254C12.2556 7.89444 12.1957 6.52634 12.2009 5.17022C12.2094 3.39169 13.3313 2.24078 15.1081 2.23736C22.2085 2.2271 29.3021 2.23736 36.4077 2.2271C36.5432 2.22251 36.6782 2.24752 36.8031 2.30038C36.928 2.35325 37.0399 2.4327 37.131 2.53321C43.096 8.50724 49.066 14.4767 55.0412 20.4416C55.1469 20.5426 55.2292 20.6655 55.2824 20.8017C55.3355 20.9379 55.3583 21.0841 55.349 21.23C55.349 33.4471 55.3524 45.6642 55.3592 57.8813C55.3592 58.444 55.1455 58.4833 54.694 58.4833C48.0884 58.4696 41.481 58.4662 34.872 58.473Z" fill="white"/>
<path d="M11.5183 25.4801C8.77068 25.4801 6.02251 25.4801 3.27377 25.4801C2.33149 25.4801 2.03906 25.1996 2.03906 24.283C2.03906 19.6588 2.03906 15.0347 2.03906 10.4105C2.03906 9.49214 2.30242 9.2322 3.21563 9.23049C5.00442 9.23049 6.79491 9.24588 8.5837 9.23049C8.90269 9.20912 9.22146 9.27524 9.50565 9.4217C9.78983 9.56817 10.0286 9.78942 10.1963 10.0616C10.8376 11.0124 11.5337 11.9308 12.1596 12.8936C12.464 13.3639 12.8231 13.5195 13.372 13.5109C15.4806 13.4836 17.5892 13.499 19.6995 13.5007C20.8128 13.5007 21.0676 13.7486 21.0676 14.8329C21.0676 17.943 21.0676 21.0537 21.0676 24.165C21.0676 25.2321 20.806 25.4955 19.7611 25.4955L11.5183 25.4801Z" fill="white"/>
<path d="M53.6137 17.0121L40.5859 3.98438H50.7749C52.6372 3.98438 53.6376 4.99334 53.6376 6.87619C53.6376 10.2223 53.6376 13.5696 53.6376 16.918C53.6347 16.9505 53.6266 16.9822 53.6137 17.0121Z" fill="white"/>
<path d="M46.4878 47.4814C46.4878 45.6003 45.4498 44.5469 43.5806 44.5469H33.7919C30.4657 44.5469 27.1395 44.5469 23.8133 44.5469C22.264 44.5469 21.1507 45.5524 21.0977 47.0864C21.0412 48.6837 21.0395 50.286 21.0977 51.8747C21.1541 53.3728 22.2708 54.3972 23.7706 54.3989C30.4435 54.408 37.1164 54.408 43.7893 54.3989C45.3677 54.3989 46.4708 53.2753 46.4844 51.6918C46.4964 50.2963 46.4896 48.8855 46.4878 47.4814ZM45.1882 51.555C45.1882 52.5964 44.6597 53.1112 43.6029 53.1129C40.3422 53.1129 37.081 53.1129 33.8193 53.1129H24.0989C22.8437 53.1129 22.4042 52.6768 22.4008 51.425C22.4008 50.0569 22.4008 48.6888 22.4008 47.3327C22.4008 46.3459 22.9138 45.8432 23.9057 45.8432C30.4908 45.8432 37.077 45.8432 43.6644 45.8432C44.67 45.8432 45.1796 46.3733 45.1847 47.3976C45.1961 48.784 45.1973 50.1698 45.1882 51.555Z" fill="#333333"/>
<path d="M33.8139 37.3672C36.6459 37.3672 39.479 37.3672 42.3133 37.3672C42.8006 37.3672 43.2726 37.4202 43.2572 38.029C43.2418 38.6378 42.7716 38.6771 42.2859 38.6754C36.6185 38.6754 30.9523 38.6754 25.2873 38.6754C25.1812 38.6754 25.0735 38.6754 24.9675 38.6754C24.5741 38.6481 24.3193 38.4514 24.3125 38.041C24.3125 37.5981 24.5622 37.3809 24.9965 37.3792C26.1936 37.3792 27.3822 37.3792 28.5758 37.3792L33.8139 37.3672Z" fill="#333333"/>
<path d="M33.748 40.7925H38.5363C38.9895 40.7925 39.4444 40.8318 39.4598 41.4133C39.4786 42.0221 39.0323 42.1161 38.5397 42.1144C35.3635 42.1144 32.1878 42.1144 29.0126 42.1144C28.5116 42.1144 28.0687 41.9981 28.0823 41.415C28.096 40.8575 28.5458 40.7874 29.0092 40.7891C30.5945 40.7959 32.1712 40.7925 33.748 40.7925Z" fill="#333333"/>
<path d="M6.42617 12.33C5.59676 12.33 4.76735 12.3197 3.93965 12.33C3.48818 12.33 3.15299 12.159 3.14102 11.7075C3.12734 11.215 3.46766 11.0234 3.9482 11.0234C5.62754 11.0337 7.30689 11.0234 8.98623 11.0234C9.42573 11.0234 9.76091 11.1602 9.77459 11.6493C9.79169 12.1778 9.44967 12.3334 8.97767 12.3231C8.12774 12.3231 7.27781 12.33 6.42617 12.33Z" fill="#333333"/>
<path d="M47.9127 6.57387C46.9533 6.57387 45.9939 6.57387 45.0363 6.57387C44.5779 6.57387 44.1966 6.461 44.1915 5.936C44.1863 5.41099 44.5455 5.26562 45.0123 5.26562C46.9721 5.26562 48.9325 5.26562 50.8934 5.26562C51.3654 5.26562 51.716 5.43664 51.7092 5.94967C51.7092 6.42338 51.3671 6.58071 50.9174 6.57729C49.917 6.56874 48.9148 6.57387 47.9127 6.57387Z" fill="#333333"/>
<path d="M49.2997 7.88661C49.852 7.88661 50.4044 7.87806 50.9585 7.88661C51.3929 7.89687 51.7263 8.08328 51.7126 8.57066C51.699 9.05805 51.3706 9.2188 50.9277 9.22051C49.8207 9.22051 48.7142 9.22051 47.6084 9.22051C47.174 9.22051 46.8422 9.04949 46.8285 8.57237C46.8149 8.09524 47.1415 7.90542 47.5759 7.88832C48.1505 7.87806 48.7251 7.88661 49.2997 7.88661Z" fill="#333333"/>
<path d="M50.2861 11.6825C50.0108 11.6825 49.7338 11.6962 49.4584 11.6825C49.3781 11.6835 49.2985 11.6677 49.2246 11.6361C49.1508 11.6045 49.0844 11.5578 49.0296 11.499C48.9749 11.4403 48.933 11.3707 48.9067 11.2948C48.8804 11.2189 48.8703 11.1383 48.877 11.0583C48.877 10.6855 49.0737 10.4307 49.4396 10.4102C50.0091 10.3737 50.5803 10.3737 51.1497 10.4102C51.2306 10.4134 51.3098 10.4333 51.3826 10.4686C51.4554 10.5039 51.52 10.5539 51.5725 10.6154C51.6251 10.6769 51.6643 10.7486 51.6878 10.826C51.7112 10.9034 51.7185 10.9848 51.709 11.0651C51.7117 11.1455 51.6982 11.2256 51.6691 11.3006C51.64 11.3755 51.5959 11.4438 51.5396 11.5012C51.4833 11.5586 51.4159 11.604 51.3416 11.6346C51.2672 11.6651 51.1874 11.6803 51.107 11.6791C50.8385 11.6962 50.5615 11.6825 50.2861 11.6825Z" fill="#333333"/>
</svg>
