<svg width="24" height="25" viewBox="0 0 24 25" fill="none" xmlns="http://www.w3.org/2000/svg">
<rect y="0.450195" width="24" height="24" rx="12" fill="white" fill-opacity="0.39"/>
<path d="M18.6466 16.6699C18.6466 16.9099 18.5933 17.1565 18.4799 17.3965C18.3666 17.6365 18.2199 17.8632 18.0266 18.0765C17.6999 18.4365 17.3399 18.6965 16.9333 18.8632C16.5333 19.0299 16.0999 19.1165 15.6333 19.1165C14.9533 19.1165 14.2266 18.9565 13.4599 18.6299C12.6933 18.3032 11.9266 17.8632 11.1666 17.3099C10.3999 16.7499 9.67325 16.1299 8.97992 15.4432C8.29325 14.7499 7.67325 14.0232 7.11992 13.2632C6.57325 12.5032 6.13325 11.7432 5.81325 10.9899C5.49325 10.2299 5.33325 9.5032 5.33325 8.80987C5.33325 8.35654 5.41325 7.9232 5.57325 7.5232C5.73325 7.11654 5.98659 6.7432 6.33992 6.40987C6.76659 5.98987 7.23325 5.7832 7.72659 5.7832C7.91325 5.7832 8.09992 5.8232 8.26659 5.9032C8.43992 5.9832 8.59325 6.1032 8.71325 6.27654L10.2599 8.45654C10.3799 8.6232 10.4666 8.77654 10.5266 8.9232C10.5866 9.0632 10.6199 9.2032 10.6199 9.32987C10.6199 9.48987 10.5733 9.64987 10.4799 9.8032C10.3933 9.95654 10.2666 10.1165 10.1066 10.2765L9.59992 10.8032C9.52659 10.8765 9.49325 10.9632 9.49325 11.0699C9.49325 11.1232 9.49992 11.1699 9.51325 11.2232C9.53325 11.2765 9.55325 11.3165 9.56659 11.3565C9.68659 11.5765 9.89325 11.8632 10.1866 12.2099C10.4866 12.5565 10.8066 12.9099 11.1533 13.2632C11.5133 13.6165 11.8599 13.9432 12.2133 14.2432C12.5599 14.5365 12.8466 14.7365 13.0733 14.8565C13.1066 14.8699 13.1466 14.8899 13.1933 14.9099C13.2466 14.9299 13.2999 14.9365 13.3599 14.9365C13.4733 14.9365 13.5599 14.8965 13.6333 14.8232L14.1399 14.3232C14.3066 14.1565 14.4666 14.0299 14.6199 13.9499C14.7733 13.8565 14.9266 13.8099 15.0933 13.8099C15.2199 13.8099 15.3533 13.8365 15.4999 13.8965C15.6466 13.9565 15.7999 14.0432 15.9666 14.1565L18.1733 15.7232C18.3466 15.8432 18.4666 15.9832 18.5399 16.1499C18.6066 16.3165 18.6466 16.4832 18.6466 16.6699Z" stroke="white" stroke-width="1.5" stroke-miterlimit="10"/>
<path d="M16.3333 10.4495C16.3333 10.0495 16.02 9.43621 15.5533 8.93621C15.1267 8.47621 14.56 8.11621 14 8.11621" stroke="white" stroke-width="1.5" stroke-linecap="round" stroke-linejoin="round"/>
<path d="M18.6667 10.4499C18.6667 7.86987 16.58 5.7832 14 5.7832" stroke="white" stroke-width="1.5" stroke-linecap="round" stroke-linejoin="round"/>
</svg>
