<svg width="20" height="21" viewBox="0 0 20 21" fill="none" xmlns="http://www.w3.org/2000/svg">
<g clip-path="url(#clip0_12019_3385)">
<rect y="0.450195" width="20" height="20" rx="10" fill="#806CAD"/>
<rect width="20" height="20" transform="translate(0 0.450195)" fill="white"/>
<path d="M10.0001 2.11719C8.90573 2.11719 7.8221 2.33274 6.81105 2.75152C5.80001 3.17031 4.88135 3.78414 4.10752 4.55796C2.54472 6.12077 1.66675 8.24038 1.66675 10.4505C1.66675 12.6607 2.54472 14.7803 4.10752 16.3431C4.88135 17.1169 5.80001 17.7307 6.81105 18.1495C7.8221 18.5683 8.90573 18.7839 10.0001 18.7839C12.2102 18.7839 14.3298 17.9059 15.8926 16.3431C17.4554 14.7803 18.3334 12.6607 18.3334 10.4505C18.3334 9.35617 18.1179 8.27254 17.6991 7.26149C17.2803 6.25045 16.6665 5.33179 15.8926 4.55796C15.1188 3.78414 14.2002 3.17031 13.1891 2.75152C12.1781 2.33274 11.0944 2.11719 10.0001 2.11719ZM13.5001 13.9505L9.16675 11.2839V6.28385H10.4167V10.6172L14.1667 12.8672L13.5001 13.9505Z" fill="#806CAD"/>
</g>
<defs>
<clipPath id="clip0_12019_3385">
<rect y="0.450195" width="20" height="20" rx="10" fill="white"/>
</clipPath>
</defs>
</svg>
