<svg width="59" height="75" viewBox="0 0 59 75" fill="none" xmlns="http://www.w3.org/2000/svg">
<path d="M48.5784 0.921875C49.3395 1.40859 49.5498 2.10361 49.5478 2.99492C49.5278 17.5563 49.5231 32.1171 49.5338 46.6772C49.5338 48.2795 49.0651 48.7462 47.5068 48.7462H11.7663C10.238 48.7462 9.78936 48.3055 9.78936 46.7973C9.78936 32.1611 9.78536 17.5256 9.77734 2.89077C9.77734 2.01549 9.97764 1.32847 10.8089 0.921875H48.5784Z" fill="#4A4A4A"/>
<path d="M22.0212 51.105C24.5008 51.1794 26.9136 51.9264 29.0015 53.2661C32.4245 55.4554 35.8015 57.7187 39.2165 59.9259C40.5705 60.8012 41.62 61.8708 41.8764 63.5312C41.9605 64.08 42.301 63.8777 42.5954 63.7996C46.1807 62.8442 49.77 61.8988 53.3493 60.9194C54.9797 60.4727 56.4238 60.7191 57.6075 61.9609C59.7286 64.1922 58.609 67.8115 55.5425 68.6447C52.3217 69.52 49.093 70.3593 45.8683 71.2185C41.9679 72.2587 38.0701 73.3003 34.1751 74.3431C32.0239 74.922 29.9689 74.4513 27.9339 73.8063C23.9781 72.5545 20.2846 70.6958 16.5712 68.8851C15.1371 68.1881 13.707 67.483 12.2869 66.764C12.1461 66.6912 11.9921 66.6477 11.834 66.6364C11.676 66.625 11.5172 66.6459 11.3675 66.6979C9.23039 67.2827 7.08724 67.8496 4.94609 68.4204C4.12088 68.6387 3.55605 68.3984 3.36777 67.7574C3.17949 67.1165 3.56806 66.6338 4.39728 66.4095C6.68264 65.8086 8.97401 65.2077 11.2514 64.5667C11.7522 64.4082 12.2953 64.4528 12.7636 64.6909C16.0244 66.2933 19.2792 67.9097 22.56 69.472C24.7977 70.5647 27.1216 71.4711 29.5082 72.1819C31.0167 72.6377 32.6238 72.6537 34.141 72.228C40.951 70.3472 47.7971 68.5386 54.6271 66.7039C54.8435 66.6458 55.0638 66.5937 55.2721 66.5156C56.1454 66.1891 56.6742 65.2458 56.4739 64.4346C56.2295 63.5192 55.3722 62.8963 54.4268 63.0986C52.9667 63.411 51.5266 63.8196 50.0825 64.2022C47.4586 64.8979 44.8361 65.5983 42.2149 66.3033C41.8864 66.3914 41.602 66.4836 41.4037 66.8541C40.0537 69.3618 37.0213 70.2371 34.6057 68.7289C31.0945 66.5397 27.6435 64.2523 24.1664 62.009L23.0367 61.2779C22.1915 60.7291 21.9731 60.1783 22.3557 59.5734C22.7383 58.9685 23.3411 58.9184 24.1764 59.4592L33.6463 65.6083C34.2472 66.0089 34.8481 66.4095 35.469 66.784C36.8851 67.6613 38.5956 67.3248 39.4188 66.0169C40.2059 64.769 39.8053 63.1366 38.4634 62.2373C34.8801 59.8338 31.3329 57.3722 27.6855 55.0728C25.5284 53.7108 23.1028 52.7794 20.509 53.4704C17.9612 54.1494 15.4175 54.8505 12.8717 55.5455C9.41266 56.4889 5.94356 57.4002 2.47846 58.3236C2.38232 58.3496 2.27817 58.3696 2.18803 58.3917C1.45095 58.5619 0.896138 58.3015 0.745918 57.7207C0.573664 57.0477 0.880116 56.5369 1.62922 56.3326C3.76836 55.7498 5.91151 55.191 8.05066 54.6101C12.0165 53.5305 15.9763 52.4369 19.9421 51.3573C20.6183 51.168 21.3194 51.0829 22.0212 51.105Z" fill="#4A4A4A"/>
<path d="M12.0043 24.8612C12.0043 17.8669 12.0143 10.8726 11.9883 3.88033C11.9883 3.2474 12.1465 3.11521 12.7614 3.11721C24.0019 3.13724 35.2425 3.13724 46.483 3.11721C47.1259 3.11721 47.3042 3.2454 47.3022 3.91839C47.2808 17.8816 47.2808 31.8448 47.3022 45.808C47.3022 46.477 47.134 46.6232 46.479 46.6232C35.2385 46.6018 23.9979 46.6018 12.7574 46.6232C12.1225 46.6232 11.9883 46.4569 11.9903 45.844C12.0143 38.8497 12.0043 31.8555 12.0043 24.8612Z" fill="#FEFEFE"/>
<path d="M29.6671 37.1612H41.5005C41.7504 37.1512 42.0006 37.1572 42.2496 37.1792C42.5021 37.1938 42.7403 37.3013 42.9182 37.4811C43.0961 37.6608 43.2011 37.9001 43.2131 38.1527C43.2731 38.7195 43.0128 39.1041 42.482 39.3204C42.1949 39.4077 41.8932 39.437 41.5947 39.4065H17.7035C17.4055 39.4356 17.1046 39.4091 16.8162 39.3284C16.5726 39.2596 16.3622 39.1048 16.224 38.8926C16.0859 38.6804 16.0294 38.4254 16.0651 38.1747C16.0695 37.9196 16.1691 37.6754 16.3444 37.4901C16.5198 37.3047 16.7581 37.1917 17.0125 37.1732C17.2608 37.1495 17.5104 37.1428 17.7596 37.1532L29.6671 37.1612Z" fill="#4A4A4A"/>
<path d="M29.6629 28.1773H41.4923C41.7415 28.1659 41.9912 28.1726 42.2394 28.1973C42.5046 28.217 42.7526 28.336 42.9338 28.5306C43.115 28.7251 43.2161 28.9809 43.2169 29.2468C43.2448 29.4982 43.1782 29.751 43.0301 29.9561C42.8821 30.1611 42.6631 30.3038 42.4157 30.3565C42.1736 30.4127 41.9248 30.435 41.6766 30.4226H17.6413C17.4671 30.4326 17.2926 30.4326 17.1185 30.4226C16.4655 30.3424 16.0449 29.8818 16.0589 29.2809C16.0626 28.9908 16.181 28.714 16.3882 28.511C16.5954 28.3079 16.8745 28.1952 17.1646 28.1973C18.0118 28.1672 18.8611 28.1833 19.7103 28.1833L29.6629 28.1773Z" fill="#4A4A4A"/>
<path d="M29.6201 21.4645H17.7066C17.4822 21.478 17.2572 21.4733 17.0336 21.4505C16.4327 21.3544 16.0922 20.9939 16.0641 20.393C16.0361 19.7921 16.3686 19.4055 16.9394 19.2553C17.1607 19.215 17.3861 19.2029 17.6104 19.2192H41.6458C41.8461 19.2038 42.0476 19.2099 42.2466 19.2373C42.8475 19.3675 43.2481 19.726 43.2181 20.3749C43.188 21.0239 42.8175 21.3764 42.1946 21.4585C41.9947 21.475 41.794 21.4783 41.5937 21.4685L29.6201 21.4645Z" fill="#4A4A4A"/>
<path d="M29.541 12.5115H17.7857C17.5115 12.5244 17.2367 12.513 16.9645 12.4775C16.6992 12.4492 16.4559 12.3174 16.2871 12.1108C16.1184 11.9042 16.0379 11.6394 16.0631 11.3739C16.0752 10.787 16.4637 10.4846 17.0005 10.3724C17.1746 10.3516 17.3503 10.3469 17.5253 10.3584H41.7089C41.8838 10.3463 42.0594 10.3503 42.2336 10.3704C42.8025 10.4785 43.2191 10.771 43.2151 11.4039C43.2111 12.0368 42.8585 12.3733 42.2677 12.4755C42.0199 12.5056 41.77 12.5157 41.5206 12.5055L29.541 12.5115Z" fill="#4A4A4A"/>
</svg>
