<svg width="24" height="24" viewBox="0 0 24 24" fill="none" xmlns="http://www.w3.org/2000/svg">
<path d="M12.7199 10.7999C12.2399 10.6799 11.7599 10.4399 11.3999 10.0799C11.0399 9.9599 10.9199 9.5999 10.9199 9.3599C10.9199 9.1199 11.0399 8.7599 11.2799 8.6399C11.6399 8.3999 11.9999 8.1599 12.3599 8.2799C13.0799 8.2799 13.6799 8.6399 14.0399 9.1199L15.1199 7.6799C14.7599 7.3199 14.3999 7.0799 14.0399 6.8399C13.6799 6.5999 13.1999 6.4799 12.7199 6.4799V4.7999H11.2799V6.4799C10.6799 6.5999 10.0799 6.9599 9.5999 7.4399C9.1199 8.0399 8.7599 8.7599 8.8799 9.4799C8.8799 10.1999 9.1199 10.9199 9.5999 11.3999C10.1999 11.9999 11.0399 12.3599 11.7599 12.7199C12.1199 12.8399 12.5999 13.0799 12.9599 13.3199C13.1999 13.5599 13.3199 13.9199 13.3199 14.2799C13.3199 14.6399 13.1999 14.9999 12.9599 15.3599C12.5999 15.7199 12.1199 15.8399 11.7599 15.8399C11.2799 15.8399 10.6799 15.7199 10.3199 15.3599C9.9599 15.1199 9.5999 14.7599 9.3599 14.3999L8.1599 15.7199C8.5199 16.1999 8.8799 16.5599 9.3599 16.9199C9.9599 17.2799 10.6799 17.6399 11.3999 17.6399V19.1999H12.7199V17.3999C13.4399 17.2799 14.0399 16.9199 14.5199 16.4399C15.1199 15.8399 15.4799 14.8799 15.4799 14.0399C15.4799 13.3199 15.2399 12.4799 14.6399 11.9999C14.0399 11.3999 13.4399 11.0399 12.7199 10.7999ZM11.9999 2.3999C6.7199 2.3999 2.3999 6.7199 2.3999 11.9999C2.3999 17.2799 6.7199 21.5999 11.9999 21.5999C17.2799 21.5999 21.5999 17.2799 21.5999 11.9999C21.5999 6.7199 17.2799 2.3999 11.9999 2.3999ZM11.9999 20.2799C7.4399 20.2799 3.7199 16.5599 3.7199 11.9999C3.7199 7.4399 7.4399 3.7199 11.9999 3.7199C16.5599 3.7199 20.2799 7.4399 20.2799 11.9999C20.2799 16.5599 16.5599 20.2799 11.9999 20.2799Z" fill="#4C5BD4"/>
</svg>
