<svg width="30" height="30" viewBox="0 0 30 30" fill="none" xmlns="http://www.w3.org/2000/svg">
<path d="M18.215 6.47998C18.7963 5.43498 19.4575 4.35498 20.0313 3.78123C20.8518 2.96072 21.9646 2.49976 23.125 2.49976C24.2854 2.49976 25.3983 2.96072 26.2188 3.78123C27.0393 4.60174 27.5002 5.7146 27.5002 6.87498C27.5002 8.03536 27.0393 9.14822 26.2188 9.96873C25.645 10.5425 24.565 11.2037 23.5188 11.785C22.6888 12.2462 21.8063 12.6975 21.0538 13.0675L23.8138 15.8262C24.1912 16.2035 24.4905 16.6514 24.6948 17.1444C24.899 17.6374 25.0042 18.1657 25.0042 18.6994C25.0042 19.233 24.899 19.7614 24.6948 20.2543C24.4905 20.7473 24.1912 21.1952 23.8138 21.5725L20.8388 24.545C20.5458 24.8377 20.1486 25.0021 19.7344 25.0021C19.3202 25.0021 18.923 24.8377 18.63 24.545L18.1225 24.0387L15.4838 26.6775C15.2226 26.9386 14.9126 27.1458 14.5713 27.2872C14.2301 27.4285 13.8644 27.5013 13.495 27.5013C13.1257 27.5013 12.7599 27.4285 12.4187 27.2872C12.0775 27.1458 11.7674 26.9386 11.5063 26.6775L3.32377 18.4975C3.06261 18.2363 2.85544 17.9263 2.71409 17.585C2.57275 17.2438 2.5 16.8781 2.5 16.5087C2.5 16.1394 2.57275 15.7737 2.71409 15.4324C2.85544 15.0912 3.06261 14.7811 3.32377 14.52L5.96377 11.88L5.45752 11.3725C5.31239 11.2274 5.19726 11.0551 5.11871 10.8655C5.04016 10.6759 4.99973 10.4727 4.99973 10.2675C4.99973 10.0623 5.04016 9.85904 5.11871 9.66944C5.19726 9.47984 5.31239 9.30758 5.45752 9.16248L8.43127 6.18998C9.19313 5.42819 10.2264 5.00022 11.3038 5.00022C12.3812 5.00022 13.4144 5.42819 14.1763 6.18998L16.9325 8.94623C17.3038 8.19373 17.7538 7.30998 18.215 6.47998ZM7.29002 13.205L4.65002 15.8462C4.47446 16.022 4.37585 16.2603 4.37585 16.5087C4.37585 16.7572 4.47446 16.9954 4.65002 17.1712L12.8313 25.3525C13.0071 25.528 13.2453 25.6267 13.4938 25.6267C13.7422 25.6267 13.9805 25.528 14.1563 25.3525L16.7975 22.7125L7.29002 13.205ZM22.6088 10.1462C23.6838 9.54873 24.5338 9.00248 24.8925 8.64248C25.3479 8.17097 25.5999 7.53947 25.5942 6.88398C25.5885 6.22848 25.3256 5.60145 24.8621 5.13793C24.3986 4.67441 23.7715 4.41149 23.116 4.40579C22.4605 4.4001 21.829 4.65208 21.3575 5.10748C20.9975 5.46748 20.4513 6.31623 19.8538 7.39123C19.2913 8.40498 18.7375 9.51373 18.335 10.3487L19.6513 11.665C20.6509 11.1861 21.6372 10.6797 22.6088 10.1462ZM12.85 7.51498C12.6469 7.31183 12.4057 7.15068 12.1403 7.04073C11.8749 6.93079 11.5904 6.8742 11.3031 6.8742C11.0159 6.8742 10.7314 6.93079 10.466 7.04073C10.2006 7.15068 9.95941 7.31183 9.75627 7.51498L7.00502 10.2675L19.735 23L22.4875 20.2475C22.6907 20.0443 22.8518 19.8032 22.9618 19.5378C23.0717 19.2724 23.1283 18.9879 23.1283 18.7006C23.1283 18.4133 23.0717 18.1288 22.9618 17.8634C22.8518 17.598 22.6907 17.3569 22.4875 17.1537L12.85 7.51498Z" fill="black"/>
</svg>
