<svg width="24" height="25" viewBox="0 0 24 25" fill="none" xmlns="http://www.w3.org/2000/svg">
<path d="M12 22.5C12.6193 22.5008 13.2235 22.3086 13.7285 21.9502C14.2335 21.5917 14.6143 21.0849 14.818 20.5H9.182C9.38566 21.0849 9.76648 21.5917 10.2715 21.9502C10.7765 22.3086 11.3807 22.5008 12 22.5ZM19 15.086V10.5C19 7.283 16.815 4.573 13.855 3.758C13.562 3.02 12.846 2.5 12 2.5C11.154 2.5 10.438 3.02 10.145 3.758C7.185 4.574 5 7.283 5 10.5V15.086L3.293 16.793C3.19996 16.8857 3.12617 16.9959 3.07589 17.1172C3.0256 17.2386 2.99981 17.3687 3 17.5V18.5C3 18.7652 3.10536 19.0196 3.29289 19.2071C3.48043 19.3946 3.73478 19.5 4 19.5H20C20.2652 19.5 20.5196 19.3946 20.7071 19.2071C20.8946 19.0196 21 18.7652 21 18.5V17.5C21.0002 17.3687 20.9744 17.2386 20.9241 17.1172C20.8738 16.9959 20.8 16.8857 20.707 16.793L19 15.086Z" fill="white"/>
</svg>
