<svg width="24" height="24" viewBox="0 0 24 24" fill="none" xmlns="http://www.w3.org/2000/svg">
<path d="M3.75 5.25H7.5V4.5C7.5 3.90326 7.73705 3.33097 8.15901 2.90901C8.58097 2.48705 9.15326 2.25 9.75 2.25H14.25C14.8467 2.25 15.419 2.48705 15.841 2.90901C16.2629 3.33097 16.5 3.90326 16.5 4.5V5.25H20.25C20.6478 5.25 21.0294 5.40804 21.3107 5.68934C21.592 5.97064 21.75 6.35218 21.75 6.75V18.75C21.75 19.1478 21.592 19.5294 21.3107 19.8107C21.0294 20.092 20.6478 20.25 20.25 20.25H3.75C3.35217 20.25 2.97064 20.092 2.68934 19.8107C2.40804 19.5294 2.25 19.1478 2.25 18.75V6.75C2.25 6.35218 2.40804 5.97064 2.68934 5.68934C2.97064 5.40804 3.35217 5.25 3.75 5.25ZM15 4.5C15 4.30109 14.921 4.11032 14.7803 3.96967C14.6397 3.82902 14.4489 3.75 14.25 3.75H9.75C9.55109 3.75 9.36032 3.82902 9.21967 3.96967C9.07902 4.11032 9 4.30109 9 4.5V5.25H15V4.5ZM3.75 6.75V10.6509C6.28146 12.0289 9.11783 12.7505 12 12.75C14.882 12.7504 17.7183 12.0291 20.25 10.6519V6.75H3.75ZM3.75 18.75H20.25V12.3412C17.6813 13.5977 14.8595 14.2505 12 14.25C9.14045 14.2501 6.31867 13.5969 3.75 12.3403V18.75ZM14.25 10.5C14.25 10.3011 14.171 10.1103 14.0303 9.96967C13.8897 9.82902 13.6989 9.75 13.5 9.75H10.5C10.3011 9.75 10.1103 9.82902 9.96967 9.96967C9.82902 10.1103 9.75 10.3011 9.75 10.5C9.75 10.6989 9.82902 10.8897 9.96967 11.0303C10.1103 11.171 10.3011 11.25 10.5 11.25H13.5C13.6989 11.25 13.8897 11.171 14.0303 11.0303C14.171 10.8897 14.25 10.6989 14.25 10.5Z" fill="black"/>
</svg>
