<svg width="50" height="51" viewBox="0 0 50 51" fill="none" xmlns="http://www.w3.org/2000/svg">
<g clip-path="url(#clip0_12398_17653)">
<path fill-rule="evenodd" clip-rule="evenodd" d="M17.277 26.9727C16.8864 26.5821 16.667 26.0522 16.667 25.4998C16.667 24.9474 16.8864 24.4176 17.277 24.0269L29.0624 12.2415C29.2546 12.0425 29.4844 11.8838 29.7386 11.7746C29.9928 11.6654 30.2662 11.608 30.5428 11.6055C30.8194 11.6031 31.0937 11.6559 31.3498 11.7606C31.6058 11.8654 31.8384 12.0201 32.034 12.2157C32.2296 12.4113 32.3843 12.6439 32.4891 12.8999C32.5938 13.1559 32.6466 13.4303 32.6442 13.7069C32.6417 13.9835 32.5843 14.2569 32.4751 14.5111C32.3659 14.7653 32.2072 14.9951 32.0082 15.1873L21.6957 25.4998L32.0082 35.8123C32.3877 36.2052 32.5977 36.7315 32.593 37.2777C32.5882 37.824 32.3691 38.3465 31.9828 38.7328C31.5966 39.119 31.074 39.3381 30.5278 39.3429C29.9816 39.3476 29.4553 39.1376 29.0624 38.7582L17.277 26.9727Z" fill="black"/>
</g>
<defs>
<clipPath id="clip0_12398_17653">
<rect width="50" height="50" fill="white" transform="translate(0 0.5)"/>
</clipPath>
</defs>
</svg>
