<svg width="24" height="24" viewBox="0 0 24 24" fill="none" xmlns="http://www.w3.org/2000/svg">
<path fill-rule="evenodd" clip-rule="evenodd" d="M11.9978 21.1908L12.7189 20.3782C13.5372 19.4411 14.2732 18.5519 14.9281 17.7062L15.4686 16.9931C17.7258 13.9519 18.8549 11.5382 18.8549 9.75423C18.8549 5.94623 15.7852 2.85938 11.9978 2.85938C8.21034 2.85938 5.14062 5.94623 5.14062 9.75423C5.14062 11.5382 6.26977 13.9519 8.52691 16.9931L9.06748 17.7062C10.0017 18.9032 10.9791 20.0648 11.9978 21.1908Z" stroke="black" stroke-linecap="round" stroke-linejoin="round"/>
<path d="M11.9978 12.5737C13.5757 12.5737 14.8549 11.2945 14.8549 9.71652C14.8549 8.13856 13.5757 6.85938 11.9978 6.85938C10.4198 6.85938 9.14062 8.13856 9.14062 9.71652C9.14062 11.2945 10.4198 12.5737 11.9978 12.5737Z" stroke="black" stroke-linecap="round" stroke-linejoin="round"/>
</svg>
