<svg width="40" height="41" viewBox="0 0 40 41" fill="none" xmlns="http://www.w3.org/2000/svg">
<g clip-path="url(#clip0_12299_10068)">
<path fill-rule="evenodd" clip-rule="evenodd" d="M13.822 21.8104C13.5095 21.4979 13.334 21.074 13.334 20.6321C13.334 20.1901 13.5095 19.7663 13.822 19.4537L23.2503 10.0254C23.404 9.86623 23.5879 9.73926 23.7913 9.65191C23.9946 9.56456 24.2133 9.51859 24.4346 9.51666C24.6559 9.51474 24.8754 9.55691 25.0802 9.64071C25.285 9.72451 25.4711 9.84827 25.6276 10.0048C25.7841 10.1612 25.9079 10.3473 25.9917 10.5522C26.0755 10.757 26.1176 10.9765 26.1157 11.1978C26.1138 11.419 26.0678 11.6377 25.9805 11.8411C25.8931 12.0444 25.7661 12.2283 25.607 12.3821L17.357 20.6321L25.607 28.8821C25.9106 29.1964 26.0785 29.6174 26.0748 30.0544C26.071 30.4914 25.8957 30.9094 25.5867 31.2184C25.2776 31.5275 24.8596 31.7027 24.4226 31.7065C23.9856 31.7103 23.5646 31.5423 23.2503 31.2388L13.822 21.8104Z" fill="black"/>
</g>
<defs>
<clipPath id="clip0_12299_10068">
<rect width="40" height="40" fill="white" transform="translate(0 0.632324)"/>
</clipPath>
</defs>
</svg>
