<svg width="40" height="40" viewBox="0 0 40 40" fill="none" xmlns="http://www.w3.org/2000/svg">
<path d="M18.9219 8.95605H21.1094V31.0186H18.9219V8.95605Z" fill="#4C889B"/>
<path d="M28.8812 11.197C30.5156 11.197 32.2625 10.6095 33.6781 8.63447L31.9 7.35947C30.2062 9.71885 27.9344 9.10947 25.5625 8.2126L25.2812 8.10635C23.7031 7.51885 21.8312 7.19385 20.0156 7.19385V9.38135C21.5562 9.38135 23.2 9.6626 24.5187 10.1563L24.7906 10.2595C25.7687 10.6282 27.2719 11.197 28.8812 11.197ZM12.6312 35.4376C13.2719 34.7688 16.3531 33.897 17.1656 33.1407C17.9781 32.3845 17.1562 31.5063 17.5437 29.7095C18.0375 27.4188 20.0156 27.1532 20.0156 27.1532C20.0156 27.1532 21.9937 27.4188 22.4875 29.7095C22.875 31.5032 22.05 32.3845 22.8656 33.1407C23.6781 33.897 26.7625 34.7688 27.4 35.4376C28.0687 36.1376 28.0969 37.0657 27.4 37.3845C27.4 37.3845 25.0625 38.3438 20.0156 38.3438C14.9687 38.3438 12.6312 37.3845 12.6312 37.3845C12.0344 37.197 11.9625 36.1376 12.6312 35.4376Z" fill="#4C889B"/>
<path d="M21.1002 11.8627C21.1002 12.0158 21.2533 12.7877 20.3752 12.9721C19.6064 13.1314 18.9189 12.7939 18.9189 11.8439C18.9189 11.0627 18.9939 10.7002 18.9939 10.7002C18.9939 10.7002 21.1002 11.3939 21.1002 11.8627Z" fill="#335E68"/>
<path d="M22.6155 9.48418C22.6155 8.0498 21.453 4.15918 20.0155 4.15918C18.578 4.15918 17.4155 8.0498 17.4155 9.48418C17.4155 10.9186 18.578 12.0842 20.0155 12.0842C21.453 12.0842 22.6155 10.9217 22.6155 9.48418Z" fill="#4C889B"/>
<path d="M20.0156 5.09375C20.9649 5.09375 21.7344 4.32424 21.7344 3.375C21.7344 2.42576 20.9649 1.65625 20.0156 1.65625C19.0664 1.65625 18.2969 2.42576 18.2969 3.375C18.2969 4.32424 19.0664 5.09375 20.0156 5.09375Z" fill="#4C889B"/>
<path d="M32.5811 9.27832C33.5303 9.27832 34.2998 8.50881 34.2998 7.55957C34.2998 6.61033 33.5303 5.84082 32.5811 5.84082C31.6318 5.84082 30.8623 6.61033 30.8623 7.55957C30.8623 8.50881 31.6318 9.27832 32.5811 9.27832Z" fill="#4C889B"/>
<path d="M11.147 11.197C12.7563 11.197 14.2595 10.6282 15.2376 10.2595L15.5095 10.1563C16.8313 9.66572 18.472 9.38135 20.0126 9.38135V7.19385C18.1938 7.19385 16.3251 7.51885 14.747 8.10635L14.4657 8.2126C12.0907 9.10947 9.82197 9.71885 8.12822 7.35947L6.3501 8.63447C7.76885 10.6095 9.5126 11.197 11.147 11.197Z" fill="#4C889B"/>
<path d="M18.4935 28.7185C18.0435 29.0592 18.0967 29.6623 18.1217 29.7529C18.1842 29.9717 18.4029 30.1029 18.6123 30.181C19.156 30.381 19.7748 30.3342 20.2967 30.0935C20.6748 29.9185 21.4404 29.3842 21.3623 28.881C21.2342 28.0529 18.9467 28.3748 18.4935 28.7185ZM20.931 36.406C18.606 36.9342 16.1623 36.6685 14.1685 35.9904C13.3342 35.706 13.6342 35.3998 13.681 35.3623C14.0842 35.031 14.5967 34.8029 15.1435 34.7592C16.1373 34.681 16.9248 35.0654 17.8779 35.3498C18.9592 35.6717 20.106 35.7779 21.2279 35.6592C21.3873 35.6435 21.5623 35.6279 21.6967 35.7185C22.2185 36.0685 20.931 36.406 20.931 36.406ZM19.7498 3.43417C19.581 3.50917 19.3873 3.55292 19.2123 3.49042C18.9654 3.40292 18.8248 3.12167 18.8498 2.86229C18.8967 2.39042 19.6279 1.74979 20.1217 1.99667C20.7748 2.32479 20.1935 3.23417 19.7498 3.43417ZM18.1873 8.49979C18.6279 9.02479 19.6154 8.94667 20.106 7.73729C20.4373 6.91854 20.3373 5.99354 20.2904 5.70917C20.1717 4.94667 19.4967 4.76854 19.0279 5.42167C18.0435 6.78729 17.8998 8.15917 18.1873 8.49979Z" fill="#81AFC1"/>
<path d="M7.44697 8.35C7.75936 8.35 8.0126 8.09676 8.0126 7.78437C8.0126 7.47199 7.75936 7.21875 7.44697 7.21875C7.13459 7.21875 6.88135 7.47199 6.88135 7.78437C6.88135 8.09676 7.13459 8.35 7.44697 8.35Z" fill="#4C889B"/>
<path d="M1.0752 28.8407L6.8752 7.64072C6.8752 7.64072 7.20957 7.24072 7.44707 7.24072C7.68457 7.24072 8.03145 7.64072 8.03145 7.64072L13.8471 28.8688L13.0189 29.1001L7.87832 10.2782L7.01894 10.3595L1.90332 29.0688L1.0752 28.8407Z" fill="#4C889B"/>
<path d="M13.8781 28.8877H1.01562C1.01562 30.3221 4.39687 32.2627 7.44688 32.2627C10.4969 32.2627 13.8781 30.1908 13.8781 28.8877Z" fill="#81AFC1"/>
<path d="M7.44688 29.9064C10.9988 29.9064 13.8781 29.4685 13.8781 28.9283C13.8781 28.3881 10.9988 27.9502 7.44688 27.9502C3.89499 27.9502 1.01562 28.3881 1.01562 28.9283C1.01562 29.4685 3.89499 29.9064 7.44688 29.9064Z" fill="#335E68"/>
<path d="M7.44688 28.2658C10.1156 28.2658 12.0938 28.5127 13.025 28.7627C13.1906 28.8064 13.1906 29.0471 13.025 29.0908C12.0938 29.3408 10.1156 29.5877 7.44688 29.5877C4.77813 29.5877 2.8 29.3439 1.86875 29.0939C1.70312 29.0502 1.70312 28.8096 1.86875 28.7658C2.8 28.5127 4.77813 28.2658 7.44688 28.2658ZM7.44688 27.9502C3.89375 27.9502 1.01562 28.3877 1.01562 28.9283C1.01562 29.4689 3.89375 29.9064 7.44688 29.9064C11 29.9064 13.8781 29.4689 13.8781 28.9283C13.8781 28.3877 11 27.9502 7.44688 27.9502ZM5.50313 31.1533C6.10625 31.4502 5.99375 31.6377 5.625 31.6752C4.89375 31.7502 3.69375 31.2908 2.975 30.6721C2.76563 30.4908 2.50937 29.8721 3.20312 29.9752C4.27813 30.1314 4.2 30.5064 5.50313 31.1533Z" fill="#A3CDD9"/>
<path d="M7.01855 7.68135V7.67197C7.01855 7.43447 7.21231 7.24072 7.44981 7.24072C7.68731 7.24072 7.88105 7.43447 7.88105 7.67197V29.922C7.88105 30.1595 7.68731 30.3532 7.44981 30.3532C7.21231 30.3532 7.01855 30.1595 7.01855 29.922V7.68135Z" fill="#4C889B"/>
<path d="M7.44678 9.3877C8.39602 9.3877 9.16553 8.61818 9.16553 7.66895C9.16553 6.71971 8.39602 5.9502 7.44678 5.9502C6.49754 5.9502 5.72803 6.71971 5.72803 7.66895C5.72803 8.61818 6.49754 9.3877 7.44678 9.3877Z" fill="#4C889B"/>
<path d="M7.74045 6.30004C8.15608 6.48754 7.96858 6.84691 7.8842 6.95316C7.65608 7.24379 7.2842 7.25629 7.0092 7.56879C6.89045 7.70316 6.82795 8.01254 6.56233 8.08441C6.5248 8.09719 6.48498 8.1018 6.44552 8.09793C6.40607 8.09406 6.3679 8.0818 6.33357 8.06197C6.29924 8.04214 6.26955 8.01521 6.24649 7.98297C6.22342 7.95073 6.20751 7.91393 6.19983 7.87504C6.09358 7.24691 6.32795 6.80941 6.74045 6.50316C6.93108 6.35941 7.32483 6.11254 7.74045 6.30004Z" fill="#81AFC1"/>
<path d="M26.1812 28.8154L32.0562 7.6373C32.0562 7.6373 32.3937 7.2373 32.6312 7.2373C32.8687 7.2373 33.2155 7.64043 33.2155 7.64043L38.9562 28.8904L38.1249 29.1217L33.0468 10.2779L32.1874 10.3592L27.0062 29.0467L26.1812 28.8154Z" fill="#4C889B"/>
<path d="M38.9846 28.9126L26.1221 28.8657C26.1158 30.3001 29.4908 32.2532 32.5408 32.2626C35.5908 32.2751 38.9815 30.2126 38.9846 28.9126Z" fill="#81AFC1"/>
<path d="M38.9836 28.9503C38.9855 28.4101 36.1077 27.9619 32.5558 27.9494C29.004 27.9368 26.1231 28.3645 26.1211 28.9047C26.1192 29.4449 28.997 29.893 32.5489 29.9056C36.1007 29.9182 38.9816 29.4905 38.9836 28.9503Z" fill="#335E68"/>
<path d="M32.5564 28.2656C35.2252 28.275 37.2033 28.5281 38.1314 28.7812C38.2971 28.825 38.2939 29.0656 38.1314 29.1093C37.2002 29.3562 35.2221 29.5968 32.5533 29.5875C29.8846 29.5781 27.9064 29.325 26.9783 29.0718C26.8127 29.0281 26.8158 28.7875 26.9783 28.7437C27.9064 28.4968 29.8877 28.2562 32.5564 28.2656ZM32.5564 27.95C29.0033 27.9375 26.1221 28.3656 26.1221 28.9062C26.1189 29.4468 28.9971 29.8937 32.5502 29.9062C36.1033 29.9187 38.9846 29.4906 38.9846 28.95C38.9877 28.4125 36.1096 27.9625 32.5564 27.95ZM30.6002 31.1437C31.2033 31.4437 31.0346 31.5843 30.6658 31.6218C29.9346 31.6968 28.8377 31.1781 28.0252 30.5593C27.8064 30.3906 27.4252 29.7875 28.3064 29.9562C29.3596 30.1625 29.3877 30.5406 30.6002 31.1437Z" fill="#A3CDD9"/>
<path d="M32.1968 7.67823V7.66885C32.1972 7.55489 32.2429 7.44576 32.3237 7.36547C32.4046 7.28518 32.5141 7.24031 32.628 7.24073C32.742 7.24114 32.8511 7.28681 32.9314 7.36768C33.0117 7.44856 33.0566 7.55802 33.0562 7.67198V7.6876L32.978 29.922C32.9778 29.9784 32.9665 30.0342 32.9447 30.0863C32.9229 30.1383 32.8911 30.1856 32.8511 30.2254C32.811 30.2651 32.7635 30.2966 32.7113 30.318C32.6591 30.3394 32.6032 30.3503 32.5468 30.3501C32.4904 30.3499 32.4345 30.3386 32.3825 30.3168C32.3304 30.295 32.2832 30.2632 32.2434 30.2231C32.2036 30.1831 32.1722 30.1356 32.1508 30.0834C32.1294 30.0312 32.1184 29.9753 32.1187 29.9188L32.1968 7.67823Z" fill="#4C889B"/>
<path d="M32.7532 6.28462C33.1689 6.47212 32.9939 6.84087 32.897 6.93774C32.7126 7.12524 32.4939 7.27524 32.2876 7.43462C32.0657 7.60649 31.8845 7.78462 31.5376 7.58149C31.1439 7.35337 31.3845 6.79712 31.7345 6.53462C31.922 6.39399 32.3376 6.10024 32.7532 6.28462Z" fill="#81AFC1"/>
</svg>
