<svg width="29" height="28" viewBox="0 0 29 28" fill="none" xmlns="http://www.w3.org/2000/svg">
<path d="M15.135 5.19732C15.3811 4.95153 15.7147 4.81348 16.0625 4.81348C16.4103 4.81348 16.7439 4.95153 16.99 5.19732L24.4275 12.6348C24.6733 12.8809 24.8113 13.2145 24.8113 13.5623C24.8113 13.9101 24.6733 14.2437 24.4275 14.4898L16.99 21.9273C16.7412 22.1594 16.4121 22.2859 16.0719 22.28C15.7317 22.2741 15.4071 22.1364 15.1665 21.8958C14.9259 21.6552 14.7882 21.3306 14.7823 20.9904C14.7764 20.6503 14.9029 20.3211 15.135 20.0723L20.3325 14.8748H7.3125C6.9644 14.8748 6.63056 14.7365 6.38442 14.4904C6.13828 14.2443 6 13.9104 6 13.5623C6 13.2142 6.13828 12.8804 6.38442 12.6342C6.63056 12.3881 6.9644 12.2498 7.3125 12.2498H20.3325L15.135 7.05232C14.8892 6.80623 14.7512 6.47264 14.7512 6.12482C14.7512 5.77701 14.8892 5.44342 15.135 5.19732Z" fill="white"/>
</svg>
