<svg width="28" height="28" viewBox="0 0 28 28" fill="none" xmlns="http://www.w3.org/2000/svg">
<path d="M20.4166 20.4168L25.6666 25.6668M23.3333 12.8335C23.3333 10.0487 22.227 7.37801 20.2579 5.40887C18.2887 3.43974 15.618 2.3335 12.8333 2.3335C10.0485 2.3335 7.37776 3.43974 5.40863 5.40887C3.4395 7.37801 2.33325 10.0487 2.33325 12.8335C2.33325 15.6183 3.4395 18.289 5.40863 20.2581C7.37776 22.2272 10.0485 23.3335 12.8333 23.3335C15.618 23.3335 18.2887 22.2272 20.2579 20.2581C22.227 18.289 23.3333 15.6183 23.3333 12.8335Z" stroke="#4C5BD4" stroke-width="1.75" stroke-linecap="round" stroke-linejoin="round"/>
<path d="M7.58325 16.3335L9.73225 9.8865C9.7862 9.72561 9.88933 9.58573 10.0271 9.48663C10.1648 9.38753 10.3302 9.33422 10.4999 9.33422C10.6696 9.33422 10.835 9.38753 10.9728 9.48663C11.1105 9.58573 11.2136 9.72561 11.2676 9.8865L13.4166 16.3335M16.9166 9.3335V16.3335M8.74992 14.0002H12.2499" stroke="#4C5BD4" stroke-width="1.75" stroke-linecap="round" stroke-linejoin="round"/>
</svg>
