<svg width="19" height="20" viewBox="0 0 19 20" fill="none" xmlns="http://www.w3.org/2000/svg">
<path fill-rule="evenodd" clip-rule="evenodd" d="M1.06176 5.66957C2.48796 2.24494 5.82961 0.0102816 9.53934 0.000372992C13.5375 -0.0206814 17.0926 2.5403 18.339 6.33934C19.5853 10.1384 18.2381 14.3076 15.0044 16.6591C11.7707 19.0105 7.38925 19.007 4.15934 16.6504L1.27934 19.5304C0.986522 19.8228 0.512158 19.8228 0.21934 19.5304C-0.0731134 19.2376 -0.0731134 18.7632 0.21934 18.4704L3.00934 15.6804C0.403243 13.0402 -0.364444 9.09421 1.06176 5.66957ZM2.39891 12.1693C3.59638 15.055 6.41508 16.9344 9.53934 16.9304V16.8904C13.7796 16.885 17.2219 13.4606 17.2493 9.22037C17.2534 6.09611 15.374 3.27742 12.4883 2.07994C9.60261 0.88247 6.27967 1.54232 4.07048 3.75152C1.86129 5.96071 1.20144 9.28364 2.39891 12.1693Z" fill="black"/>
</svg>
