<svg width="316" height="142" viewBox="0 0 316 142" fill="none" xmlns="http://www.w3.org/2000/svg">
<g clip-path="url(#clip0_12116_146096)">
<path d="M315.986 10.5937C234.812 -31.9451 190.759 64.0148 177.207 114.736L170.814 103.16L162.227 111.466L164.026 116.321C166.948 124.966 176.319 147.631 181.905 140.703V140.464C182.873 139.481 183.583 138.226 184.076 136.749C208.952 68.7294 229.735 37.0813 248.106 22.4751C254.627 16.2826 262.602 11.5927 272.263 8.87627C255.846 11.5927 226.353 22.2274 201.461 58.3424C199.056 61.5626 196.635 65.2699 194.455 68.7294C220.3 23.7054 253.183 -17.8508 315.986 10.5937Z" fill="#3DB3F7"/>
<g clip-path="url(#clip1_12116_146096)">
<path d="M249.396 106.047C253.041 106.047 255.788 106 259.288 106.5C259.641 106.631 260.406 106.826 260.788 107C261.171 107.174 261.506 107.17 261.788 107.5C264.788 111 268.28 113.782 271.169 117.141C272.957 119.215 274.717 121.312 276.512 123.379C276.706 123.6 276.836 124.029 277.239 123.915C277.693 123.769 277.563 123.305 277.563 122.967C277.563 119.09 277.563 115.212 277.563 111.334C277.574 111.012 277.513 110.692 277.387 110.396C277.26 110.1 277.07 109.835 276.83 109.621C275.918 108.764 275.045 107.865 274.152 106.988C273.944 106.784 273.72 106.563 273.879 106.261C274.009 106.021 274.301 106.053 274.528 106.05H280.738C281.345 106.05 281.569 106.294 281.267 106.878C281.215 107.031 281.153 107.181 281.082 107.326C279.611 109.38 279.514 111.701 279.543 114.142C279.621 120.958 279.543 127.797 279.592 134.623C279.592 135.694 279.267 136.025 278.216 135.996C275.827 135.928 273.435 135.95 271.042 135.996C270.703 136.018 270.365 135.951 270.059 135.802C269.754 135.653 269.493 135.427 269.303 135.145C266.122 131.078 262.711 127.196 259.41 123.23C257.248 120.633 255.141 117.978 252.918 115.417C252.421 114.843 251.883 114.301 251.344 113.765C251.211 113.636 250.983 113.483 250.834 113.512C250.51 113.571 250.604 113.892 250.604 114.116V131.062C250.604 132.133 251.513 132.666 252.227 133.198C253.015 133.782 253.639 134.519 254.356 135.162C254.521 135.308 254.791 135.486 254.661 135.752C254.531 136.019 254.245 135.957 254.012 135.957H247.708C247.121 135.957 246.848 135.746 247.163 135.142C247.182 135.107 247.203 135.073 247.228 135.042C248.987 132.601 249.033 129.826 248.987 126.96C248.89 121.146 248.906 115.327 248.987 109.51C249.01 108.082 248.101 107.439 247.3 106.628C247.02 106.349 246.741 106.547 246.456 106.774C245.254 107.723 244.129 108.766 243.093 109.893C241.973 111.104 241.795 112.74 241.292 114.207C239.669 118.965 237.63 123.561 236.163 128.371C235.482 130.605 234.493 132.277 233.788 134.5C233.288 135 233.441 135.142 232.788 135.5C229.793 135.481 227.288 135.5 224.288 135.042C223.288 134.542 222.788 134.5 222.288 133.5C221.288 132 221.002 131.335 220.213 129.572C217.727 124.025 215.994 118.189 213.608 112.613C212.777 110.636 212.362 108.299 210.434 106.875C210.322 106.815 210.238 106.713 210.201 106.591C210.163 106.469 210.176 106.338 210.236 106.225C210.379 105.985 210.661 106.027 210.901 106.027H226.215C226.517 106.027 226.942 105.911 227.056 106.3C227.156 106.625 226.832 106.871 226.582 107.082C225.124 108.325 225.043 108.381 225.932 110.052C227.643 113.275 228.614 116.781 229.948 120.143C231.074 122.983 232.07 125.875 233.362 128.651C233.485 128.913 233.589 129.212 233.907 129.228C234.303 129.248 234.268 128.868 234.352 128.618C235.852 124.278 237.312 119.923 238.873 115.603C239.318 114.369 239.915 113.191 240.324 111.935C240.87 110.257 240.837 109.903 239.351 108.913C238.565 108.387 237.987 107.667 237.306 107.043C237.072 106.829 236.747 106.589 236.945 106.238C237.143 105.888 237.526 106.027 237.841 106.027H249.39L249.396 106.047Z" fill="white"/>
</g>
<path d="M214.415 107.503C221.361 107.712 219.397 134.16 232.889 134.503" stroke="#451DA0"/>
<path d="M251.387 111.019C266.686 109.796 272.884 133.27 278.887 129.519" stroke="#451DA0"/>
</g>
<g clip-path="url(#clip2_12116_146096)">
<path d="M161.183 110.597C160.74 117.797 160.005 123.61 158.972 128.043C158.286 130.909 155.646 133.485 151.062 135.755C146.058 138.191 140.303 139.405 133.797 139.405C123.038 139.405 114.079 134.343 106.92 124.229C99.6555 113.949 96.0234 100.78 96.0234 84.7038C96.0234 68.3141 99.7766 54.674 107.275 43.7999C114.507 33.3138 123.24 28.0625 133.483 28.0625C140.747 28.0625 146.841 29.4414 151.78 32.1991C156.163 34.6349 158.439 36.9055 158.617 39.0192C158.996 43.1311 159.182 49.8108 159.182 59.0666C159.182 60.5776 158.31 61.4776 156.559 61.7418C155.219 61.9564 154.404 61.3124 154.089 59.7932C152.273 50.5456 149.851 44.1301 146.816 40.5632C143.782 36.9963 139.237 35.2046 133.176 35.2046C125.573 35.2046 119.366 39.1843 114.571 47.1356C109.365 55.7887 106.758 67.6371 106.758 82.6809C106.758 97.6091 109.503 109.68 114.983 118.878C120.326 127.911 127.163 132.428 135.484 132.428C140.9 132.428 145.162 130.587 148.277 126.912C151.256 123.395 153.693 117.632 155.574 109.623C156.123 107.294 157.358 106.46 159.271 107.104C160.651 107.591 161.288 108.756 161.183 110.597Z" fill="#3DB3F7"/>
</g>
<g clip-path="url(#clip3_12116_146096)">
<path d="M1.63729 18.5H31.2521L32.9325 26.3706H31.2521C30.0601 24.311 28.8106 22.8104 27.5036 21.8542C26.1966 20.898 24.9615 20.3242 23.8125 20.133C22.6635 19.9417 21.1412 19.824 19.2884 19.7946V46.9223C19.2884 47.9668 19.4464 48.776 19.7767 49.3203C20.1071 49.8646 20.6385 50.2471 21.3853 50.4531C22.1321 50.659 23.1662 50.7914 24.5019 50.8355V52.1449H8.15773V50.8355C9.50777 50.8061 10.5419 50.7031 11.2743 50.5119C11.9924 50.3354 12.5382 49.9529 12.9116 49.3644C13.2707 48.7907 13.4574 47.8786 13.4574 46.6281V19.8093C11.7626 19.824 10.2977 20.0006 9.06255 20.3242C7.81304 20.6479 6.77896 21.0892 5.94595 21.6482C5.11294 22.2073 4.40919 22.7957 3.84907 23.4283C3.30331 24.0609 2.48466 25.0318 1.4075 26.3706H0L1.63729 18.5ZM5.96031 19.8093H2.18305L1.27824 23.8696C2.06816 22.8104 2.75754 22.016 3.34639 21.5011C3.9496 20.9715 4.81134 20.4125 5.96031 19.8093ZM15.6979 46.1132V22.6486C15.6979 21.7218 15.5973 21.0304 15.3819 20.5743C15.1665 20.1182 14.7787 19.8534 14.2042 19.8093V46.937C14.2042 47.9227 14.0893 48.7171 13.8595 49.3056C13.6297 49.894 13.1989 50.4089 12.5526 50.8503H13.0696C14.2042 50.8503 14.9223 50.4825 15.2383 49.7469C15.5399 49.0261 15.6979 47.805 15.6979 46.1132ZM30.2899 23.6343L29.2414 19.8093H24.861C26.0387 20.1918 27.0297 20.6773 27.8196 21.2952C28.6095 21.8983 29.4281 22.678 30.2899 23.6343Z" fill="white"/>
</g>
<g clip-path="url(#clip4_12116_146096)">
<path d="M29.4453 36.089C29.4453 34.6419 29.5803 33.2545 29.8654 31.9566C30.1355 30.6437 30.5406 29.4055 31.0807 28.2269C31.6058 27.0484 32.281 25.9444 33.0911 24.915C33.9013 23.8856 34.8015 22.9756 35.7767 22.1849C36.827 21.3345 37.9672 20.6334 39.1825 20.0814C40.3978 19.5294 41.7181 19.1415 43.1434 18.8879C44.5537 18.6193 46.0691 18.5 47.7044 18.5C50.4351 18.5 52.9256 18.9625 55.1761 19.8725C57.4266 20.7975 59.3471 22.0655 60.9374 23.6917C62.5128 25.3178 63.7281 27.1975 64.5683 29.316C65.4084 31.4344 65.8285 33.6722 65.8285 36.0294C65.8285 38.5655 65.3634 40.9227 64.4332 43.1008C63.503 45.2938 62.1827 47.1885 60.4723 48.8146C58.7619 50.4407 56.7515 51.6939 54.456 52.589C52.1604 53.4841 49.6699 53.9317 47.0143 53.9317C44.5087 53.9317 42.1832 53.4991 40.0077 52.6189C37.8322 51.7387 35.9568 50.5153 34.3964 48.934C32.8361 47.3526 31.6208 45.4579 30.7656 43.25C29.8804 41.042 29.4453 38.655 29.4453 36.089ZM38.4774 21.1853C35.7767 22.8264 33.7363 24.9299 32.341 27.4959C30.9457 30.0619 30.2405 32.9412 30.2405 36.1487C30.2405 38.8042 30.6906 41.236 31.6058 43.4439C32.521 45.6519 33.8563 47.5316 35.6267 49.113C37.3971 50.6794 39.5876 51.9028 42.1982 52.7531C39.0175 51.1419 36.4819 48.919 34.6065 46.0994C32.7311 43.2798 31.7858 39.8187 31.7858 35.7161C31.7858 33.6722 32.0409 31.8223 32.521 30.1813C33.0161 28.5402 33.7663 26.9887 34.7565 25.5267C35.7617 24.0497 36.992 22.6026 38.4774 21.1853ZM36.1818 33.523C36.1818 36.3277 36.4669 38.9087 37.052 41.2658C37.6372 43.6229 38.4774 45.6519 39.5576 47.3526C40.6378 49.0533 41.9281 50.3512 43.4135 51.2463C44.8988 52.1415 46.5042 52.589 48.2146 52.589C49.6699 52.589 51.0652 52.2757 52.3705 51.6641C53.6758 51.0524 54.8311 50.1125 55.8213 48.8743C56.8115 47.636 57.5767 46.0994 58.1168 44.2644C58.6569 42.4294 58.927 40.311 58.927 37.8942C58.927 35.2536 58.6119 32.8069 57.9968 30.5542C57.3666 28.3015 56.4964 26.3919 55.3862 24.8255C54.2759 23.259 52.9706 22.0357 51.4553 21.1704C49.9399 20.3052 48.3196 19.8725 46.5942 19.8725C45.0939 19.8725 43.6985 20.2007 42.4082 20.8422C41.1029 21.4837 40.0077 22.4087 39.0925 23.6171C38.1773 24.7957 37.4571 26.2428 36.947 27.9136C36.4369 29.5845 36.1818 31.4643 36.1818 33.523ZM51.1702 20.2007C53.0006 21.1704 54.561 22.4982 55.8513 24.1989C57.1416 25.8996 58.1168 27.9435 58.7619 30.3155C59.4071 32.6876 59.7372 35.2984 59.7372 38.1329C59.7372 40.8332 59.3621 43.1605 58.6269 45.1446C57.8917 47.1288 56.8415 48.8743 55.5062 50.3811C56.8565 49.3815 57.9518 48.2477 58.8069 46.9796C59.6621 45.7115 60.2923 44.2794 60.6974 42.6681C61.1025 41.0569 61.3125 39.2518 61.3125 37.2378C61.3125 34.3436 60.9074 31.703 60.1122 29.2712C59.3021 26.8544 58.1468 24.8404 56.6015 23.259C55.0561 21.6777 53.2557 20.6483 51.1702 20.2007Z" fill="white"/>
</g>
<g clip-path="url(#clip5_12116_146096)">
<path d="M73.3842 36.8745V46.9959C73.3842 47.9521 73.5128 48.6877 73.7845 49.2026C74.0562 49.7175 74.4279 50.0853 74.8854 50.3059C75.3429 50.5266 76.0006 50.659 76.8585 50.7179C77.702 50.7767 78.5027 50.8356 79.2176 50.865V52.1743H62.375V50.865C63.6332 50.8356 64.5625 50.762 65.1916 50.6443C65.8207 50.5266 66.3068 50.3207 66.6786 49.997C67.036 49.6734 67.2934 49.2761 67.4221 48.7612C67.5507 48.2611 67.6222 47.5696 67.6222 46.7017V25.6791C67.6222 23.9285 67.5507 22.6927 67.4078 21.9572C67.2648 21.2216 66.8216 20.6773 66.0924 20.3389C65.3346 19.9858 64.105 19.8093 62.375 19.8093V18.5H78.3311C79.046 18.5 80.7474 18.6324 83.4354 18.8825C84.3075 18.9561 85.2226 19.2209 86.2091 19.6769C87.1814 20.1182 88.1107 20.7214 88.9686 21.5011C89.8264 22.2808 90.5127 23.1929 91.0417 24.2521C91.5707 25.3114 91.8281 26.4588 91.8281 27.6946C91.8281 29.0775 91.5564 30.3279 91.0274 31.446C90.4984 32.5641 89.6691 33.5203 88.5682 34.3294C87.4673 35.1385 86.0661 35.7711 84.3933 36.2125C82.7205 36.6538 80.7617 36.8745 78.5313 36.8745H73.3842ZM68.3657 25.3996V47.8344C68.3657 49.3497 67.7938 50.3501 66.6786 50.865H67.2791C68.9948 50.865 69.8527 50.0264 69.8527 48.364V26.5177C69.8527 24.5611 69.8384 23.2812 69.8241 22.678C69.7812 22.0749 69.6811 21.56 69.5095 21.1186C69.3379 20.6773 69.0091 20.3831 68.5516 20.1771C68.094 19.9711 67.3935 19.8387 66.4498 19.7652C67.0646 20.0741 67.5078 20.4125 67.7509 20.795C67.994 21.1775 68.1655 21.7218 68.237 22.4132C68.3228 23.1194 68.3657 24.105 68.3657 25.3996ZM73.3842 35.5652H76.6297C78.5885 35.5652 80.2184 35.3151 81.5195 34.8296C82.8206 34.3441 83.8214 33.5203 84.5077 32.3728C85.2083 31.2253 85.5514 29.6659 85.5514 27.7387C85.5514 24.8259 84.5935 22.6486 82.7062 21.2069C81.9484 20.6331 81.1764 20.2654 80.4043 20.0888C79.6322 19.9123 78.6743 19.824 77.5305 19.824C76.2151 19.824 75.2714 20.0153 74.6852 20.3978C74.1276 20.7655 73.7559 21.3393 73.6129 22.1043C73.4699 22.8693 73.3842 24.002 73.3842 25.4879V35.5652ZM82.2773 35.3004C84.136 35.0208 85.5228 34.2559 86.4236 33.0348C87.3386 31.8138 87.7962 30.0778 87.7962 27.827C87.7962 25.4585 87.3386 23.6784 86.4093 22.4868C85.4799 21.2952 84.0931 20.5155 82.2344 20.1182C83.1208 20.5743 83.8643 21.1775 84.4791 21.9277C85.0939 22.678 85.5657 23.546 85.866 24.5464C86.1805 25.5467 86.3235 26.6354 86.3235 27.8123C86.3378 31.6225 84.9795 34.1087 82.2773 35.3004Z" fill="white"/>
</g>
<defs>
<clipPath id="clip0_12116_146096">
<rect width="153.759" height="142" fill="white" transform="translate(162.227)"/>
</clipPath>
<clipPath id="clip1_12116_146096">
<rect width="69.6214" height="30" fill="white" transform="translate(210.18 106)"/>
</clipPath>
<clipPath id="clip2_12116_146096">
<rect width="65.1681" height="111.342" fill="white" transform="translate(96.0234 28.0625)"/>
</clipPath>
<clipPath id="clip3_12116_146096">
<rect width="32.9182" height="33.6743" fill="white" transform="translate(0 18.5)"/>
</clipPath>
<clipPath id="clip4_12116_146096">
<rect width="36.3832" height="35.4466" fill="white" transform="translate(29.4453 18.5)"/>
</clipPath>
<clipPath id="clip5_12116_146096">
<rect width="29.4531" height="33.6743" fill="white" transform="translate(62.375 18.5)"/>
</clipPath>
</defs>
</svg>
