<svg width="28" height="28" viewBox="0 0 28 28" fill="none" xmlns="http://www.w3.org/2000/svg">
<rect x="0.5" y="0.5" width="27" height="27" rx="13.5" fill="white"/>
<rect x="0.5" y="0.5" width="27" height="27" rx="13.5" stroke="#999999"/>
<path d="M12.9187 14.5059C12.7616 14.3717 12.6733 14.1897 12.6733 14C12.6733 13.8103 12.7616 13.6283 12.9187 13.4941L16.7614 10.2126C16.9141 10.0777 16.9985 9.89694 16.9966 9.70932C16.9947 9.52171 16.9066 9.34224 16.7512 9.20958C16.5958 9.07691 16.3856 9.00166 16.1658 9.00003C15.9461 8.9984 15.7344 9.07052 15.5763 9.20086L11.7362 12.4823C11.2648 12.8849 11 13.4308 11 14C11 14.5692 11.2648 15.1151 11.7362 15.5177L15.5797 18.7991C15.7377 18.9295 15.9494 19.0016 16.1692 19C16.3889 18.9983 16.5991 18.9231 16.7545 18.7904C16.9099 18.6578 16.9981 18.4783 17 18.2907C17.0019 18.1031 16.9174 17.9223 16.7647 17.7874L12.9187 14.5059Z" fill="#999999"/>
</svg>
