<svg width="28" height="28" viewBox="0 0 28 28" fill="none" xmlns="http://www.w3.org/2000/svg">
<rect x="0.5" y="0.5" width="27" height="27" rx="13.5" fill="white"/>
<rect x="0.5" y="0.5" width="27" height="27" rx="13.5" stroke="#999999"/>
<path d="M16.2651 12.4687L12.4255 9.18492C12.2662 9.06164 12.0576 8.99552 11.8429 9.00024C11.6281 9.00495 11.4238 9.08015 11.2721 9.21027C11.1204 9.34038 11.0329 9.51543 11.0279 9.69919C11.0228 9.88295 11.1005 10.0613 11.2449 10.1974L15.082 13.4812C15.2388 13.6155 15.327 13.7976 15.327 13.9875C15.327 14.1774 15.2388 14.3595 15.082 14.4937L11.2449 17.7776C11.088 17.9119 10.9999 18.0941 11 18.2841C11.0001 18.474 11.0883 18.6561 11.2453 18.7904C11.4023 18.9247 11.6152 19.0001 11.8372 19C12.0591 18.9999 12.2719 18.9244 12.4288 18.7901L16.2651 15.5062C16.7356 15.1034 17 14.5571 17 13.9875C17 13.4179 16.7356 12.8716 16.2651 12.4687Z" fill="#9F9F9F"/>
</svg>
