<svg width="54" height="45" viewBox="0 0 54 45" fill="none" xmlns="http://www.w3.org/2000/svg">
<path d="M11.5514 45H24.0051L24.994 40.5554H30.5631L31.552 45H44.0057L45.4102 38.682C53.5215 31.8796 55.8327 20.0371 50.357 10.5523C49.8533 9.68566 49.3051 8.86489 48.7125 8.09006C48.831 7.44411 48.8903 6.78409 48.8903 6.11C48.89 3.77581 48.1546 1.50099 46.7885 -0.391673C45.4224 -2.28434 43.4949 -3.69872 41.2796 -4.43412C39.0643 -5.16953 36.6736 -5.18861 34.4469 -4.48865C32.2201 -3.78869 30.2703 -2.40526 28.8742 -0.534636C25.8874 -0.347964 22.874 0.358723 19.9739 1.58542L17.9294 2.45212L19.6583 6.54335L21.7051 5.67665C23.3521 4.97739 25.0748 4.47176 26.8385 4.16994C26.7245 4.80107 26.6674 5.44776 26.6674 6.11C26.6674 8.42926 27.3931 10.6904 28.7428 12.5765C30.0924 14.4626 31.9985 15.879 34.1937 16.6274C36.3889 17.3757 38.7633 17.4183 40.984 16.7494C43.2046 16.0804 45.1603 14.7333 46.5769 12.8969C48.6816 16.6077 49.3817 20.9517 48.5494 25.136C47.7171 29.3202 45.408 33.0656 42.0434 35.6886L41.4145 36.1797L40.4412 40.5577H35.1166L34.1299 36.1131H21.4273L20.4406 40.5577H15.116L13.6293 33.8686L12.5159 33.4419C10.1514 32.5352 6.8202 30.6196 4.44457 28.4862V18.3326H6.81353L11.3625 10.7546L9.87806 7.04114C11.6692 7.27225 13.7337 8.1545 15.6582 10.2723L17.1538 11.9168L20.4428 8.92564L18.9472 7.28114C14.7404 2.65434 9.68028 2.01433 6.16462 2.83435L3.64233 3.42103L6.41574 10.3546L4.2979 13.888H0V30.3685L0.655574 31.0196C3.2112 33.5619 6.86686 35.8197 9.80028 37.1242L11.5514 45ZM12.2226 20.5549H16.676V16.097H12.2226V20.5549ZM37.7789 12.7769C36.0107 12.7769 34.315 12.0745 33.0647 10.8242C31.8144 9.5739 31.112 7.87816 31.112 6.11C31.112 4.34184 31.8144 2.6461 33.0647 1.39582C34.315 0.145541 36.0107 -0.556859 37.7789 -0.556859C39.547 -0.556859 41.2428 0.145541 42.493 1.39582C43.7433 2.6461 44.4457 4.34184 44.4457 6.11C44.4457 7.87816 43.7433 9.5739 42.493 10.8242C41.2428 12.0745 39.547 12.7769 37.7789 12.7769Z" fill="#285A9B"/>
</svg>
