<svg width="32" height="32" viewBox="0 0 32 32" fill="none" xmlns="http://www.w3.org/2000/svg">
<g clip-path="url(#clip0_12547_9543)">
<path d="M8.53356 16.0002L14.9336 21.3336L23.4669 10.6669M16.0002 30.9336C14.0392 30.9336 12.0973 30.5473 10.2855 29.7968C8.47369 29.0464 6.82745 27.9464 5.44077 26.5597C4.05408 25.173 2.9541 23.5268 2.20363 21.715C1.45316 19.9032 1.06689 17.9613 1.06689 16.0002C1.06689 14.0392 1.45316 12.0973 2.20363 10.2855C2.9541 8.47369 4.05408 6.82745 5.44077 5.44077C6.82745 4.05408 8.47369 2.9541 10.2855 2.20363C12.0973 1.45316 14.0392 1.06689 16.0002 1.06689C19.9608 1.06689 23.7591 2.64022 26.5597 5.44077C29.3602 8.24131 30.9336 12.0397 30.9336 16.0002C30.9336 19.9608 29.3602 23.7591 26.5597 26.5597C23.7591 29.3602 19.9608 30.9336 16.0002 30.9336Z" stroke="#008000" stroke-width="2.13333"/>
</g>
<defs>
<clipPath id="clip0_12547_9543">
<rect width="32" height="32" fill="white"/>
</clipPath>
</defs>
</svg>
