<svg width="29" height="26" viewBox="0 0 29 26" fill="none" xmlns="http://www.w3.org/2000/svg">
<path d="M12.5769 19.2174L10.6538 24M16.4231 19.2174L18.3462 24M8.73077 24H20.2692M26.0385 2H2.96154C2.70652 2 2.46195 2.10078 2.28163 2.28016C2.1013 2.45954 2 2.70284 2 2.95652V18.2609C2 18.5146 2.1013 18.7579 2.28163 18.9372C2.46195 19.1166 2.70652 19.2174 2.96154 19.2174H26.0385C26.2935 19.2174 26.538 19.1166 26.7184 18.9372C26.8987 18.7579 27 18.5146 27 18.2609V2.95652C27 2.70284 26.8987 2.45954 26.7184 2.28016C26.538 2.10078 26.2935 2 26.0385 2Z" stroke="white" stroke-width="2.5" stroke-linecap="round" stroke-linejoin="round"/>
</svg>
