<svg width="27" height="32" viewBox="0 0 27 32" fill="none" xmlns="http://www.w3.org/2000/svg">
<path d="M10.2493 28.5208H16.0827C16.0827 30.125 14.7702 31.4375 13.166 31.4375C11.5618 31.4375 10.2493 30.125 10.2493 28.5208ZM26.291 25.6042V27.0625H0.0410156V25.6042L2.95768 22.6875V13.9375C2.95768 9.41667 5.87435 5.47917 10.2493 4.16667V3.72917C10.2493 2.125 11.5618 0.8125 13.166 0.8125C14.7702 0.8125 16.0827 2.125 16.0827 3.72917V4.16667C20.4577 5.47917 23.3743 9.41667 23.3743 13.9375V22.6875L26.291 25.6042ZM20.4577 13.9375C20.4577 9.85417 17.2493 6.64583 13.166 6.64583C9.08268 6.64583 5.87435 9.85417 5.87435 13.9375V24.1458H20.4577V13.9375Z" fill="#333333"/>
</svg>
