<svg width="26" height="31" viewBox="0 0 26 31" fill="none" xmlns="http://www.w3.org/2000/svg">
<path d="M23.3907 7.72147L15.8479 0.309706C15.7478 0.211411 15.6289 0.133467 15.4981 0.0803265C15.3673 0.0271862 15.2271 -0.000109044 15.0856 3.27387e-07H2.15508C1.58352 3.27387e-07 1.03536 0.223109 0.631208 0.620245C0.227052 1.01738 0 1.55601 0 2.11765V25.4118C0 25.9734 0.227052 26.512 0.631208 26.9092C1.03536 27.3063 1.58352 27.5294 2.15508 27.5294H21.5508C22.1224 27.5294 22.6705 27.3063 23.0747 26.9092C23.4788 26.512 23.7059 25.9734 23.7059 25.4118V8.47059C23.706 8.3315 23.6782 8.19376 23.6241 8.06522C23.5701 7.93668 23.4907 7.81988 23.3907 7.72147ZM16.1631 3.61456L20.0274 7.41177H16.1631V3.61456ZM21.5508 25.4118H2.15508V2.11765H14.008V8.47059C14.008 8.75141 14.1215 9.02072 14.3236 9.21929C14.5257 9.41786 14.7998 9.52941 15.0856 9.52941H21.5508V25.4118Z" fill="white"/>
<path d="M12.2345 30.5882C11.8139 30.5882 11.454 30.4386 11.1547 30.1394C10.8555 29.8401 10.7056 29.4799 10.7051 29.0588V20.6471C10.7051 20.2265 10.855 19.8666 11.1547 19.5673C11.4545 19.2681 11.8144 19.1182 12.2345 19.1177H15.2933V17.5882C15.2933 17.1677 15.4432 16.8077 15.743 16.5085C16.0427 16.2092 16.4026 16.0593 16.8227 16.0588H19.8815C20.3021 16.0588 20.6623 16.2087 20.9621 16.5085C21.2618 16.8082 21.4115 17.1682 21.411 17.5882V19.1177H24.4698C24.8904 19.1177 25.2505 19.2675 25.5503 19.5673C25.8501 19.8671 25.9997 20.227 25.9992 20.6471V29.0588C25.9992 29.4794 25.8496 29.8396 25.5503 30.1394C25.2511 30.4391 24.8909 30.5888 24.4698 30.5882H12.2345ZM16.8227 19.1177H19.8815V17.5882H16.8227V19.1177Z" fill="white"/>
</svg>
