<svg width="24" height="27" viewBox="0 0 24 27" fill="none" xmlns="http://www.w3.org/2000/svg">
<path d="M13.375 1V6.4127C13.375 6.77158 13.5199 7.11577 13.7777 7.36954C14.0356 7.62331 14.3853 7.76587 14.75 7.76587H20.25" stroke="white" stroke-width="2" stroke-linecap="round" stroke-linejoin="round"/>
<path d="M7.875 25.3571H3.75C3.02065 25.3571 2.32118 25.072 1.80546 24.5645C1.28973 24.0569 1 23.3686 1 22.6508V3.70635C1 2.98858 1.28973 2.30021 1.80546 1.79267C2.32118 1.28513 3.02065 1 3.75 1H13.375L20.25 7.76587V12.502M6.5 9.11905H7.875M6.5 14.5317H9.9375M6.5 19.9444H7.875" stroke="white" stroke-width="2" stroke-linecap="round" stroke-linejoin="round"/>
<path d="M13.375 25.3571V19.9444C13.375 19.2266 13.6647 18.5382 14.1805 18.0307C14.6962 17.5232 15.3957 17.238 16.125 17.238C16.8543 17.238 17.5538 17.5232 18.0695 18.0307C18.5853 18.5382 18.875 19.2266 18.875 19.9444V25.3571M13.375 22.6507H18.875M23 17.238V25.3571" stroke="white" stroke-width="2" stroke-linecap="round" stroke-linejoin="round"/>
</svg>
