<svg width="27" height="24" viewBox="0 0 27 24" fill="none" xmlns="http://www.w3.org/2000/svg">
<path d="M11.8048 12.652C11.5052 12.6386 11.2057 12.6252 10.8925 12.6252C7.59754 12.6252 4.5204 13.5213 1.89258 15.0594C0.694399 15.7549 0 17.0656 0 18.4431V21.9874H12.6081C11.6464 20.6398 11.0654 19.066 10.9243 17.4261C10.7832 15.7863 11.087 14.139 11.8048 12.652Z" fill="white"/>
<path d="M10.8916 11.288C13.8995 11.288 16.3378 8.89277 16.3378 5.93817C16.3378 2.98356 13.8995 0.588379 10.8916 0.588379C7.88369 0.588379 5.44531 2.98356 5.44531 5.93817C5.44531 8.89277 7.88369 11.288 10.8916 11.288Z" fill="white"/>
<path d="M25.5299 16.6379C25.5299 16.3437 25.489 16.0762 25.4482 15.7953L27.0004 14.4445L25.6388 12.1307L23.6645 12.7861C23.2288 12.425 22.7387 12.1441 22.1941 11.9435L21.7856 9.95068H19.0625L18.654 11.9435C18.1094 12.1441 17.6192 12.425 17.1835 12.7861L15.2092 12.1307L13.8477 14.4445L15.3998 15.7953C15.359 16.0762 15.3181 16.3437 15.3181 16.6379C15.3181 16.9322 15.359 17.1996 15.3998 17.4805L13.8477 18.8313L15.2092 21.1451L17.1835 20.4898C17.6192 20.8509 18.1094 21.1317 18.654 21.3324L19.0625 23.3252H21.7856L22.1941 21.3324C22.7387 21.1317 23.2288 20.8509 23.6645 20.4898L25.6388 21.1451L27.0004 18.8313L25.4482 17.4805C25.489 17.1996 25.5299 16.9322 25.5299 16.6379ZM20.424 19.3128C18.9263 19.3128 17.7009 18.1091 17.7009 16.6379C17.7009 15.1667 18.9263 13.963 20.424 13.963C21.9217 13.963 23.1471 15.1667 23.1471 16.6379C23.1471 18.1091 21.9217 19.3128 20.424 19.3128Z" fill="white"/>
</svg>
