<svg width="29" height="25" viewBox="0 0 29 25" fill="none" xmlns="http://www.w3.org/2000/svg">
<path d="M14.3352 15.6655C14.7317 15.6655 15.1244 15.5887 15.4908 15.4395C15.8571 15.2902 16.19 15.0714 16.4704 14.7956C16.7508 14.5198 16.9733 14.1924 17.125 13.8321C17.2768 13.4717 17.3549 13.0855 17.3549 12.6954C17.3549 12.3054 17.2768 11.9192 17.125 11.5588C16.9733 11.1985 16.7508 10.8711 16.4704 10.5953C16.19 10.3195 15.8571 10.1007 15.4908 9.95143C15.1244 9.80217 14.7317 9.72534 14.3352 9.72534C13.5343 9.72534 12.7663 10.0383 12.2 10.5953C11.6337 11.1523 11.3155 11.9077 11.3155 12.6954C11.3155 13.4832 11.6337 14.2386 12.2 14.7956C12.7663 15.3526 13.5343 15.6655 14.3352 15.6655ZM6.57031 24.491V25.0001H22.1001V24.491C22.1001 22.5901 22.1001 21.6397 21.7239 20.9133C21.393 20.2746 20.8651 19.7554 20.2158 19.4299C19.4773 19.0599 18.511 19.0599 16.5784 19.0599H12.092C10.1594 19.0599 9.19312 19.0599 8.45459 19.4299C7.80526 19.7554 7.27734 20.2746 6.94648 20.9133C6.57031 21.6397 6.57031 22.5901 6.57031 24.491Z" fill="white"/>
<path d="M3.42465 11.053C3.32304 10.5828 3.8878 10.2621 4.251 10.5837L4.76623 11.04C4.92874 11.1839 5.16575 11.2091 5.35372 11.1023L5.94643 10.7657C6.36849 10.5261 6.85786 10.9633 6.65907 11.4025L6.3843 12.0095C6.2951 12.2065 6.34573 12.4389 6.50946 12.5839L7.01554 13.0321C7.37939 13.3543 7.11702 13.9452 6.63234 13.8951L5.94079 13.8236C5.72531 13.8014 5.52056 13.9176 5.43243 14.1123L5.1496 14.7371C4.95138 15.175 4.29989 15.1031 4.19809 14.632L4.0565 13.9768C4.0107 13.7649 3.83145 13.6056 3.61335 13.583L2.94149 13.5136C2.45543 13.4633 2.31515 12.8279 2.73721 12.5882L3.32993 12.2516C3.5179 12.1448 3.61426 11.9304 3.5688 11.72L3.42465 11.053Z" fill="white"/>
<path d="M13.861 1.76239C14.0121 1.30483 14.6594 1.30483 14.8105 1.76239L15.027 2.41771C15.0947 2.62254 15.286 2.76088 15.5018 2.76088H16.1845C16.6708 2.76088 16.8709 3.3849 16.4752 3.66768L15.9372 4.05216C15.759 4.17947 15.6844 4.40788 15.7531 4.6158L15.962 5.24803C16.1137 5.70723 15.59 6.09285 15.1965 5.81167L14.6265 5.40431C14.4526 5.28005 14.2189 5.28005 14.045 5.40431L13.475 5.81167C13.0815 6.09285 12.5578 5.70723 12.7095 5.24803L12.9184 4.6158C12.9871 4.40788 12.9125 4.17947 12.7343 4.05216L12.1963 3.66768C11.8006 3.3849 12.0006 2.76088 12.487 2.76088H13.1697C13.3854 2.76088 13.5768 2.62254 13.6445 2.41772L13.861 1.76239Z" fill="white"/>
<path d="M24.6536 10.3113C25.0168 9.98965 25.5815 10.3104 25.4799 10.7806L25.3358 11.4476C25.2903 11.658 25.3867 11.8724 25.5746 11.9792L26.1674 12.3158C26.5894 12.5554 26.4491 13.1909 25.9631 13.2412L25.2912 13.3106C25.0731 13.3332 24.8939 13.4924 24.8481 13.7044L24.7065 14.3596C24.6047 14.8306 23.9532 14.9026 23.755 14.4647L23.4721 13.8399C23.384 13.6452 23.1793 13.5289 22.9638 13.5512L22.2722 13.6227C21.7875 13.6728 21.5252 13.0819 21.889 12.7596L22.3951 12.3114C22.5588 12.1664 22.6095 11.9341 22.5203 11.7371L22.2455 11.13C22.0467 10.6909 22.5361 10.2537 22.9581 10.4933L23.5509 10.8299C23.7388 10.9367 23.9758 10.9115 24.1383 10.7676L24.6536 10.3113Z" fill="white"/>
</svg>
