<svg width="20" height="25" viewBox="0 0 20 25" fill="none" xmlns="http://www.w3.org/2000/svg">
<path d="M20 9.17024C20 8.93631 19.9287 8.71983 19.8065 8.54131L19.8085 8.54541C19.7891 8.51738 19.7687 8.49001 19.7474 8.46333L19.7423 8.45718C19.722 8.43261 19.7006 8.40899 19.6782 8.38638L19.668 8.37612L19.6395 8.34637L11.6729 0.322159C11.6503 0.299271 11.6265 0.277691 11.6016 0.257522L11.5792 0.237002L11.5242 0.195963L11.4967 0.176469C11.4772 0.164124 11.4575 0.152152 11.4376 0.14056L11.4121 0.12517C11.3851 0.110803 11.3576 0.097456 11.3296 0.0851566L11.295 0.0707928L11.24 0.0502732L11.2003 0.0379614L11.1382 0.0215456L11.1066 0.0143638C11.0755 0.00849809 11.0443 0.00370736 11.0129 0H1.11117C0.500076 0 0.00407394 0.496576 0 1.11114V23.496C0 24.1147 0.498039 24.6154 1.11117 24.6154H18.8878C19.502 24.6154 19.999 24.1137 19.999 23.496V9.19896L20 9.17024ZM11.9978 3.80947L16.2041 8.05191H11.9978V3.80947ZM2.22132 22.3777V2.23049H9.77848V9.17331C9.77848 9.79198 10.2765 10.2927 10.8896 10.2927H17.7817V22.3777H2.22132Z" fill="white"/>
<path d="M13.7025 17.9004H6.26351C5.96881 17.9004 5.68618 18.0184 5.4778 18.2283C5.26941 18.4382 5.15234 18.7229 5.15234 19.0198C5.15234 19.3167 5.26941 19.6014 5.4778 19.8113C5.68618 20.0212 5.96881 20.1391 6.26351 20.1391H6.2961H6.29407H13.7331C14.0278 20.1391 14.3104 20.0212 14.5188 19.8113C14.7272 19.6014 14.8443 19.3167 14.8443 19.0198C14.8443 18.7229 14.7272 18.4382 14.5188 18.2283C14.3104 18.0184 14.0278 17.9004 13.7331 17.9004H13.7005H13.7025ZM13.7025 13.4241H6.26351C5.96881 13.4241 5.68618 13.542 5.4778 13.7519C5.26941 13.9618 5.15234 14.2466 5.15234 14.5434C5.15234 14.8403 5.26941 15.125 5.4778 15.3349C5.68618 15.5448 5.96881 15.6628 6.26351 15.6628H6.2961H6.29407H13.7331C14.0278 15.6628 14.3104 15.5448 14.5188 15.3349C14.7272 15.125 14.8443 14.8403 14.8443 14.5434C14.8443 14.2466 14.7272 13.9618 14.5188 13.7519C14.3104 13.542 14.0278 13.4241 13.7331 13.4241H13.7005H13.7025Z" fill="white"/>
</svg>
