<svg width="183" height="59" viewBox="0 0 183 59" fill="none" xmlns="http://www.w3.org/2000/svg">
<path d="M35.5241 0.163286C37.9805 -0.140832 40.4712 -0.0194962 42.8859 0.52191C45.3884 1.09506 47.7551 2.14614 49.8545 3.61674C50.1166 3.80762 50.3846 3.99399 50.6385 4.19728L51.394 4.81869L52.1132 5.48478C52.3591 5.70279 52.5823 5.94223 52.8068 6.18187C53.718 7.13808 54.5278 8.18493 55.2236 9.3059C55.9332 10.4257 56.5307 11.6121 57.0074 12.8479L57.3571 13.7779L57.6539 14.7239C57.7581 15.0392 57.8399 15.3585 57.9159 15.6797C57.9895 16.001 58.08 16.3212 58.1383 16.6451L58.3176 17.6178C58.383 17.9424 58.4099 18.269 58.4571 18.5953C58.5556 19.2486 58.5896 19.9029 58.6429 20.5595C58.6632 20.8874 58.665 21.2147 58.672 21.5429L58.6804 22.0352C58.6826 22.1993 58.673 22.3622 58.6697 22.5259L58.6394 23.5078C58.6198 23.834 58.591 24.159 58.5666 24.4851L58.5279 24.9741C58.5131 25.1369 58.4896 25.2978 58.4707 25.4599L58.3491 26.4314C58.3009 26.7536 58.2437 27.0738 58.1873 27.3948C58.1302 27.7156 58.0762 28.0376 58.0003 28.3533L57.7871 29.3055C57.7168 29.6234 57.6229 29.9336 57.5413 30.2482C57.3797 30.8785 57.1761 31.4936 56.9771 32.1113C56.8826 32.4222 56.767 32.7244 56.6558 33.0287L56.3171 33.9398L55.9417 34.8347C55.8164 35.1332 55.6933 35.4329 55.5519 35.7233C55.2782 36.3087 55.0094 36.8979 54.6997 37.4645L54.2476 38.3215L53.7645 39.1604C53.1215 40.2803 52.3996 41.3499 51.6582 42.404C51.2764 42.9225 50.8853 43.4347 50.4896 43.9425L49.8761 44.688C49.6709 44.9359 49.4699 45.1875 49.2524 45.4245L48.6079 46.1425C48.4997 46.2615 48.3939 46.3827 48.2836 46.4997L47.9478 46.8457C47.4996 47.3064 47.057 47.7727 46.5845 48.2092L45.8827 48.8706C45.645 49.0871 45.3995 49.2955 45.1581 49.508C44.9145 49.7182 44.6757 49.9335 44.428 50.139L43.6755 50.7449C41.6587 52.356 39.4886 53.7676 37.196 54.9597C36.6191 55.2522 36.0463 55.5507 35.4529 55.8114C35.1583 55.9455 34.8647 56.0808 34.5675 56.2089L33.6666 56.5738L33.2164 56.7554C33.0656 56.8144 32.9115 56.8662 32.7593 56.9219L31.8424 57.2461C31.5369 57.3536 31.2224 57.4396 30.9131 57.5368C30.6013 57.6278 30.2954 57.7332 29.9792 57.8112C27.468 58.5167 24.8786 58.91 22.2702 58.9821L21.2906 59L20.3091 58.9679C20.1457 58.9604 19.9827 58.9587 19.8193 58.9461L19.3292 58.9044C19.0028 58.8738 18.677 58.8534 18.3517 58.8133C17.0484 58.661 15.7589 58.409 14.4946 58.0597C14.1785 57.9739 13.8672 57.8647 13.5546 57.7679L13.0872 57.6179L12.6268 57.4435C12.321 57.3241 12.0137 57.2132 11.7122 57.086L10.8195 56.6755C10.5203 56.5456 10.2375 56.3755 9.94855 56.2243C9.66183 56.0676 9.37198 55.9202 9.09822 55.7403L8.27021 55.2227C8.00355 55.0355 7.73947 54.8458 7.47797 54.6538C6.44246 53.8832 5.48843 53.0099 4.63059 52.0474C3.77701 51.1069 3.02683 50.0784 2.3928 48.9795C1.14863 46.8402 0.352019 44.4729 0.0507812 42.0199C0.963407 44.1972 2.22371 46.2136 3.78301 47.9913C4.54028 48.8441 5.37783 49.6229 6.28423 50.3171C7.16327 51.0104 8.1074 51.618 9.10354 52.1314C11.0632 53.1461 13.1797 53.8276 15.3656 54.1477C15.9121 54.2148 16.453 54.2905 17.0025 54.3235C17.5467 54.3811 18.0993 54.3803 18.6461 54.399C18.9203 54.4029 19.1964 54.3881 19.4706 54.3842L19.8818 54.375C20.0189 54.3709 20.1567 54.356 20.2938 54.3473L21.116 54.2907L21.937 54.2003L22.3466 54.1553L22.7553 54.0906L23.5709 53.9614L24.3819 53.7944L24.7865 53.7115C24.921 53.6806 25.0547 53.6441 25.1886 53.6108L25.9923 53.4137C26.2592 53.3428 26.5239 53.2612 26.7895 53.1862C27.3226 53.0445 27.8439 52.8519 28.3686 52.6804C30.4572 51.9322 32.4735 50.9976 34.3928 49.8882C36.3193 48.777 38.1453 47.5017 39.85 46.0765L40.4905 45.5426C40.7018 45.362 40.905 45.1716 41.1127 44.9869C41.3185 44.7998 41.5284 44.6174 41.7311 44.427L42.3294 43.8448C42.7375 43.4661 43.1169 43.059 43.5033 42.6589C43.8979 42.266 44.2499 41.8357 44.6257 41.4264C46.0914 39.7622 47.41 37.9753 48.5669 36.0857L48.9992 35.379L49.4028 34.6571C49.68 34.1793 49.9209 33.6848 50.1746 33.1956C50.3052 32.9525 50.4174 32.7018 50.5325 32.4522L50.8796 31.7036L51.1964 30.9438C51.3025 30.6905 51.4138 30.4387 51.504 30.1803C52.2941 28.142 52.8669 26.0269 53.213 23.8697C53.3798 22.799 53.4812 21.7191 53.5166 20.6361C53.519 20.0981 53.5444 19.5553 53.5101 19.0191C53.4949 18.7509 53.5007 18.4783 53.4697 18.2122L53.3962 17.409C53.3742 17.1402 53.3217 16.8783 53.2867 16.6117L53.2313 16.2121C53.2144 16.0784 53.1821 15.9491 53.1584 15.817L53.0048 15.0262L52.8054 14.2476C52.5256 13.2109 52.158 12.1996 51.7065 11.2246L51.5401 10.8557L51.3505 10.4995C51.2209 10.2637 51.1052 10.0173 50.9645 9.78701L50.5383 9.0957C50.4002 8.86099 50.2323 8.64819 50.0806 8.42147C49.9303 8.19362 49.7683 7.97352 49.5955 7.762L49.0817 7.11888L48.528 6.5063C48.3398 6.30454 48.1385 6.11597 47.9463 5.91538C46.3142 4.33955 44.4197 3.05696 42.347 2.12456C40.1702 1.17295 37.8758 0.513405 35.5241 0.163286Z" fill="white"/>
<path d="M37.4445 13.135C39.9296 13.825 42.1895 15.5767 43.7042 17.8896C45.2074 20.2168 45.9414 23.0367 45.9768 25.8096C45.9946 28.5863 45.4504 31.3381 44.3765 33.9014C43.3229 36.4432 41.8539 38.7943 40.0288 40.8594C38.222 42.9249 36.0954 44.6904 33.729 46.0893C31.3602 47.5033 28.7523 48.4768 26.0329 48.9622C25.3531 49.0807 24.6671 49.1615 23.9783 49.2042C23.6358 49.2349 23.2877 49.2326 22.9446 49.247C22.6004 49.2569 22.2533 49.2349 21.9102 49.2277C20.5331 49.1657 19.17 48.9259 17.8551 48.5143C15.243 47.7036 12.8978 46.064 11.5039 43.9064C12.5517 44.5711 13.6789 45.1028 14.8594 45.4893C15.9845 45.8486 17.1514 46.0629 18.3313 46.1267C20.6306 46.2469 22.9314 45.923 25.1068 45.173C27.2694 44.446 29.3178 43.4188 31.1913 42.1217C33.0694 40.8295 34.7789 39.3102 36.2803 37.5988C37.7817 35.9027 39.0541 34.0189 40.065 31.9952C41.0737 29.9886 41.7521 27.8341 42.0743 25.6138C42.0974 25.4754 42.1127 25.3372 42.1241 25.1988L42.1689 24.7825C42.1964 24.5046 42.204 24.2273 42.224 23.9473C42.2241 23.6702 42.2332 23.3898 42.2256 23.1113C42.2052 22.8355 42.2196 22.5505 42.1866 22.2748C42.103 21.15 41.8805 20.0397 41.524 18.969C41.1434 17.8663 40.613 16.8204 39.9475 15.8606C39.2373 14.8466 38.3957 13.9302 37.4445 13.135Z" fill="#F39623"/>
<path d="M39.8232 36.4792L59.2961 58.6909L34.7461 42.1871L39.8232 36.4792Z" fill="#F39623"/>
<path d="M59.5332 42.0648H63.6137V53.5808H67.5101V42.0648H71.6017V38.4595H59.5332V42.0648Z" fill="white"/>
<path d="M77.0236 42.1716H73.3652V53.5801H77.0236V42.1716Z" fill="white"/>
<path d="M76.3846 36.9038C76.0357 36.7096 75.6425 36.6077 75.2427 36.6077C74.8428 36.6077 74.4497 36.7096 74.1008 36.9038C73.7782 37.0915 73.5113 37.3607 73.3269 37.684C73.1471 37.9913 73.0518 38.3402 73.0508 38.6958C73.0514 39.0496 73.1467 39.3969 73.3269 39.7021C73.5125 40.023 73.7793 40.2902 74.1008 40.477C74.4497 40.671 74.8429 40.7729 75.2427 40.7729C75.6425 40.7729 76.0357 40.671 76.3846 40.477C76.7051 40.2911 76.9716 40.026 77.1585 39.7073C77.3399 39.4008 77.4352 39.0515 77.4344 38.6958C77.4333 38.3403 77.3382 37.9913 77.1585 37.684C76.9741 37.3607 76.7071 37.0916 76.3846 36.9038Z" fill="white"/>
<path d="M95.8844 42.4347C95.2093 42.0468 94.4397 41.8513 93.6601 41.8699C92.9136 41.869 92.1762 42.0325 91.5008 42.3487C90.8302 42.654 90.2366 43.1045 89.7635 43.6671C89.4182 43.1 88.9244 42.6369 88.3349 42.3271C87.7116 42.0132 87.0203 41.8562 86.3217 41.8699C85.0013 41.8695 83.7324 42.3788 82.7823 43.2904L82.3493 42.1711H79.5352V53.5795H83.1936V47.3801C83.1915 47.0156 83.2768 46.6559 83.4426 46.3308C83.6024 46.0112 83.8454 45.7399 84.1462 45.5451C84.4482 45.3482 84.8024 45.2451 85.1635 45.2492C85.4047 45.2348 85.646 45.277 85.8678 45.3723C86.0897 45.4677 86.2859 45.6135 86.4407 45.798C86.7365 46.164 86.8844 46.6949 86.8844 47.3909V53.5795H90.5428V47.1542C90.5781 46.8198 90.6852 46.4968 90.8568 46.207C91.023 45.9201 91.2594 45.6795 91.544 45.5076C91.8328 45.3342 92.1647 45.2447 92.502 45.2492C92.7432 45.2348 92.9845 45.277 93.2063 45.3723C93.4281 45.4677 93.6244 45.6135 93.7791 45.798C94.075 46.164 94.223 46.6949 94.2231 47.3909V53.5795H97.8815V46.8959C97.9094 45.947 97.7303 45.0034 97.3565 44.1299C97.0518 43.4283 96.538 42.8366 95.8844 42.4347Z" fill="white"/>
<path d="M105.564 49.4687L103.226 42.1716H99.1992L103.778 53.58H107.349L111.95 42.1716H107.913L105.564 49.4687Z" fill="white"/>
<path d="M116.291 36.9038C115.942 36.7096 115.549 36.6077 115.149 36.6077C114.749 36.6077 114.356 36.7096 114.007 36.9038C113.684 37.0915 113.418 37.3607 113.233 37.684C113.053 37.9913 112.958 38.3402 112.957 38.6958C112.958 39.0496 113.053 39.3969 113.233 39.7021C113.419 40.023 113.686 40.2902 114.007 40.477C114.356 40.671 114.749 40.7729 115.149 40.7729C115.549 40.7729 115.942 40.671 116.291 40.477C116.611 40.2911 116.878 40.026 117.065 39.7073C117.246 39.4008 117.341 39.0515 117.341 38.6958C117.34 38.3403 117.244 37.9913 117.065 37.684C116.88 37.3607 116.613 37.0916 116.291 36.9038Z" fill="white"/>
<path d="M116.928 42.1716H113.27V53.5801H116.928V42.1716Z" fill="white"/>
<path d="M127.579 42.6829C126.628 42.1633 125.556 41.9051 124.472 41.9349C123.432 41.9193 122.409 42.1993 121.523 42.7421C120.658 43.2752 119.953 44.0298 119.482 44.9268C118.989 45.855 118.736 46.8907 118.746 47.9405C118.739 48.9808 119.006 50.005 119.52 50.9108C120.028 51.8137 120.77 52.5646 121.669 53.085C122.608 53.6291 123.678 53.9082 124.764 53.8922C125.552 53.9006 126.335 53.7675 127.075 53.4992C127.762 53.2472 128.396 52.8694 128.942 52.3854L127.276 49.9961C126.972 50.2603 126.626 50.473 126.253 50.6257C125.854 50.7789 125.43 50.8538 125.003 50.8463C124.421 50.8576 123.85 50.6944 123.363 50.3781C122.885 50.06 122.529 49.592 122.351 49.0488H130.122C130.186 48.6465 130.219 48.24 130.22 47.8327C130.241 46.7721 130.011 45.7215 129.549 44.7655C129.116 43.8913 128.43 43.1659 127.579 42.6829ZM122.286 46.692C122.408 46.1549 122.707 45.6737 123.136 45.3251C123.563 45.003 124.088 44.8359 124.624 44.8515C125.146 44.8334 125.658 44.9992 126.069 45.3198C126.482 45.6767 126.765 46.1589 126.875 46.692L122.286 46.692Z" fill="white"/>
<path d="M136.255 45.5887C136.642 45.3573 137.086 45.2363 137.537 45.239C137.931 45.232 138.323 45.3014 138.69 45.4434C139.051 45.5953 139.388 45.7983 139.691 46.0462L141.488 43.4416C140.95 42.9643 140.328 42.5903 139.653 42.3384C138.918 42.0639 138.138 41.9271 137.353 41.9349C136.272 41.9194 135.207 42.1985 134.274 42.7421C133.374 43.2667 132.633 44.021 132.125 44.9268C131.605 45.8465 131.337 46.8855 131.346 47.9405C131.338 48.9844 131.604 50.0122 132.12 50.9216C132.627 51.8245 133.369 52.5754 134.268 53.0958C135.207 53.6398 136.277 53.9189 137.364 53.9029C138.145 53.909 138.922 53.7721 139.653 53.4993C140.33 53.2508 140.952 52.8764 141.488 52.3961L139.691 49.8023C139.386 50.0446 139.05 50.2438 138.69 50.3943C138.323 50.5364 137.931 50.6058 137.537 50.5987C137.089 50.6005 136.649 50.4795 136.265 50.249C135.873 50.0168 135.548 49.6866 135.324 49.2912C135.088 48.8801 134.966 48.4138 134.972 47.9405C134.964 47.4555 135.083 46.977 135.318 46.552C135.539 46.1538 135.862 45.8213 136.255 45.5887Z" fill="white"/>
<path d="M153.035 42.527C152.312 42.123 151.494 41.9186 150.665 41.9352C150.051 41.9436 149.443 42.064 148.873 42.2904C148.279 42.5095 147.728 42.83 147.244 43.2374V37.4363H143.607V53.5803H147.244V47.3809C147.245 47.0109 147.352 46.6489 147.553 46.3371C147.76 46.0052 148.051 45.7326 148.397 45.5459C148.756 45.3482 149.161 45.2462 149.571 45.25C149.842 45.2392 150.111 45.2881 150.36 45.3932C150.609 45.4984 150.831 45.6572 151.011 45.8581C151.372 46.2635 151.552 46.8286 151.552 47.5532V53.5803H155.211V46.8966C155.233 45.9796 155.036 45.0704 154.637 44.2437C154.285 43.5268 153.728 42.9295 153.035 42.527Z" fill="#F39623"/>
<path d="M165.708 43.2806C165.302 42.8419 164.806 42.4948 164.253 42.2628C163.7 42.0307 163.104 41.9191 162.505 41.9354C161.482 41.9288 160.478 42.2045 159.604 42.7318C158.722 43.2569 157.994 44.0028 157.493 44.895C156.715 46.2609 156.5 47.8732 156.893 49.3934C157.285 50.9136 158.255 52.2234 159.598 53.0477C160.473 53.5795 161.48 53.8573 162.505 53.8494C163.094 53.8682 163.681 53.7617 164.226 53.5372C164.771 53.3126 165.262 52.9751 165.665 52.5472L166.066 53.5805H168.88V42.1721H166.174L165.708 43.2806ZM165.059 49.2216C164.843 49.6017 164.526 49.916 164.144 50.1311C163.75 50.3521 163.304 50.4653 162.851 50.4593C162.402 50.4663 161.959 50.3529 161.568 50.1311C161.192 49.9151 160.883 49.6005 160.675 49.2216C160.461 48.8146 160.35 48.3619 160.351 47.9025C160.351 47.4431 160.465 46.9908 160.681 46.5847C160.891 46.1999 161.204 45.8798 161.584 45.6592C161.977 45.4404 162.42 45.3255 162.87 45.3255C163.32 45.3255 163.762 45.4404 164.155 45.6592C164.538 45.8786 164.853 46.1989 165.064 46.5847C165.287 46.9904 165.401 47.4464 165.394 47.9086C165.402 48.3682 165.286 48.8213 165.059 49.2216Z" fill="#F39623"/>
<path d="M178.902 42.1716L176.554 49.318L174.205 42.1716H170.211L174.746 53.5478L173.155 57.4006H177.052L182.951 42.1716H178.902Z" fill="#F39623"/>
</svg>
