<svg width="29" height="31" viewBox="0 0 29 31" fill="none" xmlns="http://www.w3.org/2000/svg">
<path d="M28.2857 24.4335V22.2447H26C25.8599 21.5596 25.5895 20.9081 25.2036 20.3262L26.8246 18.6956L25.2863 17.1481L23.6653 18.7787C23.0868 18.3906 22.4393 18.1186 21.7582 17.9777V15.6783H19.5823V17.9777C18.9013 18.1186 18.2537 18.3906 17.6752 18.7787L16.0542 17.1481L14.5159 18.6956L16.1369 20.3262C15.7511 20.9081 15.4807 21.5596 15.3405 22.2447H13.0548V24.4335H15.3405C15.482 25.1306 15.7583 25.7785 16.1369 26.352L14.5159 27.9826L16.0542 29.5301L17.6752 27.8994C18.2537 28.2876 18.9013 28.5596 19.5823 28.7005V30.9999H21.7582V28.7005C22.4393 28.5596 23.0868 28.2876 23.6653 27.8994L25.2863 29.5301L26.8246 27.9826L25.2036 26.352C25.5895 25.77 25.8599 25.1186 26 24.4335H28.2857ZM20.6703 26.6223C18.8708 26.6223 17.4065 25.1492 17.4065 23.3391C17.4065 21.529 18.8708 20.0559 20.6703 20.0559C22.4697 20.0559 23.934 21.529 23.934 23.3391C23.934 25.1492 22.4697 26.6223 20.6703 26.6223ZM8.70312 4.73438H13.0548V6.92317H8.70312V4.73438Z" fill="white"/>
<path d="M2.17584 28.8112V2.54572H19.5826V12.3953H21.7584V2.54572C21.7584 1.33861 20.7826 0.356934 19.5826 0.356934H2.17584C0.975866 0.356934 0 1.33861 0 2.54572V28.8112C0 30.0183 0.975866 31 2.17584 31H10.8792V28.8112H2.17584Z" fill="white"/>
</svg>
