<svg width="22" height="22" viewBox="0 0 22 22" fill="none" xmlns="http://www.w3.org/2000/svg">
<path fill-rule="evenodd" clip-rule="evenodd" d="M4.50513 5.5672C4.50513 4.12934 5.07631 2.75038 6.09303 1.73366C7.10975 0.716939 8.48872 0.145752 9.92657 0.145752C11.3644 0.145752 12.7434 0.716939 13.7601 1.73366C14.7768 2.75038 15.348 4.12934 15.348 5.5672C15.348 7.00506 14.7768 8.38402 13.7601 9.40074C12.7434 10.4175 11.3644 10.9886 9.92657 10.9886C8.48872 10.9886 7.10975 10.4175 6.09303 9.40074C5.07631 8.38402 4.50513 7.00506 4.50513 5.5672ZM3.22783 13.8859C4.96595 12.8254 7.3297 12.0729 9.92657 12.0729C10.4113 12.0729 10.8883 12.099 11.3535 12.1488C11.5397 12.1688 11.7176 12.2367 11.8699 12.3459C12.0221 12.4551 12.1434 12.6018 12.222 12.7718C12.3006 12.9419 12.3339 13.1293 12.3185 13.316C12.3031 13.5027 12.2396 13.6822 12.1342 13.8371C11.3997 14.9151 11.0081 16.1899 11.0109 17.4944C11.0109 18.4919 11.2353 19.4353 11.6343 20.2778C11.7121 20.4419 11.7474 20.6229 11.7369 20.8042C11.7265 20.9855 11.6707 21.1613 11.5746 21.3154C11.4786 21.4696 11.3453 21.5971 11.1871 21.6863C11.029 21.7756 10.8509 21.8236 10.6693 21.8261C10.4243 21.8294 10.176 21.8315 9.92657 21.8315C7.50969 21.8315 5.22618 21.6797 3.51517 21.2265C2.664 21.001 1.86271 20.6779 1.25551 20.1899C0.612527 19.6738 0.167969 18.9528 0.167969 18.0365C0.167969 17.1832 0.556145 16.3852 1.08311 15.7172C1.61875 15.0396 2.35932 14.4161 3.22783 13.8848V13.8859ZM16.9745 15.3258C16.5431 15.3258 16.1294 15.4972 15.8244 15.8022C15.5194 16.1072 15.348 16.5209 15.348 16.9522C15.348 17.3836 15.5194 17.7973 15.8244 18.1023C16.1294 18.4073 16.5431 18.5787 16.9745 18.5787C17.4058 18.5787 17.8195 18.4073 18.1245 18.1023C18.4295 17.7973 18.6009 17.3836 18.6009 16.9522C18.6009 16.5209 18.4295 16.1072 18.1245 15.8022C17.8195 15.4972 17.4058 15.3258 16.9745 15.3258ZM13.1794 16.9522C13.1799 16.3748 13.312 15.8052 13.5659 15.2866C13.8198 14.768 14.1886 14.3141 14.6443 13.9596C15.1001 13.6051 15.6307 13.3592 16.1958 13.2408C16.761 13.1223 17.3456 13.1344 17.9054 13.276C18.4652 13.4176 18.9852 13.6851 19.426 14.0581C19.8667 14.4311 20.2166 14.8998 20.4488 15.4284C20.6811 15.957 20.7897 16.5316 20.7664 17.1086C20.743 17.6855 20.5883 18.2495 20.3141 18.7576L21.2184 19.663C21.3219 19.763 21.4045 19.8826 21.4614 20.0149C21.5182 20.1472 21.5481 20.2895 21.5493 20.4335C21.5506 20.5774 21.5232 20.7202 21.4686 20.8535C21.4141 20.9867 21.3336 21.1078 21.2318 21.2096C21.13 21.3114 21.0089 21.3919 20.8757 21.4464C20.7424 21.5009 20.5996 21.5284 20.4557 21.5271C20.3117 21.5259 20.1694 21.496 20.0371 21.4391C19.9049 21.3823 19.7852 21.2997 19.6852 21.1961L18.7798 20.2908C18.2017 20.6034 17.5523 20.7606 16.8952 20.7469C16.2381 20.7331 15.5958 20.549 15.0312 20.2124C14.4667 19.8759 13.9992 19.3985 13.6746 18.827C13.35 18.2555 13.1794 17.6095 13.1794 16.9522Z" fill="white"/>
</svg>
