<svg width="22" height="27" viewBox="0 0 22 27" fill="none" xmlns="http://www.w3.org/2000/svg">
<path d="M1.81492 2.40501C2.00094 2.20349 2.22633 2.11548 2.43338 2.11548H15.0904L19.5893 6.9892V24.3409C19.5893 24.6792 19.4641 24.982 19.2743 25.1875C19.0883 25.389 18.8629 25.4771 18.6559 25.4771H2.43338C2.22633 25.4771 2.00094 25.389 1.81492 25.1875C1.62518 24.982 1.5 24.6792 1.5 24.3409V3.25164C1.5 2.91329 1.62518 2.61057 1.81492 2.40501Z" stroke="white" stroke-width="3"/>
<path d="M9.45212 15.7491C9.31377 15.7427 9.17542 15.7363 9.03079 15.7363C7.50898 15.7363 6.08778 16.1634 4.8741 16.8963C4.32071 17.2277 4 17.8523 4 18.5088V20.1978H9.82314C9.37898 19.5556 9.11065 18.8056 9.04547 18.0241C8.9803 17.2427 9.12061 16.4577 9.45212 15.7491Z" fill="white"/>
<path d="M9.03102 15.0988C10.4202 15.0988 11.5464 13.9574 11.5464 12.5494C11.5464 11.1414 10.4202 10 9.03102 10C7.64181 10 6.51562 11.1414 6.51562 12.5494C6.51562 13.9574 7.64181 15.0988 9.03102 15.0988Z" fill="white"/>
<path d="M15.7901 17.6484C15.7901 17.5082 15.7712 17.3807 15.7523 17.2469L16.4692 16.6032L15.8404 15.5005L14.9285 15.8128C14.7273 15.6408 14.5009 15.5069 14.2494 15.4113L14.0607 14.4617H12.803L12.6144 15.4113C12.3628 15.5069 12.1364 15.6408 11.9352 15.8128L11.0234 15.5005L10.3945 16.6032L11.1114 17.2469C11.0926 17.3807 11.0737 17.5082 11.0737 17.6484C11.0737 17.7886 11.0926 17.9161 11.1114 18.0499L10.3945 18.6936L11.0234 19.7963L11.9352 19.484C12.1364 19.656 12.3628 19.7899 12.6144 19.8855L12.803 20.8351H14.0607L14.2494 19.8855C14.5009 19.7899 14.7273 19.656 14.9285 19.484L15.8404 19.7963L16.4692 18.6936L15.7523 18.0499C15.7712 17.9161 15.7901 17.7886 15.7901 17.6484ZM13.4319 18.9231C12.7401 18.9231 12.1742 18.3495 12.1742 17.6484C12.1742 16.9473 12.7401 16.3737 13.4319 16.3737C14.1236 16.3737 14.6896 16.9473 14.6896 17.6484C14.6896 18.3495 14.1236 18.9231 13.4319 18.9231Z" fill="white"/>
</svg>
