<svg width="30" height="29" viewBox="0 0 30 29" fill="none" xmlns="http://www.w3.org/2000/svg">
<path d="M9.22222 9.70987H20.7778M9.22222 15.5922H17.8889M23.6667 2.35693C24.8159 2.35693 25.9181 2.82174 26.7308 3.64911C27.5435 4.47648 28 5.59863 28 6.7687V18.5334C28 19.7035 27.5435 20.8256 26.7308 21.653C25.9181 22.4804 24.8159 22.9452 23.6667 22.9452H16.4444L9.22222 27.3569V22.9452H6.33333C5.18406 22.9452 4.08186 22.4804 3.2692 21.653C2.45655 20.8256 2 19.7035 2 18.5334V6.7687C2 5.59863 2.45655 4.47648 3.2692 3.64911C4.08186 2.82174 5.18406 2.35693 6.33333 2.35693H23.6667Z" stroke="white" stroke-width="2.91667" stroke-linecap="round" stroke-linejoin="round"/>
</svg>
