<svg width="20" height="26" viewBox="0 0 20 26" fill="none" xmlns="http://www.w3.org/2000/svg">
<path d="M9.99982 14.7272C9.14577 14.7272 8.31089 14.4739 7.60077 13.9994C6.89065 13.525 6.33718 12.8505 6.01034 12.0615C5.68351 11.2725 5.598 10.4042 5.76462 9.56657C5.93123 8.72892 6.3425 7.9595 6.94641 7.35559C7.55032 6.75168 8.31974 6.34041 9.15739 6.17379C9.99503 6.00718 10.8633 6.09269 11.6523 6.41952C12.4414 6.74636 13.1158 7.29983 13.5903 8.00995C14.0647 8.72007 14.318 9.55495 14.318 10.409C14.3166 11.5538 13.8612 12.6514 13.0517 13.4609C12.2422 14.2704 11.1447 14.7258 9.99982 14.7272ZM9.99982 7.81809C9.48739 7.81809 8.98646 7.97005 8.56039 8.25474C8.13432 8.53943 7.80224 8.94408 7.60614 9.41751C7.41004 9.89093 7.35873 10.4119 7.4587 10.9145C7.55867 11.4171 7.80543 11.8787 8.16777 12.2411C8.53012 12.6034 8.99178 12.8502 9.49436 12.9501C9.99695 13.0501 10.5179 12.9988 10.9913 12.8027C11.4647 12.6066 11.8694 12.2745 12.1541 11.8484C12.4388 11.4224 12.5907 10.9214 12.5907 10.409C12.59 9.72206 12.3169 9.06345 11.8311 8.57771C11.3454 8.09197 10.6868 7.81878 9.99982 7.81809Z" fill="#194890"/>
<path d="M10 25.091L2.71437 16.4987C2.61313 16.3697 2.51295 16.2398 2.41382 16.1092C1.16993 14.4695 0.49769 12.4673 0.500006 10.4092C0.500006 7.88962 1.5009 5.47326 3.28249 3.69166C5.06408 1.91007 7.48045 0.90918 10 0.90918C12.5196 0.90918 14.9359 1.91007 16.7175 3.69166C18.4991 5.47326 19.5 7.88962 19.5 10.4092C19.502 12.4663 18.8301 14.4675 17.587 16.1066L17.5862 16.1092C17.5862 16.1092 17.3271 16.4494 17.2882 16.4952L10 25.091ZM3.79305 15.0685C3.79305 15.0685 3.99428 15.3345 4.04005 15.3915L10 22.4206L15.9677 15.382C16.0057 15.3345 16.2078 15.0668 16.2087 15.0659C17.2254 13.7265 17.7748 12.0907 17.7727 10.4092C17.7727 8.34772 16.9538 6.3707 15.4961 4.91303C14.0385 3.45536 12.0615 2.63645 10 2.63645C7.93855 2.63645 5.96152 3.45536 4.50386 4.91303C3.04619 6.3707 2.22728 8.34772 2.22728 10.4092C2.22515 12.0918 2.77521 13.7286 3.79305 15.0685Z" fill="#194890"/>
</svg>
