<svg width="20" height="9" viewBox="0 0 20 9" fill="none" xmlns="http://www.w3.org/2000/svg">
<path d="M3.90845 1.65957L1.4889 8.32087H0.5L3.286 1.01202H3.92351L3.90845 1.65957ZM5.93646 8.32087L3.51189 1.65957L3.49683 1.01202H4.13435L6.93038 8.32087H5.93646ZM5.81096 5.61519V6.40832H1.70476V5.61519H5.81096Z" fill="#194890"/>
<path d="M13.2503 4.6815V7.35706C13.16 7.49093 13.0161 7.64152 12.8186 7.80885C12.6212 7.97283 12.3484 8.11673 12.0004 8.24055C11.6557 8.36103 11.2106 8.42126 10.6651 8.42126C10.22 8.42126 9.81008 8.34429 9.43527 8.19035C9.0638 8.03307 8.74086 7.8055 8.46645 7.50766C8.19538 7.20647 7.98454 6.8417 7.83395 6.41334C7.6867 5.98163 7.61308 5.49304 7.61308 4.94755V4.38031C7.61308 3.83483 7.67666 3.3479 7.80383 2.91955C7.93435 2.49119 8.1251 2.12809 8.37609 1.83025C8.62708 1.52906 8.93496 1.30149 9.29974 1.14755C9.66451 0.990265 10.0828 0.911621 10.5547 0.911621C11.1136 0.911621 11.5804 1.00867 11.9552 1.20277C12.3334 1.39352 12.6279 1.6579 12.8387 1.9959C13.0529 2.3339 13.1901 2.71875 13.2503 3.15046H12.2815C12.238 2.88608 12.151 2.64513 12.0205 2.42761C11.8933 2.21008 11.7109 2.03606 11.4733 1.90554C11.2357 1.77168 10.9295 1.70475 10.5547 1.70475C10.2167 1.70475 9.92387 1.76666 9.67622 1.89049C9.42858 2.01431 9.22444 2.19167 9.0638 2.42259C8.90317 2.6535 8.78269 2.93293 8.70238 3.26089C8.62541 3.58886 8.58692 3.95865 8.58692 4.37027V4.94755C8.58692 5.36922 8.63545 5.7457 8.7325 6.07701C8.83289 6.40832 8.97512 6.6911 9.15918 6.92536C9.34324 7.15627 9.56244 7.33196 9.81678 7.45244C10.0745 7.57292 10.3589 7.63315 10.6701 7.63315C11.0148 7.63315 11.2943 7.60471 11.5085 7.54782C11.7226 7.48758 11.89 7.4173 12.0104 7.33698C12.1309 7.25332 12.2229 7.17468 12.2865 7.10105V5.46459H10.5948V4.6815H13.2503Z" fill="#194890"/>
<path d="M19.5 7.53276V8.32087H15.6297V7.53276H19.5ZM15.8255 1.01202V8.32087H14.8567V1.01202H15.8255ZM18.988 4.15442V4.94253H15.6297V4.15442H18.988ZM19.4498 1.01202V1.80515H15.6297V1.01202H19.4498Z" fill="#194890"/>
</svg>
