<svg width="20" height="19" viewBox="0 0 20 19" fill="none" xmlns="http://www.w3.org/2000/svg">
<path d="M1.75 3.25H5.5V2.5C5.5 1.90326 5.73705 1.33097 6.15901 0.90901C6.58097 0.487053 7.15326 0.25 7.75 0.25H12.25C12.8467 0.25 13.419 0.487053 13.841 0.90901C14.2629 1.33097 14.5 1.90326 14.5 2.5V3.25H18.25C18.6478 3.25 19.0294 3.40804 19.3107 3.68934C19.592 3.97064 19.75 4.35218 19.75 4.75V16.75C19.75 17.1478 19.592 17.5294 19.3107 17.8107C19.0294 18.092 18.6478 18.25 18.25 18.25H1.75C1.35217 18.25 0.970644 18.092 0.689341 17.8107C0.408035 17.5294 0.25 17.1478 0.25 16.75V4.75C0.25 4.35218 0.408035 3.97064 0.689341 3.68934C0.970644 3.40804 1.35217 3.25 1.75 3.25ZM13 2.5C13 2.30109 12.921 2.11032 12.7803 1.96967C12.6397 1.82902 12.4489 1.75 12.25 1.75H7.75C7.55109 1.75 7.36032 1.82902 7.21967 1.96967C7.07902 2.11032 7 2.30109 7 2.5V3.25H13V2.5ZM1.75 4.75V8.65094C4.28146 10.0289 7.11783 10.7505 10 10.75C12.882 10.7504 15.7183 10.0291 18.25 8.65188V4.75H1.75ZM1.75 16.75H18.25V10.3412C15.6813 11.5977 12.8595 12.2505 10 12.25C7.14045 12.2501 4.31867 11.5969 1.75 10.3403V16.75ZM12.25 8.5C12.25 8.30109 12.171 8.11032 12.0303 7.96967C11.8897 7.82902 11.6989 7.75 11.5 7.75H8.5C8.30109 7.75 8.11032 7.82902 7.96967 7.96967C7.82902 8.11032 7.75 8.30109 7.75 8.5C7.75 8.69891 7.82902 8.88968 7.96967 9.03033C8.11032 9.17098 8.30109 9.25 8.5 9.25H11.5C11.6989 9.25 11.8897 9.17098 12.0303 9.03033C12.171 8.88968 12.25 8.69891 12.25 8.5Z" fill="black"/>
</svg>
