<svg width="20" height="20" viewBox="0 0 20 20" fill="none" xmlns="http://www.w3.org/2000/svg">
<path d="M5.88935 0.166504C6.06572 0.166504 6.23486 0.236566 6.35958 0.361278C6.48429 0.48599 6.55435 0.655135 6.55435 0.831504V2.07505H13.6955V0.840054C13.6955 0.663685 13.7656 0.49454 13.8903 0.369828C14.015 0.245116 14.1841 0.175054 14.3605 0.175054C14.5369 0.175054 14.706 0.245116 14.8307 0.369828C14.9554 0.49454 15.0255 0.663685 15.0255 0.840054V2.07505H17.6C18.1037 2.07505 18.5869 2.2751 18.9432 2.63122C19.2995 2.98733 19.4997 3.47036 19.5 3.9741V17.2675C19.4997 17.7712 19.2995 18.2542 18.9432 18.6103C18.5869 18.9665 18.1037 19.1665 17.6 19.1665H2.4C1.89625 19.1665 1.41312 18.9665 1.05683 18.6103C0.700541 18.2542 0.500252 17.7712 0.5 17.2675V3.9741C0.500252 3.47036 0.700541 2.98733 1.05683 2.63122C1.41312 2.2751 1.89625 2.07505 2.4 2.07505H5.22435V0.830554C5.2246 0.65435 5.29478 0.485448 5.41946 0.360942C5.54414 0.236436 5.71315 0.166504 5.88935 0.166504ZM1.83 7.5214V17.2675C1.83 17.3423 1.84474 17.4164 1.87339 17.4856C1.90203 17.5547 1.94402 17.6176 1.99695 17.6705C2.04988 17.7234 2.11271 17.7654 2.18187 17.7941C2.25103 17.8227 2.32515 17.8375 2.4 17.8375H17.6C17.6749 17.8375 17.749 17.8227 17.8181 17.7941C17.8873 17.7654 17.9501 17.7234 18.0031 17.6705C18.056 17.6176 18.098 17.5547 18.1266 17.4856C18.1553 17.4164 18.17 17.3423 18.17 17.2675V7.5347L1.83 7.5214ZM6.83365 14.0546V15.6373H5.25V14.0546H6.83365ZM10.7914 14.0546V15.6373H9.20865V14.0546H10.7914ZM14.75 14.0546V15.6373H13.1664V14.0546H14.75ZM6.83365 10.2764V11.8591H5.25V10.2764H6.83365ZM10.7914 10.2764V11.8591H9.20865V10.2764H10.7914ZM14.75 10.2764V11.8591H13.1664V10.2764H14.75ZM5.22435 3.4041H2.4C2.32515 3.4041 2.25103 3.41885 2.18187 3.44749C2.11271 3.47614 2.04988 3.51812 1.99695 3.57105C1.94402 3.62398 1.90203 3.68682 1.87339 3.75597C1.84474 3.82513 1.83 3.89925 1.83 3.9741V6.19235L18.17 6.20565V3.9741C18.17 3.89925 18.1553 3.82513 18.1266 3.75597C18.098 3.68682 18.056 3.62398 18.0031 3.57105C17.9501 3.51812 17.8873 3.47614 17.8181 3.44749C17.749 3.41885 17.6749 3.4041 17.6 3.4041H15.0255V4.28665C15.0255 4.46302 14.9554 4.63217 14.8307 4.75688C14.706 4.88159 14.5369 4.95165 14.3605 4.95165C14.1841 4.95165 14.015 4.88159 13.8903 4.75688C13.7656 4.63217 13.6955 4.46302 13.6955 4.28665V3.4041H6.55435V4.2781C6.55435 4.45447 6.48429 4.62362 6.35958 4.74833C6.23486 4.87304 6.06572 4.9431 5.88935 4.9431C5.71298 4.9431 5.54384 4.87304 5.41912 4.74833C5.29441 4.62362 5.22435 4.45447 5.22435 4.2781V3.4041Z" fill="#194890"/>
</svg>
