<svg width="20" height="18" viewBox="0 0 20 18" fill="none" xmlns="http://www.w3.org/2000/svg">
<path d="M15.7 11.8502H13.8V13.7502H15.7M15.7 8.0502H13.8V9.9502H15.7M17.6 15.6502H10V13.7502H11.9V11.8502H10V9.9502H11.9V8.0502H10V6.1502H17.6M8.1 4.2502H6.2V2.3502H8.1M8.1 8.0502H6.2V6.1502H8.1M8.1 11.8502H6.2V9.9502H8.1M8.1 15.6502H6.2V13.7502H8.1M4.3 4.2502H2.4V2.3502H4.3M4.3 8.0502H2.4V6.1502H4.3M4.3 11.8502H2.4V9.9502H4.3M4.3 15.6502H2.4V13.7502H4.3M10 4.2502V0.450195H0.5V17.5502H19.5V4.2502H10Z" fill="#194890"/>
</svg>
