<svg width="20" height="18" viewBox="0 0 20 18" fill="none" xmlns="http://www.w3.org/2000/svg">
<path fill-rule="evenodd" clip-rule="evenodd" d="M13.4082 4.50833C14.1657 4.2125 14.9997 4.17499 15.7808 4.40163C16.5618 4.62826 17.2463 5.10636 17.7278 5.76174C18.2094 6.41712 18.4611 7.21312 18.444 8.02621C18.4269 8.8393 18.1419 9.62401 17.6333 10.2586C17.1246 10.8931 16.4207 11.342 15.6308 11.5357C14.8409 11.7293 14.0092 11.6567 13.2648 11.3293C12.5203 11.0019 11.9047 10.4379 11.5136 9.72491C11.1224 9.01189 10.9776 8.18968 11.1015 7.38591C11.112 7.31742 11.1089 7.24752 11.0924 7.18022C11.076 7.11291 11.0464 7.04951 11.0054 6.99363C10.9644 6.93776 10.9128 6.8905 10.8536 6.85456C10.7943 6.81862 10.7286 6.7947 10.6601 6.78417C10.5916 6.77364 10.5217 6.7767 10.4544 6.79318C10.3871 6.80966 10.3237 6.83924 10.2678 6.88022C10.212 6.9212 10.1647 6.97279 10.1288 7.03203C10.0928 7.09128 10.0689 7.15702 10.0584 7.22551C9.89925 8.25892 10.0857 9.31596 10.5887 10.2326C11.0917 11.1492 11.8832 11.8742 12.8403 12.2951C13.7975 12.7159 14.8668 12.809 15.8823 12.56C16.8978 12.3111 17.8027 11.7339 18.4567 10.918C19.1106 10.1021 19.477 9.09327 19.499 8.04791C19.5209 7.00256 19.1972 5.97918 18.5781 5.13658C17.959 4.29399 17.0791 3.67929 16.075 3.38787C15.0708 3.09645 13.9986 3.14461 13.0246 3.52487C12.9592 3.54941 12.8993 3.5867 12.8484 3.63457C12.7975 3.68245 12.7566 3.73996 12.7281 3.80376C12.6996 3.86756 12.6841 3.93639 12.6824 4.00624C12.6807 4.0761 12.6929 4.14559 12.7183 4.21068C12.7438 4.27578 12.7818 4.33518 12.8304 4.38543C12.8789 4.43569 12.937 4.47581 13.0011 4.50345C13.0653 4.53109 13.1343 4.54571 13.2042 4.54646C13.2741 4.54721 13.3434 4.5346 13.4082 4.50833Z" fill="#194890"/>
<path fill-rule="evenodd" clip-rule="evenodd" d="M15.2793 16.9174V12.6966C15.2793 12.5566 15.2237 12.4224 15.1248 12.3235C15.0258 12.2245 14.8916 12.1689 14.7517 12.1689C14.6118 12.1689 14.4776 12.2245 14.3786 12.3235C14.2797 12.4224 14.2241 12.5566 14.2241 12.6966V16.9174C14.2241 17.0573 14.2797 17.1915 14.3786 17.2905C14.4776 17.3894 14.6118 17.445 14.7517 17.445C14.8916 17.445 15.0258 17.3894 15.1248 17.2905C15.2237 17.1915 15.2793 17.0573 15.2793 16.9174Z" fill="#194890"/>
<path fill-rule="evenodd" clip-rule="evenodd" d="M16.8633 14.2795C16.8633 14.1395 16.8077 14.0053 16.7087 13.9064C16.6098 13.8075 16.4756 13.7519 16.3357 13.7519H13.17C13.0301 13.7519 12.8959 13.8075 12.797 13.9064C12.698 14.0053 12.6424 14.1395 12.6424 14.2795C12.6424 14.4194 12.698 14.5536 12.797 14.6526C12.8959 14.7515 13.0301 14.8071 13.17 14.8071H16.3357C16.4756 14.8071 16.6098 14.7515 16.7087 14.6526C16.8077 14.5536 16.8633 14.4194 16.8633 14.2795ZM7.41805 4.39369C8.00275 4.22863 8.61914 4.21036 9.21259 4.3405C9.80604 4.47064 10.3582 4.74518 10.8202 5.13978C11.2822 5.53438 11.6396 6.03685 11.861 6.60266C12.0823 7.16847 12.1606 7.78014 12.089 8.38346C12.0804 8.45245 12.0856 8.52245 12.1041 8.58944C12.1227 8.65643 12.1543 8.71908 12.1972 8.77381C12.2401 8.82853 12.2933 8.87425 12.3539 8.90832C12.4145 8.9424 12.4813 8.96416 12.5503 8.97236C12.6193 8.98057 12.6893 8.97505 12.7562 8.95612C12.8231 8.9372 12.8856 8.90524 12.9401 8.86208C12.9946 8.81893 13.04 8.76543 13.0738 8.70466C13.1075 8.64389 13.1289 8.57705 13.1368 8.50798C13.2601 7.46966 13.0372 6.41969 12.5027 5.521C11.9682 4.62231 11.1521 3.92515 10.1809 3.53771C9.20973 3.15028 8.13783 3.09423 7.13154 3.37826C6.12525 3.66229 5.24084 4.27052 4.61556 5.10857C3.99029 5.94662 3.6591 6.96762 3.6734 8.01313C3.68771 9.05864 4.04669 10.0702 4.69466 10.8908C5.34263 11.7115 6.24334 12.2953 7.25702 12.5517C8.27071 12.8081 9.34068 12.7227 10.3009 12.3089C10.3645 12.2815 10.4222 12.2418 10.4705 12.1921C10.5188 12.1424 10.5568 12.0837 10.5824 12.0194C10.6342 11.8894 10.6322 11.7441 10.5768 11.6156C10.5215 11.4871 10.4174 11.3858 10.2873 11.334C10.1573 11.2823 10.0121 11.2843 9.88356 11.3396C9.41937 11.5396 8.91907 11.6422 8.41362 11.6411C7.90818 11.6399 7.40836 11.535 6.9451 11.3329C6.48184 11.1307 6.065 10.8356 5.72039 10.4659C5.37578 10.0961 5.11074 9.65958 4.94166 9.18325C4.77259 8.70693 4.70308 8.20097 4.73745 7.69669C4.77182 7.19242 4.90933 6.70057 5.14147 6.25159C5.37361 5.80261 5.69544 5.40606 6.08703 5.08648C6.47862 4.76691 6.93164 4.53111 7.41805 4.39369Z" fill="#194890"/>
<path fill-rule="evenodd" clip-rule="evenodd" d="M5.36506 5.41934C5.46397 5.3204 5.51953 5.18623 5.51953 5.04632C5.51953 4.90642 5.46397 4.77225 5.36506 4.67331L1.408 0.716248C1.35933 0.665856 1.30111 0.625662 1.23674 0.59801C1.17237 0.570359 1.10314 0.555804 1.03308 0.555196C0.963025 0.554587 0.893549 0.567936 0.828708 0.594465C0.763867 0.620994 0.704958 0.66017 0.65542 0.709709C0.605882 0.759247 0.566705 0.818155 0.540177 0.882996C0.513649 0.947838 0.500299 1.01731 0.500908 1.08737C0.501516 1.15742 0.51607 1.22666 0.543721 1.29103C0.571373 1.3554 0.611567 1.41362 0.661959 1.46229L4.61902 5.41934C4.71796 5.51826 4.85213 5.57382 4.99204 5.57382C5.13194 5.57382 5.26611 5.51826 5.36506 5.41934Z" fill="#194890"/>
<path fill-rule="evenodd" clip-rule="evenodd" d="M1.07363 4.2548C1.14291 4.25391 1.21135 4.23937 1.27502 4.21203C1.33869 4.18468 1.39635 4.14506 1.44471 4.09543C1.49306 4.0458 1.53117 3.98713 1.55685 3.92277C1.58253 3.85841 1.59528 3.78962 1.59437 3.72033L1.56799 1.62362L3.66471 1.65C3.80464 1.65182 3.93956 1.59798 4.03979 1.50032C4.14002 1.40266 4.19736 1.26918 4.19917 1.12925C4.20099 0.989322 4.14715 0.8544 4.04949 0.754168C3.95183 0.653936 3.81836 0.596605 3.67843 0.594786L0.499061 0.554688L0.539159 3.73405C0.540054 3.80334 0.55459 3.87177 0.581934 3.93544C0.609279 3.99911 0.648899 4.05677 0.69853 4.10513C0.748161 4.15349 0.806831 4.1916 0.87119 4.21728C0.93555 4.24296 1.00434 4.25571 1.07363 4.2548Z" fill="#194890"/>
</svg>
