<svg width="20" height="20" viewBox="0 0 20 20" fill="none" xmlns="http://www.w3.org/2000/svg">
<path d="M2.2256 15.796V5.8433H16.7023V8.82006C17.3537 9.01911 17.969 9.30865 18.5118 9.69771V5.8433C18.5118 4.83898 17.7066 4.03372 16.7023 4.03372H13.0831V2.22413C13.0831 1.21981 12.2778 0.414551 11.2735 0.414551H7.65434C6.65003 0.414551 5.84476 1.21981 5.84476 2.22413V4.03372H2.2256C1.22128 4.03372 0.425064 4.83898 0.425064 5.8433L0.416016 15.796C0.416016 16.8003 1.22128 17.6056 2.2256 17.6056H9.17439C8.90296 17.0446 8.722 16.4384 8.63152 15.796H2.2256ZM7.65434 2.22413H11.2735V4.03372H7.65434V2.22413Z" fill="#194890"/>
<path d="M14.8911 10.3672C12.3939 10.3672 10.3672 12.3939 10.3672 14.8911C10.3672 17.3884 12.3939 19.4151 14.8911 19.4151C17.3884 19.4151 19.4151 17.3884 19.4151 14.8911C19.4151 12.3939 17.3884 10.3672 14.8911 10.3672ZM16.384 17.0174L14.4387 15.0721V12.1768H15.3435V14.7011L17.0174 16.375L16.384 17.0174Z" fill="#194890"/>
</svg>
