<svg width="20" height="20" viewBox="0 0 20 20" fill="none" xmlns="http://www.w3.org/2000/svg">
<path d="M9.99948 11.0119H9.90448C8.35733 10.8084 6.49805 10.0891 6.49805 7.78193C6.49805 6.39764 7.4209 4.90479 9.9859 4.90479C12.5509 4.90479 13.3923 6.7505 13.4738 7.72764C13.5009 8.10764 13.2295 8.43336 12.8495 8.4605C12.6723 8.47213 12.4974 8.41523 12.361 8.30156C12.2246 8.18789 12.1371 8.02615 12.1166 7.84979C12.0895 7.59193 11.8588 6.2755 9.97233 6.2755C8.5609 6.2755 7.84162 6.79121 7.84162 7.7955C7.84162 8.31121 7.84162 9.39693 10.0673 9.68193C10.2364 9.70817 10.3895 9.79697 10.4962 9.93073C10.603 10.0645 10.6556 10.2335 10.6436 10.4042C10.6317 10.5749 10.556 10.7349 10.4317 10.8525C10.3074 10.97 10.1434 11.0366 9.97233 11.0391L9.99948 11.0119Z" fill="#194890"/>
<path d="M9.99949 15.7619C7.42092 15.7619 6.59306 13.9162 6.51163 12.9391C6.48449 12.5591 6.75592 12.2333 7.13592 12.2062C7.50235 12.1791 7.82806 12.4505 7.86878 12.8169C7.89592 13.0748 8.12664 14.3912 10.0131 14.3912C11.4245 14.3912 12.1438 13.8755 12.1438 12.8712C12.1438 12.3555 12.1438 11.2698 9.91806 10.9848C9.74048 10.9601 9.57972 10.8666 9.47053 10.7244C9.36133 10.5822 9.31247 10.4027 9.33449 10.2248C9.38878 9.85835 9.72806 9.58692 10.0945 9.6412C11.6416 9.84477 13.5009 10.5641 13.5009 12.8712C13.5009 14.2555 12.5781 15.7483 10.0131 15.7483L9.99949 15.7619Z" fill="#194890"/>
<path d="M10 19.8335C4.76143 19.8335 0.5 15.5721 0.5 10.3335C0.5 5.09492 4.76143 0.833496 10 0.833496C15.2386 0.833496 19.5 5.09492 19.5 10.3335C19.5 15.5721 15.2386 19.8335 10 19.8335ZM10 2.19064C5.50786 2.19064 1.85714 5.84135 1.85714 10.3335C1.85714 14.8256 5.50786 18.4764 10 18.4764C14.4921 18.4764 18.1429 14.8256 18.1429 10.3335C18.1429 5.84135 14.4921 2.19064 10 2.19064Z" fill="#194890"/>
<path d="M9.99888 17.1193C9.61888 17.1193 9.32031 16.8207 9.32031 16.4407V4.22642C9.32031 3.84642 9.61888 3.54785 9.99888 3.54785C10.3789 3.54785 10.6775 3.84642 10.6775 4.22642V16.4407C10.6775 16.8207 10.3789 17.1193 9.99888 17.1193Z" fill="#194890"/>
</svg>
