<svg width="20" height="20" viewBox="0 0 20 20" fill="none" xmlns="http://www.w3.org/2000/svg">
<path d="M2.30958 16.2146V6.26212H16.7862V9.23881C17.4377 9.43786 18.0529 9.72739 18.5958 10.1164V6.26212C18.5958 5.25782 17.7906 4.45258 16.7862 4.45258H13.1671V2.64304C13.1671 1.63874 12.3618 0.833496 11.3575 0.833496H7.73833C6.73401 0.833496 5.92875 1.63874 5.92875 2.64304V4.45258H2.30958C1.30526 4.45258 0.509048 5.25782 0.509048 6.26212L0.5 16.2146C0.5 17.2189 1.30526 18.0241 2.30958 18.0241H9.25838C8.98694 17.4632 8.80598 16.857 8.7155 16.2146H2.30958ZM7.73833 2.64304H11.3575V4.45258H7.73833V2.64304Z" fill="#194890"/>
<path d="M14.9771 10.7856C12.4799 10.7856 10.4531 12.8123 10.4531 15.3095C10.4531 17.8067 12.4799 19.8333 14.9771 19.8333C17.4743 19.8333 19.501 17.8067 19.501 15.3095C19.501 12.8123 17.4743 10.7856 14.9771 10.7856ZM16.47 17.4357L14.5247 15.4905V12.5952H15.4295V15.1195L17.1033 16.7933L16.47 17.4357Z" fill="#194890"/>
</svg>
