<svg width="25" height="24" viewBox="0 0 25 24" fill="none" xmlns="http://www.w3.org/2000/svg">
<path d="M12.9973 11.5383L7.01366 3.89297C6.94335 3.80156 6.83319 3.75 6.71835 3.75H4.90663C4.7496 3.75 4.66288 3.93047 4.75897 4.05234L10.9793 12L4.75897 19.9477C4.73733 19.9753 4.72391 20.0085 4.72023 20.0434C4.71655 20.0783 4.72276 20.1135 4.73817 20.145C4.75357 20.1766 4.77754 20.2032 4.80733 20.2217C4.83712 20.2403 4.87153 20.2501 4.90663 20.25H6.71835C6.83319 20.25 6.94335 20.1961 7.01366 20.107L12.9973 12.4641C13.2105 12.1898 13.2105 11.8102 12.9973 11.5383ZM20.1223 11.5383L14.1387 3.89297C14.0683 3.80156 13.9582 3.75 13.8433 3.75H12.0316C11.8746 3.75 11.7879 3.93047 11.884 4.05234L18.1043 12L11.884 19.9477C11.8623 19.9753 11.8489 20.0085 11.8452 20.0434C11.8415 20.0783 11.8478 20.1135 11.8632 20.145C11.8786 20.1766 11.9025 20.2032 11.9323 20.2217C11.9621 20.2403 11.9965 20.2501 12.0316 20.25H13.8433C13.9582 20.25 14.0683 20.1961 14.1387 20.107L20.1223 12.4641C20.3355 12.1898 20.3355 11.8102 20.1223 11.5383Z" fill="white"/>
</svg>
