<svg width="17" height="18" viewBox="0 0 17 18" fill="none" xmlns="http://www.w3.org/2000/svg">
<path d="M8.99725 8.53828L3.01366 0.892969C2.94335 0.801563 2.83319 0.75 2.71835 0.75H0.906629C0.749598 0.75 0.662879 0.930469 0.758973 1.05234L6.97929 9L0.758973 16.9477C0.737333 16.9753 0.723905 17.0085 0.720226 17.0434C0.716546 17.0783 0.722764 17.1135 0.738166 17.145C0.753569 17.1766 0.777536 17.2032 0.807327 17.2217C0.837118 17.2403 0.87153 17.2501 0.906629 17.25H2.71835C2.83319 17.25 2.94335 17.1961 3.01366 17.107L8.99725 9.46406C9.21054 9.18984 9.21054 8.81016 8.99725 8.53828ZM16.1223 8.53828L10.1387 0.892969C10.0683 0.801563 9.95819 0.75 9.84335 0.75H8.03163C7.8746 0.75 7.78788 0.930469 7.88397 1.05234L14.1043 9L7.88397 16.9477C7.86233 16.9753 7.84891 17.0085 7.84523 17.0434C7.84155 17.0783 7.84776 17.1135 7.86317 17.145C7.87857 17.1766 7.90254 17.2032 7.93233 17.2217C7.96212 17.2403 7.99653 17.2501 8.03163 17.25H9.84335C9.95819 17.25 10.0683 17.1961 10.1387 17.107L16.1223 9.46406C16.3355 9.18984 16.3355 8.81016 16.1223 8.53828Z" fill="white"/>
</svg>
