<svg width="16" height="20" viewBox="0 0 16 20" fill="none" xmlns="http://www.w3.org/2000/svg">
<path fill-rule="evenodd" clip-rule="evenodd" d="M7.99777 19.1908L8.71891 18.3782C9.5372 17.4411 10.2732 16.5519 10.9281 15.7062L11.4686 14.9931C13.7258 11.9519 14.8549 9.53823 14.8549 7.75423C14.8549 3.94623 11.7852 0.859375 7.99777 0.859375C4.21034 0.859375 1.14062 3.94623 1.14062 7.75423C1.14062 9.53823 2.26977 11.9519 4.52691 14.9931L5.06748 15.7062C6.0017 16.9032 6.9791 18.0648 7.99777 19.1908Z" stroke="black" stroke-linecap="round" stroke-linejoin="round"/>
<path d="M7.99777 10.5737C9.57572 10.5737 10.8549 9.29447 10.8549 7.71652C10.8549 6.13856 9.57572 4.85938 7.99777 4.85938C6.41981 4.85938 5.14062 6.13856 5.14062 7.71652C5.14062 9.29447 6.41981 10.5737 7.99777 10.5737Z" stroke="black" stroke-linecap="round" stroke-linejoin="round"/>
</svg>
