<svg width="24" height="20" viewBox="0 0 24 20" fill="none" xmlns="http://www.w3.org/2000/svg">
<path d="M9.75 0.5C9.15326 0.5 8.58097 0.737053 8.15901 1.15901C7.73705 1.58097 7.5 2.15326 7.5 2.75V3.5H2.25C1.65326 3.5 1.08097 3.73705 0.65901 4.15901C0.237053 4.58097 0 5.15326 0 5.75L0 17.75C0 18.3467 0.237053 18.919 0.65901 19.341C1.08097 19.7629 1.65326 20 2.25 20H21.75C22.3467 20 22.919 19.7629 23.341 19.341C23.7629 18.919 24 18.3467 24 17.75V5.75C24 5.15326 23.7629 4.58097 23.341 4.15901C22.919 3.73705 22.3467 3.5 21.75 3.5H16.5V2.75C16.5 2.15326 16.2629 1.58097 15.841 1.15901C15.419 0.737053 14.8467 0.5 14.25 0.5H9.75ZM9.75 2H14.25C14.4489 2 14.6397 2.07902 14.7803 2.21967C14.921 2.36032 15 2.55109 15 2.75V3.5H9V2.75C9 2.55109 9.07902 2.36032 9.21967 2.21967C9.36032 2.07902 9.55109 2 9.75 2ZM12.579 12.371L22.5 9.7265V17.75C22.5 17.9489 22.421 18.1397 22.2803 18.2803C22.1397 18.421 21.9489 18.5 21.75 18.5H2.25C2.05109 18.5 1.86032 18.421 1.71967 18.2803C1.57902 18.1397 1.5 17.9489 1.5 17.75V9.725L11.421 12.371C11.8004 12.472 12.1996 12.472 12.579 12.371ZM2.25 5H21.75C21.9489 5 22.1397 5.07902 22.2803 5.21967C22.421 5.36032 22.5 5.55109 22.5 5.75V8.174L12.1935 10.922C12.0667 10.9559 11.9333 10.9559 11.8065 10.922L1.5 8.174V5.75C1.5 5.55109 1.57902 5.36032 1.71967 5.21967C1.86032 5.07902 2.05109 5 2.25 5Z" fill="black"/>
</svg>
