<svg width="14" height="22" viewBox="0 0 14 22" fill="none" xmlns="http://www.w3.org/2000/svg">
<path d="M12.6616 21.4968C12.3097 21.5079 11.9676 21.3794 11.7101 21.1393L7.18289 16.8772L2.95928 21.3565C2.78102 21.5593 2.54542 21.7031 2.28363 21.7691C2.02184 21.835 1.7462 21.8199 1.49317 21.7258C1.24013 21.6317 1.02163 21.463 0.86655 21.242C0.711471 21.021 0.627127 20.7582 0.624671 20.4882L0.0493285 1.87712C0.0384018 1.52367 0.168332 1.18035 0.410534 0.922695C0.652737 0.665039 0.987373 0.514152 1.34083 0.503225L12.0024 0.173634C12.3559 0.162707 12.6992 0.292636 12.9568 0.534839C13.2145 0.777042 13.3654 1.11168 13.3763 1.46513L13.9531 20.1229C13.964 20.4763 13.8341 20.8197 13.5919 21.0773C13.3497 21.335 13.015 21.4859 12.6616 21.4968ZM12.6204 20.1641L12.0436 1.50633L1.38203 1.83592L1.95737 20.447L7.1248 14.9981L12.6204 20.1641Z" fill="#285A9B"/>
</svg>
