<svg width="24" height="24" viewBox="0 0 24 24" fill="none" xmlns="http://www.w3.org/2000/svg">
<path fill-rule="evenodd" clip-rule="evenodd" d="M15.1807 12.4447C14.9969 11.9246 14.6563 11.4744 14.206 11.156C13.7556 10.8375 13.2176 10.6666 12.666 10.6667V10H11.3327V10.6667C10.6254 10.6667 9.94716 10.9476 9.44706 11.4477C8.94697 11.9478 8.66602 12.6261 8.66602 13.3333C8.66602 14.0406 8.94697 14.7189 9.44706 15.219C9.94716 15.719 10.6254 16 11.3327 16V18.6667C10.7527 18.6667 10.2587 18.2967 10.0747 17.778C10.0474 17.6931 10.0033 17.6146 9.94517 17.5471C9.88699 17.4795 9.81587 17.4244 9.73599 17.3848C9.65611 17.3452 9.56911 17.3221 9.48014 17.3167C9.39116 17.3113 9.30201 17.3239 9.21796 17.3536C9.13391 17.3833 9.05667 17.4295 8.99081 17.4896C8.92495 17.5497 8.8718 17.6223 8.83451 17.7033C8.79723 17.7843 8.77655 17.8719 8.77372 17.961C8.77088 18.0501 8.78595 18.1388 8.81802 18.222C9.00183 18.742 9.34237 19.1923 9.79273 19.5107C10.2431 19.8291 10.7811 20.0001 11.3327 20V20.6667H12.666V20C13.3733 20 14.0515 19.719 14.5516 19.219C15.0517 18.7189 15.3327 18.0406 15.3327 17.3333C15.3327 16.6261 15.0517 15.9478 14.5516 15.4477C14.0515 14.9476 13.3733 14.6667 12.666 14.6667V12C12.9418 11.9999 13.2107 12.0854 13.4359 12.2445C13.6611 12.4037 13.8314 12.6287 13.9233 12.8887C13.9822 13.0554 14.1049 13.1919 14.2645 13.2682C14.3435 13.3059 14.4291 13.3278 14.5165 13.3324C14.604 13.3371 14.6915 13.3245 14.774 13.2953C14.8566 13.2662 14.9326 13.2211 14.9977 13.1625C15.0628 13.104 15.1158 13.0332 15.1535 12.9542C15.1913 12.8752 15.2131 12.7896 15.2178 12.7021C15.2224 12.6147 15.2098 12.5272 15.1807 12.4447ZM11.3327 12C10.9791 12 10.6399 12.1405 10.3899 12.3905C10.1398 12.6406 9.99935 12.9797 9.99935 13.3333C9.99935 13.687 10.1398 14.0261 10.3899 14.2761C10.6399 14.5262 10.9791 14.6667 11.3327 14.6667V12ZM12.666 18.6667C13.0196 18.6667 13.3588 18.5262 13.6088 18.2761C13.8589 18.0261 13.9993 17.687 13.9993 17.3333C13.9993 16.9797 13.8589 16.6406 13.6088 16.3905C13.3588 16.1405 13.0196 16 12.666 16V18.6667Z" fill="black"/>
<path fill-rule="evenodd" clip-rule="evenodd" d="M4.768 1.74733C6.404 0.946667 9.088 0 12.0253 0C14.9013 0 17.5147 0.907333 19.142 1.69733L19.234 1.742C19.7247 1.98467 20.1207 2.214 20.3993 2.4L17.9367 6C23.614 11.804 27.9993 23.998 12.0253 23.998C-3.94866 23.998 0.318669 12.0253 6.04534 6L3.59867 2.4C3.78734 2.27667 4.02667 2.13333 4.312 1.98133C4.45334 1.90533 4.60534 1.82689 4.768 1.74733ZM16.354 5.95267L18.3253 3.07067C16.492 3.20267 14.3107 3.63333 12.2107 4.24133C10.7107 4.67467 9.044 4.60867 7.50067 4.324C7.11174 4.25199 6.72549 4.16616 6.34267 4.06667L7.62267 5.95133C10.366 6.928 13.61 6.928 16.354 5.95267ZM6.85267 7.08667C10.0627 8.32667 13.9207 8.32667 17.1307 7.08533C18.4702 8.49808 19.5911 10.1032 20.456 11.8473C21.3573 13.686 21.848 15.524 21.768 17.108C21.6907 18.6367 21.0893 19.9427 19.716 20.9133C18.2847 21.9247 15.8773 22.6647 12.0247 22.6647C8.168 22.6647 5.74934 21.9373 4.30467 20.9373C2.92134 19.9793 2.314 18.6907 2.228 17.1827C2.138 15.616 2.618 13.7873 3.516 11.936C4.37267 10.1707 5.568 8.47133 6.85267 7.08667ZM6.086 2.61067C6.61934 2.76933 7.17667 2.90733 7.742 3.012C9.17534 3.276 10.6127 3.31467 11.8393 2.95933C13.2688 2.54274 14.7227 2.21522 16.1927 1.97867C14.966 1.60933 13.5313 1.33333 12.0247 1.33333C9.728 1.33333 7.586 1.974 6.086 2.61067Z" fill="black"/>
</svg>
